<svg xmlns="http://www.w3.org/2000/svg" width="25" height="25" viewBox="0 0 25 25">
  <g id="Group_73482" data-name="Group 73482" transform="translate(-1578 -56)">
    <g id="Group_1392" data-name="Group 1392" transform="translate(1583.49 61.469)">
      <path id="noun-profile-4682855" d="M148.573,87.07a3.582,3.582,0,1,0-3.215,0A6.969,6.969,0,0,0,140,93.838h.58a6.382,6.382,0,1,1,12.765,0h.58a6.969,6.969,0,0,0-5.355-6.768Zm-4.609-3.2h0A3.006,3.006,0,1,1,144.844,86a3,3,0,0,1-.881-2.121Z" transform="translate(-140.003 -80.288)" fill="#b00020"/>
      <rect id="Rectangle_565" data-name="Rectangle 565" width="11.174" height="0.652" rx="0.326" transform="translate(1.308 12.898)" fill="#b00020"/>
    </g>
    <rect id="Rectangle_18279" data-name="Rectangle 18279" width="25" height="25" transform="translate(1578 56)" fill="none"/>
  </g>
</svg>
