<svg xmlns="http://www.w3.org/2000/svg" width="120" height="120" viewBox="0 0 120 120">
  <g id="Group_73487" data-name="Group 73487" transform="translate(-304 -49)">
    <rect id="Rectangle_18157" data-name="Rectangle 18157" width="90" height="90" transform="translate(322 67)"/>
    <rect id="Rectangle_18140" data-name="Rectangle 18140" width="120" height="120" transform="translate(304 49)" fill="none"/>
    <g id="Group_73309" data-name="Group 73309" transform="translate(318.953 63.954)">
      <rect id="Rectangle_18070" data-name="Rectangle 18070" width="29.908" height="29.908" transform="translate(30.419 59.347)" fill="#abe9e1"/>
      <rect id="Rectangle_18068" data-name="Rectangle 18068" width="30" height="29" transform="translate(29.045 1.046)" fill="#abe9e1"/>
      <rect id="Rectangle_18069" data-name="Rectangle 18069" width="29.908" height="29.908" transform="translate(59.347 29.823)" fill="#fff"/>
      <rect id="Rectangle_18071" data-name="Rectangle 18071" width="29.908" height="29.908" transform="translate(0.297 30.119)" fill="#fff"/>
      <rect id="Rectangle_18061" data-name="Rectangle 18061" width="29.908" height="29.908" transform="translate(29.524 30.124)"/>
      <rect id="Rectangle_18057" data-name="Rectangle 18057" width="30" height="30" transform="translate(0.045 0.046)" fill="#fff"/>
      <rect id="Rectangle_18058" data-name="Rectangle 18058" width="30" height="30" transform="translate(60.045 0.046)"/>
      <rect id="Rectangle_18059" data-name="Rectangle 18059" width="30" height="30" transform="translate(60.045 60.046)" fill="#fff"/>
      <rect id="Rectangle_18060" data-name="Rectangle 18060" width="30" height="30" transform="translate(0.045 60.046)"/>
      <line id="Line_960" data-name="Line 960" y2="90" transform="translate(0.045 0.046)" fill="none" stroke="#000" stroke-width="1"/>
      <line id="Line_961" data-name="Line 961" x2="89.3" fill="none" stroke="#000" stroke-width="1"/>
      <line id="Line_962" data-name="Line 962" y2="89.468" transform="translate(29.823)" fill="none" stroke="#000" stroke-width="1"/>
      <line id="Line_963" data-name="Line 963" y2="89.468" transform="translate(59.645)" fill="none" stroke="#000" stroke-width="1"/>
      <line id="Line_964" data-name="Line 964" y2="90" transform="translate(90.045 0.046)" fill="none" stroke="#000" stroke-width="1"/>
      <line id="Line_965" data-name="Line 965" x2="89.3" transform="translate(0 29.823)" fill="none" stroke="#000" stroke-width="1"/>
      <line id="Line_966" data-name="Line 966" x2="89.3" transform="translate(0 59.645)" fill="none" stroke="#000" stroke-width="1"/>
      <line id="Line_967" data-name="Line 967" x2="89.3" transform="translate(0 89.468)" fill="none" stroke="#000" stroke-width="1"/>
    </g>
  </g>
</svg>
