<svg xmlns="http://www.w3.org/2000/svg" width="15" height="15" viewBox="0 0 15 15">
  <path id="Path_9097" data-name="Path 9097" d="M18.51,17.638h2.029l-1.014,3.746Zm-.029-.339h2.086l-1.043-1.6Zm6.771.78-2.231,2.213L20.5,22.649a1.418,1.418,0,0,1-1.938-.016l-2.469-2.382-2.263-2.17a1.306,1.306,0,0,1-.165-1.721l1.043-1.454a1.4,1.4,0,0,1,1.136-.577h7.366a1.4,1.4,0,0,1,1.136.577l1.056,1.47a1.309,1.309,0,0,1-.148,1.7Zm-.984-.61h0a.172.172,0,0,0-.174-.169H21.17l1.749-1.809a.166.166,0,0,0-.014-.233.178.178,0,0,0-.242,0l-1.8,1.861-1.191-1.835h0a.185.185,0,0,0-.3,0l-1.191,1.835-1.8-1.861h0a.178.178,0,0,0-.253-.014.168.168,0,0,0-.056.122.171.171,0,0,0,.053.123L17.878,17.3H14.954a.169.169,0,1,0,0,.339h3.194l1.208,4.456a.1.1,0,0,0,.012.026.088.088,0,0,0,0,.02.187.187,0,0,0,.039.042.205.205,0,0,0,.058.028h.09a.205.205,0,0,0,.058-.028.167.167,0,0,0,.039-.042.045.045,0,0,0,0-.02.082.082,0,0,0,.012-.026l1.208-4.456h3.223a.179.179,0,0,0,.123-.049.17.17,0,0,0,.051-.12ZM12.323,12.881a.179.179,0,0,0-.24,0,.166.166,0,0,0-.009.233l.947.942a.179.179,0,0,0,.125.05.177.177,0,0,0,.161-.1.166.166,0,0,0-.035-.183ZM25.9,14.11a.179.179,0,0,0,.125-.05l.947-.942a.166.166,0,0,0-.009-.233.179.179,0,0,0-.24,0l-.948.942a.166.166,0,0,0-.035.183.177.177,0,0,0,.161.1Zm-6.284-1.833a.172.172,0,0,0,.174-.17V11a.175.175,0,0,0-.35,0v1.1a.17.17,0,0,0,.051.12A.181.181,0,0,0,19.619,12.276ZM13.021,22.6l-.947.942a.166.166,0,0,0,0,.239.182.182,0,0,0,.123.048.176.176,0,0,0,.123-.05l.948-.942a.163.163,0,0,0,0-.239.182.182,0,0,0-.125-.049.177.177,0,0,0-.123.052Zm13.008,0h0a.179.179,0,0,0-.247,0,.164.164,0,0,0,0,.239l.944.939a.175.175,0,0,0,.123.05.182.182,0,0,0,.123-.048.166.166,0,0,0,0-.239Zm-6.409,1.783a.172.172,0,0,0-.175.17v1.1a.175.175,0,0,0,.35,0v-1.1A.172.172,0,0,0,19.619,24.388Z" transform="translate(-12.023 -10.832)" fill="#fff"/>
</svg>
