<svg id="Group_61" data-name="Group 61" xmlns="http://www.w3.org/2000/svg" width="37.882" height="31.415" viewBox="0 0 37.882 31.415">
  <g id="Rectangle_57" data-name="Rectangle 57" transform="translate(0 0)" fill="#fff" stroke="#707070" stroke-width="0.2">
    <rect width="37.882" height="31.415" rx="3" stroke="none"/>
    <rect x="0.1" y="0.1" width="37.682" height="31.215" rx="2.9" fill="none"/>
  </g>
  <g id="Page-1" transform="translate(12.011 8.316)">
    <g id="Social-Icons---Rounded-Black" transform="translate(0 0)">
      <g id="Facebook">
        <path id="Subtraction_1" data-name="Subtraction 1" d="M7.546,13.927h-6A1.549,1.549,0,0,1,0,12.38V1.548A1.549,1.549,0,0,1,1.548,0H12.38a1.549,1.549,0,0,1,1.547,1.548V12.38a1.549,1.549,0,0,1-1.547,1.547H9.628V8.683h1.737l.259-2.015h-2V5.379c0-.588.17-.98,1-.98l1.069,0V2.6a14.129,14.129,0,0,0-1.556-.081A2.441,2.441,0,0,0,7.546,5.181V6.668H5.8V8.683H7.546v5.244Z"/>
      </g>
    </g>
  </g>
</svg>
