<svg xmlns="http://www.w3.org/2000/svg" width="120" height="120" viewBox="0 0 120 120">
  <g id="Group_73494" data-name="Group 73494" transform="translate(-304 -389)">
    <g id="noun-quiz-21610_2_" data-name="noun-quiz-21610 (2)" transform="translate(306.72 396)">
      <g id="Group_73145" data-name="Group 73145" transform="translate(4.28 20)">
        <g id="Group_73163" data-name="Group 73163">
          <rect id="Rectangle_18160" data-name="Rectangle 18160" width="40" height="40" rx="5" transform="matrix(0.985, 0.174, -0.174, 0.985, 9.133, 12.485)" fill="#a5df78"/>
          <g id="Rectangle_18171" data-name="Rectangle 18171" transform="matrix(0.985, 0.174, -0.174, 0.985, 9.133, 12.485)" fill="#a5df78" stroke="#000" stroke-width="2">
            <rect width="40" height="40" rx="5" stroke="none"/>
            <rect x="1" y="1" width="38" height="38" rx="4" fill="none"/>
          </g>
          <path id="Path_9572" data-name="Path 9572" d="M35.425,41.482a11.764,11.764,0,0,0-6.237-2.691,9.749,9.749,0,0,0-1.407-.1,9.872,9.872,0,0,0-5.495,1.64,6.213,6.213,0,0,0-2.846,4.161,2.372,2.372,0,0,0,.524,1.956,2.805,2.805,0,0,0,1.73.886,3.615,3.615,0,0,0,.513.04c1.429,0,2.068-.975,2.685-1.917.688-1.055,1.341-2.052,3.075-2.052a5.486,5.486,0,0,1,.769.058c2.055.3,3.081,1.512,2.817,3.336-.225,1.567-1.762,2.435-3.387,3.351-1.825,1.03-3.9,2.2-4.24,4.586a2.886,2.886,0,0,0,.373,1.9,2.454,2.454,0,0,0,1.814,1.151,4.353,4.353,0,0,0,.593.045h0c1.412,0,1.893-.868,2.356-1.707a5.209,5.209,0,0,1,.687-1.038,8.392,8.392,0,0,1,2.111-1.314c2.2-1.132,5.217-2.686,5.711-6.108A6.74,6.74,0,0,0,35.425,41.482Z" transform="translate(-1.785 -16.919)"/>
          <path id="Path_9573" data-name="Path 9573" d="M25.584,56.7a3.26,3.26,0,1,0-.932,6.453,3.1,3.1,0,0,0,.462.033,3.26,3.26,0,0,0,.469-6.486Z" transform="translate(-1.383 -13.956)"/>
        </g>
        <rect id="Rectangle_18159" data-name="Rectangle 18159" width="59.158" height="58.744" rx="5" transform="translate(41.594 8.561) rotate(-8)" fill="#fff"/>
        <g id="Rectangle_18170" data-name="Rectangle 18170" transform="translate(40.585 7.722) rotate(-8)" fill="none" stroke="#000" stroke-width="2">
          <rect width="60" height="60" rx="5" stroke="none"/>
          <rect x="1" y="1" width="58" height="58" rx="4" fill="none"/>
        </g>
        <g id="Smile" transform="matrix(0.998, -0.07, 0.07, 0.998, 46.944, 12.104)">
          <g id="Group_72944" data-name="Group 72944" transform="translate(8.462 5.795)">
            <g id="Group_72943" data-name="Group 72943" transform="translate(0)">
              <g id="Group_72928" data-name="Group 72928">
                <g id="Group_72912" data-name="Group 72912" transform="translate(0.464 0.464)">
                  <path id="Path_9504" data-name="Path 9504" d="M46.657,23.581A17.036,17.036,0,1,1,29.625,6.545,17.039,17.039,0,0,1,46.657,23.581Z" transform="translate(-12.585 -6.545)" fill="#fff"/>
                </g>
                <g id="Group_72913" data-name="Group 72913" transform="translate(3.712 3.719)">
                  <path id="Path_9505" data-name="Path 9505" d="M48.663,25.542A17.087,17.087,0,0,1,17.838,35.7,17.09,17.09,0,0,0,41.746,11.81a17.042,17.042,0,0,1,6.917,13.732Z" transform="translate(-17.838 -11.81)" fill="#fff"/>
                </g>
                <g id="Group_72914" data-name="Group 72914">
                  <path id="Path_9506" data-name="Path 9506" d="M29.339,40.795a17.5,17.5,0,1,1,17.5-17.5,17.522,17.522,0,0,1-17.5,17.5Zm0-34.048A16.548,16.548,0,1,0,45.883,23.295,16.569,16.569,0,0,0,29.339,6.747Z" transform="translate(-11.835 -5.795)" fill="#060606"/>
                </g>
                <g id="Group_72923" data-name="Group 72923" transform="translate(8.13 8.757)">
                  <g id="Group_72915" data-name="Group 72915">
                    <path id="Path_9507" data-name="Path 9507" d="M30.233,21.562a.462.462,0,0,1-.328-.136,3.431,3.431,0,0,0-4.85,0,.464.464,0,0,1-.656-.656,4.358,4.358,0,0,1,6.162,0,.464.464,0,0,1-.328.792Z" transform="translate(-24.263 -19.494)" fill="#060606"/>
                  </g>
                  <g id="Group_72916" data-name="Group 72916" transform="translate(12.306)">
                    <path id="Path_9508" data-name="Path 9508" d="M50.136,21.562a.462.462,0,0,1-.328-.136,3.431,3.431,0,0,0-4.85,0,.464.464,0,1,1-.656-.656,4.358,4.358,0,0,1,6.162,0,.464.464,0,0,1-.328.792Z" transform="translate(-44.166 -19.494)" fill="#060606"/>
                  </g>
                  <g id="Group_72917" data-name="Group 72917" transform="translate(1.284 3.235)">
                    <path id="Path_9509" data-name="Path 9509" d="M30.205,26.659a1.932,1.932,0,1,1-1.932-1.932A1.932,1.932,0,0,1,30.205,26.659Z" transform="translate(-26.34 -24.727)"/>
                  </g>
                  <g id="Group_72918" data-name="Group 72918" transform="translate(1.414 3.357)">
                    <path id="Path_9510" data-name="Path 9510" d="M30.285,26.733a1.928,1.928,0,0,1-3.735.676,1.806,1.806,0,0,0,.676.129,1.938,1.938,0,0,0,1.932-1.932,1.866,1.866,0,0,0-.129-.683,1.925,1.925,0,0,1,1.256,1.81Z" transform="translate(-26.55 -24.924)"/>
                  </g>
                  <g id="Group_72919" data-name="Group 72919" transform="translate(0.821 2.771)">
                    <path id="Path_9511" data-name="Path 9511" d="M27.987,28.768a2.4,2.4,0,1,1,2.4-2.4A2.4,2.4,0,0,1,27.987,28.768Zm0-3.864a1.468,1.468,0,1,0,1.468,1.468A1.47,1.47,0,0,0,27.987,24.9Z" transform="translate(-25.59 -23.977)" fill="#060606"/>
                  </g>
                  <g id="Group_72920" data-name="Group 72920" transform="translate(13.59 3.235)">
                    <path id="Path_9512" data-name="Path 9512" d="M50.108,26.659a1.932,1.932,0,1,1-1.932-1.932A1.932,1.932,0,0,1,50.108,26.659Z" transform="translate(-46.243 -24.727)"/>
                  </g>
                  <g id="Group_72921" data-name="Group 72921" transform="translate(13.718 3.357)">
                    <path id="Path_9513" data-name="Path 9513" d="M50.186,26.733a1.928,1.928,0,0,1-3.735.676,1.806,1.806,0,0,0,.676.129,1.938,1.938,0,0,0,1.932-1.932,1.866,1.866,0,0,0-.129-.683A1.925,1.925,0,0,1,50.186,26.733Z" transform="translate(-46.451 -24.924)"/>
                  </g>
                  <g id="Group_72922" data-name="Group 72922" transform="translate(13.126 2.771)">
                    <path id="Path_9514" data-name="Path 9514" d="M47.89,28.768a2.4,2.4,0,1,1,2.4-2.4A2.4,2.4,0,0,1,47.89,28.768Zm0-3.864a1.468,1.468,0,1,0,1.468,1.468A1.47,1.47,0,0,0,47.89,24.9Z" transform="translate(-45.494 -23.977)" fill="#060606"/>
                  </g>
                </g>
                <g id="Group_72927" data-name="Group 72927" transform="translate(8.969 21.235)">
                  <g id="Group_72926" data-name="Group 72926">
                    <path id="Path_9517" data-name="Path 9517" d="M34.153,46.615a8.97,8.97,0,0,1-8.466-6.021,1.17,1.17,0,0,1,.156-1.074,1.209,1.209,0,0,1,.984-.509h14.65a1.21,1.21,0,0,1,.984.508,1.171,1.171,0,0,1,.156,1.074,8.968,8.968,0,0,1-8.463,6.021Zm-7.327-6.676a.278.278,0,0,0-.228.119.25.25,0,0,0-.036.232,8.033,8.033,0,0,0,15.177,0,.252.252,0,0,0-.036-.232.278.278,0,0,0-.228-.119H26.825Z" transform="translate(-25.62 -39.011)" fill="#060606"/>
                  </g>
                </g>
              </g>
            </g>
          </g>
        </g>
      </g>
    </g>
    <rect id="Rectangle_18164" data-name="Rectangle 18164" width="120" height="120" transform="translate(304 389)" fill="none"/>
  </g>
</svg>
