<svg id="Group_63" data-name="Group 63" xmlns="http://www.w3.org/2000/svg" width="38.806" height="31.415" viewBox="0 0 38.806 31.415">
  <g id="Rectangle_61" data-name="Rectangle 61" transform="translate(0 0)" fill="#fff" stroke="#707070" stroke-width="0.2">
    <rect width="38.806" height="31.415" rx="3" stroke="none"/>
    <rect x="0.1" y="0.1" width="38.606" height="31.215" rx="2.9" fill="none"/>
  </g>
  <path id="icons8-instagram" d="M7.635,3A4.639,4.639,0,0,0,3,7.635v6.418a4.639,4.639,0,0,0,4.635,4.635h6.417a4.639,4.639,0,0,0,4.635-4.635V7.635A4.639,4.639,0,0,0,14.052,3Zm7.487,2.852a.713.713,0,1,1-.713.713A.715.715,0,0,1,15.122,5.852Zm-4.278,1.07a3.922,3.922,0,1,1-3.922,3.922A3.924,3.924,0,0,1,10.844,6.922Zm0,.713a3.209,3.209,0,1,0,3.209,3.209A3.214,3.214,0,0,0,10.844,7.635Z" transform="translate(9.011 5.316)"/>
</svg>
