<svg xmlns="http://www.w3.org/2000/svg" width="120" height="120" viewBox="0 0 120 120">
  <g id="Group_73235" data-name="Group 73235" transform="translate(-735 -2214)">
    <rect id="Rectangle_18249" data-name="Rectangle 18249" width="100" height="100" transform="translate(750 2229)"/>
    <g id="Group_73234" data-name="Group 73234" transform="translate(-392.188 -493.5)">
      <rect id="Rectangle_18195" data-name="Rectangle 18195" width="33" height="33" transform="translate(1170.688 2718.5)" fill="#fff"/>
      <rect id="Rectangle_18196" data-name="Rectangle 18196" width="33" height="33" transform="translate(1204.021 2750.833)" fill="#fff"/>
      <rect id="Rectangle_18197" data-name="Rectangle 18197" width="33" height="33" transform="translate(1171.688 2783.833)" fill="#fff"/>
      <rect id="Rectangle_18198" data-name="Rectangle 18198" width="33" height="33" transform="translate(1138.688 2751.833)" fill="#fff"/>
      <rect id="Rectangle_18199" data-name="Rectangle 18199" width="34" height="34" transform="translate(1170.688 2749.833)" fill="#fff447"/>
      <path id="Rectangle_18200" data-name="Rectangle 18200" d="M2,0H33a0,0,0,0,1,0,0V33a0,0,0,0,1,0,0H0a0,0,0,0,1,0,0V2A2,2,0,0,1,2,0Z" transform="translate(1137.688 2717.5)" fill="#fff447"/>
      <path id="Rectangle_18201" data-name="Rectangle 18201" d="M2,0H33a0,0,0,0,1,0,0V33a0,0,0,0,1,0,0H0a0,0,0,0,1,0,0V2A2,2,0,0,1,2,0Z" transform="translate(1204.688 2717.5)" fill="#fff447"/>
      <rect id="Rectangle_18202" data-name="Rectangle 18202" width="33" height="33" transform="translate(1204.688 2784.5)" fill="#fff"/>
      <path id="Rectangle_18203" data-name="Rectangle 18203" d="M2,0H33a0,0,0,0,1,0,0V33a0,0,0,0,1,0,0H0a0,0,0,0,1,0,0V2A2,2,0,0,1,2,0Z" transform="translate(1137.688 2784.5)" fill="#fff"/>
      <line id="Line_1021" data-name="Line 1021" y2="100" transform="translate(1137.688 2717.5)" fill="none" stroke="#000" stroke-width="1"/>
      <line id="Line_1022" data-name="Line 1022" x2="99.812" transform="translate(1137.688 2717.5)" fill="none" stroke="#000" stroke-width="1"/>
      <line id="Line_1023" data-name="Line 1023" y2="100" transform="translate(1171.021 2717.5)" fill="none" stroke="#000" stroke-width="1"/>
      <line id="Line_1024" data-name="Line 1024" y2="100" transform="translate(1204.355 2717.5)" fill="none" stroke="#000" stroke-width="1"/>
      <line id="Line_1025" data-name="Line 1025" y2="100" transform="translate(1237.688 2717.5)" fill="none" stroke="#000" stroke-width="1"/>
      <line id="Line_1026" data-name="Line 1026" x2="99.812" transform="translate(1137.688 2750.833)" fill="none" stroke="#000" stroke-width="1"/>
      <line id="Line_1027" data-name="Line 1027" x2="99.812" transform="translate(1137.688 2784.167)" fill="none" stroke="#000" stroke-width="1"/>
      <line id="Line_1028" data-name="Line 1028" x2="99.812" transform="translate(1137.688 2817.5)" fill="none" stroke="#000" stroke-width="1"/>
      <text id="_1" data-name="1" transform="translate(1144.688 2724.5)" font-size="20" font-family="MerriweatherSans-Medium, Merriweather Sans" font-weight="500" letter-spacing="-0.025em"><tspan x="5" y="20">1</tspan></text>
      <text id="_3" data-name="3" transform="translate(1211.688 2724.5)" font-size="20" font-family="MerriweatherSans-Medium, Merriweather Sans" font-weight="500" letter-spacing="-0.025em"><tspan x="4" y="20">3</tspan></text>
      <text id="_2" data-name="2" transform="translate(1175.688 2756.5)" font-size="20" font-family="MerriweatherSans-Medium, Merriweather Sans" font-weight="500" letter-spacing="-0.025em"><tspan x="3" y="20">2</tspan></text>
      <line id="Line_1029" data-name="Line 1029" y2="62" transform="translate(1168.188 2720)" fill="none" stroke="#000" stroke-width="1" stroke-dasharray="1"/>
      <line id="Line_1030" data-name="Line 1030" x2="31" transform="translate(1137.188 2781.167)" fill="none" stroke="#000" stroke-width="1" stroke-dasharray="1"/>
      <line id="Line_1031" data-name="Line 1031" y2="62.667" transform="translate(1174.188 2753.333)" fill="none" stroke="#000" stroke-width="1" stroke-dasharray="1"/>
      <line id="Line_1032" data-name="Line 1032" x2="60" transform="translate(1175.188 2754)" fill="none" stroke="#000" stroke-width="1" stroke-dasharray="1"/>
    </g>
    <rect id="Rectangle_18204" data-name="Rectangle 18204" width="120" height="120" transform="translate(735 2214)" fill="none"/>
  </g>
</svg>
