<svg id="Group_62" data-name="Group 62" xmlns="http://www.w3.org/2000/svg" width="37.882" height="31.415" viewBox="0 0 37.882 31.415">
  <g id="Rectangle_62" data-name="Rectangle 62" transform="translate(0 0)" fill="#fff" stroke="#707070" stroke-width="0.2">
    <rect width="37.882" height="31.415" rx="3" stroke="none"/>
    <rect x="0.1" y="0.1" width="37.682" height="31.215" rx="2.9" fill="none"/>
  </g>
  <path id="icons8-linkedin" d="M17.82,4H5.868A1.868,1.868,0,0,0,4,5.868V17.82a1.868,1.868,0,0,0,1.868,1.868H17.82a1.868,1.868,0,0,0,1.868-1.868V5.868A1.868,1.868,0,0,0,17.82,4ZM8.856,9.976v7.1H6.615v-7.1ZM6.615,7.911a1,1,0,0,1,1.121-.923,1.011,1.011,0,0,1,1.121.923.994.994,0,0,1-1.121.945A1.011,1.011,0,0,1,6.615,7.911Zm10.458,9.162H14.832V13.338a1.343,1.343,0,0,0-1.307-1.509h-.03c-.9,0-1.277.769-1.277,1.509v3.735H9.976v-7.1h2.241v.956a2.8,2.8,0,0,1,2.17-.956c1.483,0,2.686,1.02,2.686,3.085Z" transform="translate(7.088 4.316)"/>
</svg>
