<svg xmlns="http://www.w3.org/2000/svg" width="12" height="15" viewBox="0 0 12 15">
  <g id="noun-lock-7773507" transform="translate(-19.609 -10)">
    <path id="Path_9543" data-name="Path 9543" d="M30.165,16.218h-.5V13.853a4.063,4.063,0,0,0-8.115,0v2.364h-.5a1.412,1.412,0,0,0-1.443,1.37V23.63A1.412,1.412,0,0,0,21.052,25h9.113a1.412,1.412,0,0,0,1.443-1.37V17.588a1.412,1.412,0,0,0-1.444-1.37Zm-6.811-2.364a2.258,2.258,0,0,1,4.51,0v2.364h-4.51Zm2.863,6.657v1.772a.609.609,0,0,1-1.215,0V20.51a1.141,1.141,0,0,1-.606-1,1.215,1.215,0,0,1,2.428,0A1.145,1.145,0,0,1,26.217,20.51Z" transform="translate(0)" fill="#fff" fill-rule="evenodd"/>
  </g>
</svg>
