<svg xmlns="http://www.w3.org/2000/svg" width="50.001" height="50" viewBox="0 0 50.001 50">
  <g id="Group_73180" data-name="Group 73180" transform="translate(-432.999 -2183)">
    <g id="noun-quiz-21610_2_" data-name="noun-quiz-21610 (2)" transform="translate(426.532 2172.628)">
      <g id="Group_73145" data-name="Group 73145" transform="translate(6.467 19.372)">
        <g id="Group_73163" data-name="Group 73163" transform="translate(0 6.176)">
          <rect id="Rectangle_18160" data-name="Rectangle 18160" width="18.838" height="18.838" rx="5" transform="matrix(0.985, 0.174, -0.174, 0.985, 3.271, 0)" fill="#a5df78"/>
          <g id="Rectangle_18171" data-name="Rectangle 18171" transform="matrix(0.985, 0.174, -0.174, 0.985, 3.271, 0)" fill="#fff" stroke="#000" stroke-width="2">
            <rect width="18.838" height="18.838" rx="5" stroke="none"/>
            <rect x="1" y="1" width="16.838" height="16.838" rx="4" fill="none"/>
          </g>
          <path id="Path_9572" data-name="Path 9572" d="M26.953,40a5.54,5.54,0,0,0-2.937-1.267,4.591,4.591,0,0,0-.663-.048,4.65,4.65,0,0,0-2.588.772,2.926,2.926,0,0,0-1.34,1.96,1.117,1.117,0,0,0,.247.921,1.321,1.321,0,0,0,.815.417,1.7,1.7,0,0,0,.241.019c.673,0,.974-.459,1.265-.9a1.6,1.6,0,0,1,1.448-.967,2.583,2.583,0,0,1,.362.027c.968.139,1.451.712,1.327,1.571-.106.738-.83,1.147-1.6,1.578-.86.485-1.835,1.035-2,2.16a1.359,1.359,0,0,0,.176.9,1.156,1.156,0,0,0,.854.542,2.05,2.05,0,0,0,.279.021h0c.665,0,.891-.409,1.11-.8a2.453,2.453,0,0,1,.324-.489,3.952,3.952,0,0,1,.994-.619c1.037-.533,2.457-1.265,2.69-2.877A3.174,3.174,0,0,0,26.953,40Z" transform="translate(-12.139 -34.317)"/>
          <path id="Path_9573" data-name="Path 9573" d="M23.613,56.682a1.535,1.535,0,1,0-.439,3.039,1.459,1.459,0,0,0,.218.015,1.535,1.535,0,0,0,.221-3.055Z" transform="translate(-13.245 -42.431)"/>
        </g>
        <rect id="Rectangle_18159" data-name="Rectangle 18159" width="27.861" height="27.666" rx="5" transform="translate(18.559 4.328) rotate(-8)" fill="#5d5d5d"/>
        <g id="Rectangle_18170" data-name="Rectangle 18170" transform="translate(18.084 3.933) rotate(-8)" fill="#a5df78" stroke="#000" stroke-width="2">
          <rect width="28.258" height="28.258" rx="5" stroke="none"/>
          <rect x="1" y="1" width="26.258" height="26.258" rx="4" fill="none"/>
        </g>
        <path id="Path_9581" data-name="Path 9581" d="M67.279,55.761a2.141,2.141,0,0,0-.3.02,2.252,2.252,0,1,0,.3-.02Z" transform="translate(-32.06 -34.65)"/>
        <path id="Path_9582" data-name="Path 9582" d="M67.189,33.473a6.942,6.942,0,0,0-3.838-1.015A10.282,10.282,0,0,0,62,32.549a6.969,6.969,0,0,0-4,2,4.466,4.466,0,0,0-1.4,3.63,1.657,1.657,0,0,0,1.73,1.486,2.382,2.382,0,0,0,.3-.021c1.244-.166,1.512-1.023,1.771-1.851.3-.944.574-1.836,2.181-2.05a3.652,3.652,0,0,1,.478-.033,1.849,1.849,0,0,1,2.023,1.72c.145,1.085-.713,1.951-1.622,2.867-1.02,1.029-2.176,2.194-1.955,3.847a2.005,2.005,0,0,0,.528,1.119,1.667,1.667,0,0,0,1.231.518,1.984,1.984,0,0,0,.27-.018c1.3-.174,1.479-.929,1.65-1.66a3.665,3.665,0,0,1,.262-.819A5.786,5.786,0,0,1,66.6,42.01c1.25-1.169,2.962-2.769,2.645-5.139A4.616,4.616,0,0,0,67.189,33.473Z" transform="translate(-28.881 -25.901)"/>
      </g>
    </g>
    <rect id="Rectangle_18164" data-name="Rectangle 18164" width="50" height="50" transform="translate(433 2183)" fill="none"/>
  </g>
</svg>
