<svg xmlns="http://www.w3.org/2000/svg" width="120" height="120" viewBox="0 0 120 120">
  <g id="Group_73490" data-name="Group 73490" transform="translate(-1276 -49)">
    <g id="noun-quiz-21610_2_" data-name="noun-quiz-21610 (2)" transform="translate(1278.721 56)">
      <g id="Group_73145" data-name="Group 73145" transform="translate(4.28 20)">
        <g id="Group_73163" data-name="Group 73163">
          <rect id="Rectangle_18160" data-name="Rectangle 18160" width="40" height="40" rx="5" transform="matrix(0.985, 0.174, -0.174, 0.985, 9.133, 12.485)" fill="#a5df78"/>
          <g id="Rectangle_18171" data-name="Rectangle 18171" transform="matrix(0.985, 0.174, -0.174, 0.985, 9.133, 12.485)" fill="#a5df78" stroke="#000" stroke-width="2">
            <rect width="40" height="40" rx="5" stroke="none"/>
            <rect x="1" y="1" width="38" height="38" rx="4" fill="none"/>
          </g>
          <path id="Path_9572" data-name="Path 9572" d="M35.425,41.482a11.764,11.764,0,0,0-6.237-2.691,9.749,9.749,0,0,0-1.407-.1,9.872,9.872,0,0,0-5.495,1.64,6.213,6.213,0,0,0-2.846,4.161,2.372,2.372,0,0,0,.524,1.956,2.805,2.805,0,0,0,1.73.886,3.615,3.615,0,0,0,.513.04c1.429,0,2.068-.975,2.685-1.917.688-1.055,1.341-2.052,3.075-2.052a5.486,5.486,0,0,1,.769.058c2.055.3,3.081,1.512,2.817,3.336-.225,1.567-1.762,2.435-3.387,3.351-1.825,1.03-3.9,2.2-4.24,4.586a2.886,2.886,0,0,0,.373,1.9,2.454,2.454,0,0,0,1.814,1.151,4.353,4.353,0,0,0,.593.045h0c1.412,0,1.893-.868,2.356-1.707a5.209,5.209,0,0,1,.687-1.038,8.392,8.392,0,0,1,2.111-1.314c2.2-1.132,5.217-2.686,5.711-6.108A6.74,6.74,0,0,0,35.425,41.482Z" transform="translate(-1.785 -16.919)"/>
          <path id="Path_9573" data-name="Path 9573" d="M25.584,56.7a3.26,3.26,0,1,0-.932,6.453,3.1,3.1,0,0,0,.462.033,3.26,3.26,0,0,0,.469-6.486Z" transform="translate(-1.383 -13.956)"/>
        </g>
        <rect id="Rectangle_18159" data-name="Rectangle 18159" width="59.158" height="58.744" rx="5" transform="translate(41.594 8.561) rotate(-8)" fill="#fff"/>
        <g id="noun-news-7504760" transform="translate(41.01 4.333) rotate(-5)">
          <circle id="Ellipse_115" data-name="Ellipse 115" cx="17.709" cy="17.709" r="17.709" transform="translate(15.939 10.537) rotate(12)" fill="#fff"/>
          <path id="Path_9578" data-name="Path 9578" d="M53.275,51.219V67.37a1.325,1.325,0,0,1-1.335,1.318v.006a1.322,1.322,0,0,1-1.314-1.32v-6.7h-1.8v6.7a3.123,3.123,0,0,0,3.12,3.12v0H67.226A3.283,3.283,0,0,0,70.513,67.2V51.219Zm3.437,12.264v-1.8H67.073v1.8Zm10.362,1.652v1.8H56.712v-1.8ZM56.712,60.029V58.244H67.073v1.785Zm0-3.437v-1.8H67.073v1.8Z" transform="translate(-17.468 -17.574)"/>
          <path id="Path_9579" data-name="Path 9579" d="M30.127,34.164V32.252h2.945v-1.8H30.127V25.031a22.194,22.194,0,0,0,5.5-.884h0a35.942,35.942,0,0,1,.7,7.206h1.8a37.487,37.487,0,0,0-.793-7.792,18.234,18.234,0,0,0,4.951-2.818,16.7,16.7,0,0,1,3.8,10.6h1.8a18.5,18.5,0,0,0-4.236-11.776l.01-.008.017-.017-.584-.649s-.006-.01-.013-.013a.159.159,0,0,0-.019-.019c-.279-.33-.592-.64-.889-.939l-.2-.2c-.033-.017-.05-.05-.083-.083-.284-.25-.584-.5-.884-.751-.017-.033-.05-.05-.067-.067s-.05-.033-.067-.05a.051.051,0,0,0-.033-.017c-.106-.088-.219-.159-.327-.242-.2-.156-.413-.313-.624-.461-.129-.092-.254-.192-.384-.282-.161-.108-.336-.192-.5-.294q-.407-.253-.826-.486c-.1-.054-.192-.121-.292-.171-.284-.15-.567-.284-.851-.417l-.042-.019c-.181-.083-.367-.156-.553-.234-.092-.038-.179-.079-.273-.115-.179-.073-.369-.136-.555-.2-.327-.121-.655-.236-.989-.336-.142-.044-.279-.094-.425-.129a.309.309,0,0,0-.117-.033c-.19-.056-.392-.1-.592-.146-.136-.031-.267-.075-.4-.1h0c-.234-.05-.484-.1-.734-.133-.284-.05-.567-.1-.868-.133H31.4c-.209-.025-.417-.038-.626-.054l-.121-.013a9.646,9.646,0,0,0-.968-.05c-.065-.006-.136,0-.2-.006-.09,0-.177-.013-.267-.013s-.19.013-.286.015c-.06,0-.121,0-.177.006a9.647,9.647,0,0,0-.968.05c-.038,0-.077.008-.113.01-.213.019-.425.031-.638.056h-.067c-.067.017-.15.017-.217.033h-.033c-.25.033-.534.083-.784.133-.108.019-.223.044-.338.063-.213.042-.421.09-.63.138s-.4.1-.6.146-.384.1-.584.167c-.031.008-.063.023-.094.031-.188.058-.371.121-.555.186-.05.019-.1.031-.152.05-.156.052-.3.127-.459.186-.35.136-.7.265-1.045.421-.048.021-.1.038-.15.06l-.2.1c-.017.017-.033.017-.05.033l-.5.25c-.121.071-.248.142-.375.211-.355.2-.695.413-1.034.634-.229.148-.467.284-.692.442-.038.027-.069.052-.1.079-.079.056-.156.119-.236.177-.108.081-.221.163-.327.246-.323.246-.647.526-.955.8-.042.038-.083.071-.123.108-.086.081-.169.154-.254.24a.23.23,0,0,0-.05.067c-.167.15-.334.317-.5.484s-.313.336-.471.5c-.021.023-.044.042-.063.065s-.021.027-.033.04l-.567.63.025.025a18.515,18.515,0,0,0,0,23.583l-.021.021.588.663A18.493,18.493,0,0,0,29.095,50c.046,0,.09.013.138.013v-1.8h-.01v-.006c-.029,0-.058,0-.088,0-2.24-.083-4.559-3.041-5.888-7.9a20.888,20.888,0,0,1,5.975-.87v-1.8a22.711,22.711,0,0,0-6.395.918,35.443,35.443,0,0,1-.676-6.3h6.182v1.913h1.8Zm-17.712-3.71a16.68,16.68,0,0,1,3.758-9.711,18.257,18.257,0,0,0,4.947,2.816,36.859,36.859,0,0,0-.772,6.9Zm5.2-11.279c.246-.238.5-.465.755-.686.186-.156.371-.311.563-.459.279-.221.565-.432.863-.63.213-.144.423-.286.64-.419.125-.075.24-.159.373-.225a4.8,4.8,0,0,1,.609-.33c.121-.063.244-.127.365-.188a5.4,5.4,0,0,1,.542-.265c.171-.079.336-.142.5-.211.248-.1.5-.2.755-.292.138-.05.273-.106.413-.148.079-.027.167-.052.248-.079.186-.056.373-.1.561-.152a17.831,17.831,0,0,0-3.252,6.7,16.36,16.36,0,0,1-4.184-2.374c.079-.081.161-.165.242-.246Zm10.712-4.515v8.57h-.006A20.537,20.537,0,0,1,23.25,22.4h0c1.17-4.278,3.108-7.07,5.085-7.734Zm6.885,7.736a20.62,20.62,0,0,1-5.085.834v-8.57c1.977.663,3.915,3.458,5.085,7.736Zm-1.564-7.3c.209.056.419.1.624.169.063.021.127.035.188.058.111.031.211.079.317.117.413.146.826.3,1.228.473.013.01.027.013.042.027a.282.282,0,0,1,.083.033h.015c.469.213.926.448,1.372.7.015.013.031.015.046.031.017,0,.017.017.033.017a.126.126,0,0,0,.067.033c.052.029.1.063.152.1.409.244.807.5,1.2.78.154.111.3.234.455.352.265.2.528.415.78.638.179.154.355.319.528.486.106.1.206.211.311.313A16.4,16.4,0,0,1,36.9,21.8a17.852,17.852,0,0,0-3.249-6.7ZM24.141,47.423c-.221-.071-.438-.154-.655-.234-.315-.115-.632-.229-.939-.363-.217-.094-.428-.2-.638-.3-.3-.144-.6-.29-.884-.453-.209-.117-.411-.242-.613-.367-.279-.171-.555-.348-.824-.538-.2-.138-.39-.284-.58-.432q-.388-.3-.757-.617c-.188-.163-.371-.33-.549-.5-.111-.1-.215-.219-.323-.327a16.617,16.617,0,0,1,4.178-2.4,17.919,17.919,0,0,0,3.243,6.7c-.219-.06-.44-.108-.655-.177Zm-3.02-8.282a18.353,18.353,0,0,0-4.943,2.837,16.711,16.711,0,0,1-3.76-9.723h7.932a36.961,36.961,0,0,0,.772,6.887Zm1.028-8.685a35.486,35.486,0,0,1,.678-6.309l.006,0a22.075,22.075,0,0,0,5.489.884h.006v5.42H22.147Z" transform="translate(0.361 0.387)"/>
        </g>
        <g id="Rectangle_18170" data-name="Rectangle 18170" transform="translate(40.585 7.722) rotate(-8)" fill="none" stroke="#000" stroke-width="2">
          <rect width="60" height="60" rx="5" stroke="none"/>
          <rect x="1" y="1" width="58" height="58" rx="4" fill="none"/>
        </g>
      </g>
    </g>
    <rect id="Rectangle_18164" data-name="Rectangle 18164" width="120" height="120" transform="translate(1276 49)" fill="none"/>
  </g>
</svg>
