<svg xmlns="http://www.w3.org/2000/svg" width="200" height="200" viewBox="0 0 200 200">
  <g id="Group_73266" data-name="Group 73266" transform="translate(-433 -2183)">
    <g id="noun-quiz-21610_2_" data-name="noun-quiz-21610 (2)" transform="translate(434 2216)">
      <g id="Group_73145" data-name="Group 73145" transform="translate(0 0)">
        <g id="Group_73163" data-name="Group 73163" transform="translate(0 25.852)">
          <rect id="Rectangle_18160" data-name="Rectangle 18160" width="78.854" height="78.854" rx="5" transform="matrix(0.985, 0.174, -0.174, 0.985, 13.693, 0)" fill="#a5df78"/>
          <g id="Rectangle_18171" data-name="Rectangle 18171" transform="matrix(0.985, 0.174, -0.174, 0.985, 13.693, 0)" stroke="#000" stroke-width="2">
            <rect width="78.854" height="78.854" rx="5" stroke="none"/>
            <rect x="1" y="1" width="76.854" height="76.854" rx="4" fill="none"/>
          </g>
          <path id="Path_9572" data-name="Path 9572" d="M50.982,44.194a23.19,23.19,0,0,0-12.294-5.3,19.217,19.217,0,0,0-2.774-.2,19.462,19.462,0,0,0-10.832,3.233,12.249,12.249,0,0,0-5.61,8.2A4.675,4.675,0,0,0,20.5,53.981a5.53,5.53,0,0,0,3.41,1.748,7.126,7.126,0,0,0,1.01.078c2.818,0,4.076-1.922,5.293-3.78,1.357-2.08,2.643-4.046,6.062-4.046A10.814,10.814,0,0,1,37.8,48.1c4.051.583,6.074,2.981,5.552,6.577-.443,3.089-3.474,4.8-6.678,6.607-3.6,2.03-7.679,4.331-8.359,9.041a5.688,5.688,0,0,0,.735,3.75,4.838,4.838,0,0,0,3.575,2.269,8.581,8.581,0,0,0,1.169.09h0c2.783,0,3.732-1.711,4.645-3.364a10.269,10.269,0,0,1,1.355-2.046,16.543,16.543,0,0,1,4.161-2.59c4.34-2.232,10.285-5.3,11.259-12.042A13.286,13.286,0,0,0,50.982,44.194Z" transform="translate(11.024 -20.385)" fill="#fff"/>
          <path id="Path_9573" data-name="Path 9573" d="M29.2,56.735a6.427,6.427,0,1,0-1.837,12.722,6.107,6.107,0,0,0,.912.064A6.426,6.426,0,0,0,29.2,56.735Z" transform="translate(14.194 2.918)" fill="#fff"/>
        </g>
        <rect id="Rectangle_18159" data-name="Rectangle 18159" width="116.621" height="115.805" rx="5" transform="translate(66.397 18.115) rotate(-8)" fill="#a5df78"/>
        <g id="noun-news-7504760" transform="translate(83.897 28.999) rotate(-5)">
          <circle id="Ellipse_115" data-name="Ellipse 115" cx="34.91" cy="34.91" r="34.91" transform="translate(14.517 0) rotate(12)" fill="#fff"/>
          <path id="Path_9578" data-name="Path 9578" d="M8.766,0v31.84a2.611,2.611,0,0,1-2.631,2.6v.012a2.606,2.606,0,0,1-2.59-2.6v-13.2H0v13.2A6.157,6.157,0,0,0,6.151,38v-.008H36.268a6.471,6.471,0,0,0,6.48-6.48V0Zm6.776,24.176V20.624H35.968v3.552Zm20.426,3.256v3.552H15.542V27.433ZM15.542,17.368v-3.52H35.968v3.52Zm0-6.776V7.04H35.968v3.552Z" transform="translate(44.916 45.553)"/>
          <path id="Path_9579" data-name="Path 9579" d="M38.546,42.353v-3.77h5.806V35.039H38.546V24.349a43.753,43.753,0,0,0,10.847-1.743H49.4a70.854,70.854,0,0,1,1.373,14.205h3.544A73.9,73.9,0,0,0,52.756,21.45,35.945,35.945,0,0,0,62.517,15.9,32.928,32.928,0,0,1,70,36.791h3.544a36.462,36.462,0,0,0-8.351-23.214l.021-.016.033-.033L64.1,12.248s-.012-.021-.025-.025a.313.313,0,0,0-.037-.037c-.551-.65-1.168-1.262-1.752-1.85l-.395-.395c-.066-.033-.1-.1-.164-.164-.559-.493-1.151-.987-1.743-1.48-.033-.066-.1-.1-.132-.132s-.1-.066-.132-.1a.1.1,0,0,0-.066-.033c-.21-.173-.432-.312-.646-.477-.4-.308-.814-.617-1.229-.909-.255-.181-.5-.378-.757-.555-.317-.214-.662-.378-.987-.58q-.8-.5-1.628-.958c-.193-.107-.378-.238-.576-.337-.559-.3-1.118-.559-1.678-.822-.025-.012-.058-.025-.082-.037-.358-.164-.724-.308-1.09-.46-.181-.074-.354-.156-.539-.226-.354-.144-.728-.267-1.094-.4C48.7,2.031,48.057,1.8,47.4,1.608c-.28-.086-.551-.185-.839-.255a.61.61,0,0,0-.23-.066c-.374-.111-.773-.2-1.168-.288-.267-.062-.526-.148-.8-.206h-.008C43.9.695,43.4.6,42.909.53c-.559-.1-1.118-.2-1.71-.263h-.14C40.647.218,40.236.193,39.825.16L39.587.136a19.016,19.016,0,0,0-1.908-.1c-.127-.012-.267-.008-.4-.012C37.1.025,36.926,0,36.75,0s-.374.025-.563.029c-.119,0-.238,0-.349.012a19.016,19.016,0,0,0-1.908.1c-.074.008-.152.016-.222.021-.419.037-.839.062-1.258.111h-.132c-.132.033-.3.033-.428.066h-.066C31.331.4,30.771.5,30.278.6c-.214.037-.44.086-.666.123C29.192.806,28.781.9,28.37,1c-.395.095-.789.189-1.184.288s-.757.2-1.151.329c-.062.016-.123.045-.185.062-.37.115-.732.238-1.094.366-.1.037-.2.062-.3.1-.308.1-.6.251-.9.366-.691.267-1.386.522-2.06.831-.095.041-.2.074-.3.119l-.395.2c-.033.033-.066.033-.1.066l-.987.493c-.238.14-.489.28-.74.415-.7.386-1.369.814-2.039,1.25-.452.292-.921.559-1.365.872-.074.053-.136.1-.206.156-.156.111-.308.234-.465.349-.214.16-.436.321-.646.485-.637.485-1.275,1.036-1.883,1.583-.082.074-.164.14-.243.214-.169.16-.333.3-.5.473a.454.454,0,0,0-.1.132c-.329.3-.658.625-.987.954s-.617.662-.929.987c-.041.045-.086.082-.123.127-.025.025-.041.053-.066.078L8.305,13.527l.049.049a36.5,36.5,0,0,0,.008,46.49l-.041.041,1.16,1.307a36.456,36.456,0,0,0,27.03,12.162c.09,0,.177.025.271.025V70.058h-.021v-.012c-.058,0-.115-.008-.173-.008-4.416-.164-8.988-5.995-11.607-15.571a41.177,41.177,0,0,1,11.779-1.715V49.208a44.772,44.772,0,0,0-12.607,1.809,69.871,69.871,0,0,1-1.332-12.426H35.01v3.77h3.544ZM3.631,35.039A32.881,32.881,0,0,1,11.04,15.895a35.992,35.992,0,0,0,9.753,5.551,72.662,72.662,0,0,0-1.521,13.593ZM13.885,12.8c.485-.469.979-.917,1.488-1.353.366-.308.732-.613,1.11-.9.551-.436,1.114-.851,1.7-1.242.419-.284.835-.563,1.262-.826.247-.148.473-.312.736-.444a9.47,9.47,0,0,1,1.2-.65c.238-.123.481-.251.72-.37a10.651,10.651,0,0,1,1.069-.522c.337-.156.662-.28.987-.415.489-.206.987-.395,1.488-.576.271-.1.539-.21.814-.292.156-.053.329-.1.489-.156.366-.111.736-.2,1.106-.3-2.664,3.133-4.868,7.689-6.41,13.211A32.25,32.25,0,0,1,13.4,13.284c.156-.16.317-.325.477-.485ZM35,3.9V20.8h-.012a40.486,40.486,0,0,1-10-1.645h-.008c2.307-8.433,6.126-13.938,10.024-15.245Zm13.573,15.25A40.65,40.65,0,0,1,38.55,20.8V3.9c3.9,1.308,7.717,6.817,10.024,15.25ZM45.491,4.761c.411.111.826.206,1.229.333.123.041.251.07.37.115.218.062.415.156.625.23.814.288,1.628.584,2.422.933.025.021.053.025.082.053a.556.556,0,0,1,.164.066h.029c.925.419,1.826.884,2.705,1.386.029.025.062.029.09.062.033,0,.033.033.066.033a.249.249,0,0,0,.132.066c.1.058.2.123.3.189.806.481,1.591.991,2.356,1.538.3.218.6.46.9.695.522.4,1.04.818,1.538,1.258.354.3.7.629,1.04.958.21.2.407.415.613.617A32.33,32.33,0,0,1,51.9,17.971C50.355,12.453,48.155,7.9,45.491,4.765ZM26.746,68.49c-.436-.14-.863-.3-1.291-.461-.621-.226-1.246-.452-1.85-.715-.428-.185-.843-.395-1.258-.6-.588-.284-1.176-.572-1.743-.892-.411-.23-.81-.477-1.209-.724-.551-.337-1.094-.687-1.624-1.061-.386-.271-.769-.559-1.143-.851q-.765-.586-1.493-1.217c-.37-.321-.732-.65-1.081-.987-.218-.206-.423-.432-.637-.646a32.757,32.757,0,0,1,8.236-4.728c1.538,5.518,3.737,10.073,6.394,13.215-.432-.119-.868-.214-1.291-.349ZM20.792,52.163a36.181,36.181,0,0,0-9.744,5.592A32.944,32.944,0,0,1,3.634,38.586H19.27a72.863,72.863,0,0,0,1.521,13.576Zm2.027-17.121A69.954,69.954,0,0,1,24.155,22.6s.008,0,.012,0a43.517,43.517,0,0,0,10.821,1.743H35V35.038H22.815Z" transform="translate(4.651 4.988)"/>
        </g>
        <g id="Rectangle_18170" data-name="Rectangle 18170" transform="translate(64.408 16.461) rotate(-8)" fill="none" stroke="#000" stroke-width="2">
          <rect width="118.281" height="118.281" rx="5" stroke="none"/>
          <rect x="1" y="1" width="116.281" height="116.281" rx="4" fill="none"/>
        </g>
      </g>
    </g>
    <rect id="Rectangle_18164" data-name="Rectangle 18164" width="200" height="200" transform="translate(433 2183)" fill="none"/>
  </g>
</svg>
