<svg xmlns="http://www.w3.org/2000/svg" width="36.05" height="37.187" viewBox="0 0 36.05 37.187">
  <path id="Path_9535" data-name="Path 9535" d="M27.613,27.7h4.875l-2.437,9.286Zm-.069-.84h5.014l-2.507-3.955ZM43.817,28.8l-5.361,5.487-6.062,5.841a3.332,3.332,0,0,1-4.658-.041l-5.934-5.9L16.364,28.8a3.312,3.312,0,0,1-.4-4.267l2.507-3.6A3.327,3.327,0,0,1,21.2,19.5h17.7a3.327,3.327,0,0,1,2.73,1.43l2.537,3.644a3.321,3.321,0,0,1-.356,4.222Zm-2.364-1.513v0a.419.419,0,0,0-.419-.419H34.006l4.2-4.486a.42.42,0,0,0-.614-.573L33.273,26.42,30.41,21.871l0,0a.437.437,0,0,0-.712,0l-2.863,4.549L22.515,21.8v0a.419.419,0,0,0-.3-.148.415.415,0,0,0-.312.113.423.423,0,0,0-.134.3.429.429,0,0,0,.128.306L26.1,26.865H19.067a.42.42,0,0,0,0,.84h7.675l2.9,11.046a.259.259,0,0,0,.03.065.226.226,0,0,0,0,.05.457.457,0,0,0,.095.1.487.487,0,0,0,.139.069h.217a.487.487,0,0,0,.139-.069.41.41,0,0,0,.093-.1.114.114,0,0,0,0-.05.206.206,0,0,0,.03-.065l2.9-11.046h7.745a.424.424,0,0,0,.3-.122.429.429,0,0,0,.122-.3ZM12.744,15.911a.42.42,0,0,0-.6.588l2.275,2.335a.421.421,0,0,0,.6-.588ZM45.38,18.958a.424.424,0,0,0,.3-.124L47.956,16.5a.42.42,0,0,0-.6-.588l-2.279,2.335a.42.42,0,0,0-.085.454.426.426,0,0,0,.388.258Zm-15.1-4.545a.419.419,0,0,0,.419-.421V11.253a.42.42,0,1,0-.84,0v2.739a.418.418,0,0,0,.421.421Zm-15.858,25.6-2.275,2.335a.421.421,0,0,0,0,.593.429.429,0,0,0,.3.119.415.415,0,0,0,.3-.124l2.279-2.335a.412.412,0,0,0,0-.593.43.43,0,0,0-.3-.122.419.419,0,0,0-.3.128Zm31.262,0h0a.421.421,0,0,0-.593,0,.416.416,0,0,0,0,.593l2.27,2.329a.415.415,0,0,0,.3.124.429.429,0,0,0,.3-.119.421.421,0,0,0,0-.593Zm-15.4,4.421a.419.419,0,0,0-.421.421V47.6a.42.42,0,1,0,.84,0V44.859A.419.419,0,0,0,30.279,44.438Z" transform="translate(-12.023 -10.832)" fill="#b00020"/>
</svg>
