<svg xmlns="http://www.w3.org/2000/svg" width="35" height="35" viewBox="0 0 35 35">
  <g id="Group_73385" data-name="Group 73385" transform="translate(-433 -2183)">
    <g id="noun-quiz-21610_2_" data-name="noun-quiz-21610 (2)" transform="translate(435.629 2190.547)">
      <g id="Group_73145" data-name="Group 73145" transform="translate(0 0)">
        <g id="Group_73163" data-name="Group 73163" transform="translate(0 3.753)">
          <rect id="Rectangle_18160" data-name="Rectangle 18160" width="11.447" height="11.447" rx="5" transform="matrix(0.985, 0.174, -0.174, 0.985, 1.988, 0)" fill="#a5df78"/>
          <g id="Rectangle_18171" data-name="Rectangle 18171" transform="matrix(0.985, 0.174, -0.174, 0.985, 1.988, 0)" stroke="#000" stroke-width="1">
            <rect width="11.447" height="11.447" rx="1" stroke="none"/>
            <rect x="0.5" y="0.5" width="10.447" height="10.447" rx="0.5" fill="none"/>
          </g>
          <path id="Path_9572" data-name="Path 9572" d="M23.994,39.489a3.367,3.367,0,0,0-1.785-.77,2.79,2.79,0,0,0-.4-.029,2.825,2.825,0,0,0-1.572.469,1.778,1.778,0,0,0-.814,1.191.679.679,0,0,0,.15.56.8.8,0,0,0,.5.254,1.034,1.034,0,0,0,.147.011c.409,0,.592-.279.768-.549a.97.97,0,0,1,.88-.587,1.57,1.57,0,0,1,.22.017c.588.085.882.433.806.955-.064.448-.5.7-.969.959-.522.295-1.115.629-1.213,1.312a.826.826,0,0,0,.107.544.7.7,0,0,0,.519.329,1.245,1.245,0,0,0,.17.013h0c.4,0,.542-.248.674-.488a1.491,1.491,0,0,1,.2-.3,2.4,2.4,0,0,1,.6-.376c.63-.324,1.493-.769,1.634-1.748A1.929,1.929,0,0,0,23.994,39.489Z" transform="translate(-14.992 -36.033)" fill="#fff"/>
          <path id="Path_9573" data-name="Path 9573" d="M22.924,56.676a.933.933,0,1,0-.267,1.847.886.886,0,0,0,.132.009.933.933,0,0,0,.134-1.856Z" transform="translate(-16.624 -48.016)" fill="#fff"/>
        </g>
        <rect id="Rectangle_18159" data-name="Rectangle 18159" width="16.93" height="16.812" rx="1" transform="translate(11.278 2.63) rotate(-8)" fill="#a5df78"/>
        <g id="noun-news-7504760" transform="translate(13.818 4.21) rotate(-5)">
          <circle id="Ellipse_115" data-name="Ellipse 115" cx="5.068" cy="5.068" r="5.068" transform="translate(2.107 0) rotate(12)" fill="#fff"/>
          <path id="Path_9578" data-name="Path 9578" d="M1.273,0V4.622A.379.379,0,0,1,.891,5V5a.378.378,0,0,1-.376-.378V2.707H0V4.624a.894.894,0,0,0,.893.893H5.265a.939.939,0,0,0,.941-.941V0Zm.984,3.51V2.994H5.222V3.51Zm2.965.473V4.5H2.256V3.983ZM2.256,2.521V2.01H5.222v.511Zm0-.984V1.022H5.222v.516Z" transform="translate(6.521 6.613)"/>
          <path id="Path_9579" data-name="Path 9579" d="M5.6,6.148V5.6h.843V5.087H5.6V3.535A6.352,6.352,0,0,0,7.17,3.282h0a10.286,10.286,0,0,1,.2,2.062h.515a10.728,10.728,0,0,0-.227-2.23,5.218,5.218,0,0,0,1.417-.806,4.78,4.78,0,0,1,1.086,3.033h.515a5.293,5.293,0,0,0-1.212-3.37l0,0,0,0L9.3,1.778s0,0,0,0L9.3,1.769c-.08-.094-.17-.183-.254-.269l-.057-.057c-.01,0-.014-.014-.024-.024-.081-.072-.167-.143-.253-.215,0-.01-.014-.014-.019-.019s-.014-.01-.019-.014a.015.015,0,0,0-.01,0c-.03-.025-.063-.045-.094-.069-.058-.045-.118-.09-.178-.132C8.351.939,8.315.91,8.278.885S8.182.83,8.134.8Q8.018.728,7.9.661C7.87.646,7.843.627,7.815.612,7.733.569,7.652.531,7.571.493L7.559.488C7.507.464,7.454.443,7.4.421,7.375.41,7.35.4,7.323.388,7.271.367,7.217.349,7.164.329,7.07.295,6.976.262,6.881.233,6.84.221,6.8.207,6.759.2a.089.089,0,0,0-.033-.01C6.671.171,6.614.158,6.556.145,6.517.136,6.48.124,6.44.115h0C6.372.1,6.3.087,6.229.077S6.067.048,5.981.039h-.02C5.9.032,5.841.028,5.781.023l-.035,0A2.761,2.761,0,0,0,5.47.005c-.019,0-.039,0-.058,0s-.051,0-.076,0-.054,0-.082,0-.035,0-.051,0A2.761,2.761,0,0,0,4.926.02l-.032,0c-.061.005-.122.009-.183.016H4.692c-.019,0-.043,0-.062.01H4.62c-.072.01-.153.024-.224.038L4.3.105c-.061.012-.121.026-.18.039L3.947.186C3.889.2,3.837.215,3.78.234L3.753.243C3.7.26,3.646.278,3.594.3L3.55.31c-.045.015-.087.036-.131.053-.1.039-.2.076-.3.121C3.106.49,3.091.495,3.077.5L3.02.53s-.01,0-.014.01L2.862.611l-.107.06c-.1.056-.2.118-.3.181-.066.042-.134.081-.2.127L2.231,1l-.067.051-.094.07c-.093.07-.185.15-.273.23l-.035.031c-.024.023-.048.044-.073.069a.066.066,0,0,0-.014.019c-.048.043-.1.091-.143.138s-.09.1-.135.143c-.006.007-.013.012-.018.019l-.01.011-.162.18.007.007a5.3,5.3,0,0,0,0,6.749l-.006.006.168.19A5.292,5.292,0,0,0,5.3,10.681c.013,0,.026,0,.039,0V10.17h0v0H5.312c-.641-.024-1.3-.87-1.685-2.26a5.978,5.978,0,0,1,1.71-.249V7.144a6.5,6.5,0,0,0-1.83.263,10.143,10.143,0,0,1-.193-1.8H5.082V6.15H5.6ZM.527,5.087A4.773,4.773,0,0,1,1.6,2.307a5.225,5.225,0,0,0,1.416.806A10.549,10.549,0,0,0,2.8,5.087ZM2.016,1.859c.07-.068.142-.133.216-.2.053-.045.106-.089.161-.131.08-.063.162-.124.247-.18.061-.041.121-.082.183-.12.036-.021.069-.045.107-.064A1.375,1.375,0,0,1,3.1,1.072l.1-.054A1.546,1.546,0,0,1,3.364.942c.049-.023.1-.041.143-.06.071-.03.143-.057.216-.084.039-.014.078-.03.118-.042L3.913.734C3.966.717,4.019.7,4.073.69a5.1,5.1,0,0,0-.931,1.918,4.682,4.682,0,0,1-1.2-.679l.069-.07ZM5.081.566V3.019h0A5.877,5.877,0,0,1,3.628,2.78h0C3.961,1.556,4.516.757,5.082.567ZM7.052,2.78A5.9,5.9,0,0,1,5.6,3.019V.566c.566.19,1.12.99,1.455,2.214ZM6.6.691c.06.016.12.03.178.048.018.006.036.01.054.017s.06.023.091.033c.118.042.236.085.352.135,0,0,.008,0,.012.008a.081.081,0,0,1,.024.01h0c.134.061.265.128.393.2,0,0,.009,0,.013.009s0,0,.01,0a.036.036,0,0,0,.019.01c.015.008.029.018.044.027.117.07.231.144.342.223.044.032.087.067.13.1.076.058.151.119.223.183.051.044.1.091.151.139.03.029.059.06.089.09a4.693,4.693,0,0,1-1.2.679A5.109,5.109,0,0,0,6.6.692ZM3.883,9.943c-.063-.02-.125-.044-.187-.067-.09-.033-.181-.066-.269-.1-.062-.027-.122-.057-.183-.087-.085-.041-.171-.083-.253-.13-.06-.033-.118-.069-.175-.105-.08-.049-.159-.1-.236-.154-.056-.039-.112-.081-.166-.124Q2.3,9.088,2.2,9c-.054-.047-.106-.094-.157-.143-.032-.03-.061-.063-.093-.094a4.755,4.755,0,0,1,1.2-.686,5.128,5.128,0,0,0,.928,1.918c-.063-.017-.126-.031-.187-.051Zm-.864-2.37A5.252,5.252,0,0,0,1.6,8.384,4.783,4.783,0,0,1,.528,5.6H2.8a10.578,10.578,0,0,0,.221,1.971Zm.294-2.485a10.155,10.155,0,0,1,.194-1.806h0a6.317,6.317,0,0,0,1.571.253h0V5.086H3.312Z" transform="translate(0.675 0.724)"/>
        </g>
        <g id="Rectangle_18170" data-name="Rectangle 18170" transform="translate(10.989 2.39) rotate(-8)" fill="none" stroke="#000" stroke-width="1">
          <rect width="17.171" height="17.171" rx="1" stroke="none"/>
          <rect x="0.5" y="0.5" width="16.171" height="16.171" rx="0.5" fill="none"/>
        </g>
      </g>
    </g>
    <rect id="Rectangle_18164" data-name="Rectangle 18164" width="35" height="35" transform="translate(433 2183)" fill="none"/>
  </g>
</svg>
