<svg id="Group_65" data-name="Group 65" xmlns="http://www.w3.org/2000/svg" width="37.882" height="31.415" viewBox="0 0 37.882 31.415">
  <g id="Rectangle_62" data-name="Rectangle 62" transform="translate(0 0)" fill="#fff" stroke="#707070" stroke-width="0.2">
    <rect width="37.882" height="31.415" rx="3" stroke="none"/>
    <rect x="0.1" y="0.1" width="37.682" height="31.215" rx="2.9" fill="none"/>
  </g>
  <path id="Icon_awesome-spotify" data-name="Icon awesome-spotify" d="M9.7.563a9.7,9.7,0,1,0,9.7,9.7A9.707,9.707,0,0,0,9.7.563Zm3.94,14.277a.747.747,0,0,1-.419-.141,11.043,11.043,0,0,0-8.087-.959,2.526,2.526,0,0,1-.466.1.609.609,0,0,1-.618-.618.62.62,0,0,1,.532-.657c3.2-.708,6.479-.646,9.273,1.025a.662.662,0,0,1,.38.646.591.591,0,0,1-.595.6ZM14.7,12.273a.966.966,0,0,1-.481-.164,12.679,12.679,0,0,0-9.335-1.15,1.611,1.611,0,0,1-.466.1.76.76,0,0,1-.759-.759.77.77,0,0,1,.606-.81,13.16,13.16,0,0,1,3.827-.532,13.7,13.7,0,0,1,6.925,1.78.816.816,0,0,1,.442.771.758.758,0,0,1-.759.763Zm1.213-2.981a.9.9,0,0,1-.5-.153C12.618,7.476,7.637,7.077,4.413,7.977a1.858,1.858,0,0,1-.5.1A.9.9,0,0,1,3,7.155a.924.924,0,0,1,.681-.935,16.4,16.4,0,0,1,4.6-.595A16.525,16.525,0,0,1,16.312,7.5a.919.919,0,0,1,.5.884.907.907,0,0,1-.908.912Z" transform="translate(9.238 5.442)"/>
</svg>
