<svg xmlns="http://www.w3.org/2000/svg" width="200" height="200" viewBox="0 0 200 200">
  <g id="Group_73238" data-name="Group 73238" transform="translate(-413 -1220)">
    <rect id="Rectangle_18205" data-name="Rectangle 18205" width="167" height="167" transform="translate(438 1244)"/>
    <g id="Group_73237" data-name="Group 73237" transform="translate(429.499 1236.499)">
      <rect id="Rectangle_18206" data-name="Rectangle 18206" width="55" height="55" transform="translate(55.5 2.501)" fill="#fff"/>
      <rect id="Rectangle_18207" data-name="Rectangle 18207" width="55.094" height="55.094" transform="translate(110.943 55.848)" fill="#fff"/>
      <rect id="Rectangle_18208" data-name="Rectangle 18208" width="55.094" height="55.094" transform="translate(56.961 110.942)" fill="#fff"/>
      <rect id="Rectangle_18209" data-name="Rectangle 18209" width="55.094" height="55.094" transform="translate(1.867 57.517)" fill="#fff"/>
      <rect id="Rectangle_18210" data-name="Rectangle 18210" width="56.764" height="56.764" transform="translate(55.292 54.178)" fill="#fff447"/>
      <path id="Rectangle_18211" data-name="Rectangle 18211" d="M2,0H56a0,0,0,0,1,0,0V56a0,0,0,0,1,0,0H0a0,0,0,0,1,0,0V2A2,2,0,0,1,2,0Z" transform="translate(-0.5 -0.499)" fill="#fff447"/>
      <path id="Rectangle_18212" data-name="Rectangle 18212" d="M2,0H56a0,0,0,0,1,0,0V56a0,0,0,0,1,0,0H0a0,0,0,0,1,0,0V2A2,2,0,0,1,2,0Z" transform="translate(111.5 -0.499)" fill="#fff447"/>
      <rect id="Rectangle_18213" data-name="Rectangle 18213" width="56" height="56" transform="translate(111.5 111.501)"/>
      <path id="Rectangle_18214" data-name="Rectangle 18214" d="M2,0H56a0,0,0,0,1,0,0V56a0,0,0,0,1,0,0H0a0,0,0,0,1,0,0V2A2,2,0,0,1,2,0Z" transform="translate(-0.5 111.501)" fill="#fff"/>
      <line id="Line_1033" data-name="Line 1033" y2="168" transform="translate(-0.5 -0.499)" fill="none" stroke="#000" stroke-width="1"/>
      <line id="Line_1034" data-name="Line 1034" x2="166.639" transform="translate(0.197 0.196)" fill="none" stroke="#000" stroke-width="1"/>
      <line id="Line_1035" data-name="Line 1035" y2="166.953" transform="translate(55.848 0.196)" fill="none" stroke="#000" stroke-width="1"/>
      <line id="Line_1036" data-name="Line 1036" y2="166.953" transform="translate(111.499 0.196)" fill="none" stroke="#000" stroke-width="1"/>
      <line id="Line_1037" data-name="Line 1037" y2="168" transform="translate(167.5 -0.499)" fill="none" stroke="#000" stroke-width="1"/>
      <line id="Line_1038" data-name="Line 1038" x2="166.639" transform="translate(0.197 55.847)" fill="none" stroke="#000" stroke-width="1"/>
      <line id="Line_1039" data-name="Line 1039" x2="166.639" transform="translate(0.197 111.498)" fill="none" stroke="#000" stroke-width="1"/>
      <line id="Line_1040" data-name="Line 1040" x2="166.639" transform="translate(0.197 167.149)" fill="none" stroke="#000" stroke-width="1"/>
      <text id="_1" data-name="1" transform="translate(11.502 11.501)" font-size="20" font-family="MerriweatherSans-Medium, Merriweather Sans" font-weight="500" letter-spacing="-0.025em"><tspan x="11" y="20">1</tspan></text>
      <text id="_3" data-name="3" transform="translate(123.502 11.501)" font-size="20" font-family="MerriweatherSans-Medium, Merriweather Sans" font-weight="500" letter-spacing="-0.025em"><tspan x="10" y="20">3</tspan></text>
      <text id="_2" data-name="2" transform="translate(63.502 64.501)" font-size="20" font-family="MerriweatherSans-Medium, Merriweather Sans" font-weight="500" letter-spacing="-0.025em"><tspan x="10" y="20">2</tspan></text>
      <path id="Path_9588" data-name="Path 9588" d="M56,28.022a4.72,4.72,0,0,0-4.689-4.689h-15.4l2.212-7.61a6.946,6.946,0,0,0-6.724-8.848,3.612,3.612,0,0,0-3.539,2.654L23.886,22.8,17.692,24.66v-.885a.836.836,0,0,0-.885-.885H5.571a.836.836,0,0,0-.885.885V54.743a.836.836,0,0,0,.885.885H16.719a.836.836,0,0,0,.885-.885V53.416l5.4,1.77c.088,0,.177.088.265.088H43.705a4.72,4.72,0,0,0,4.689-4.689,4.537,4.537,0,0,0-1.15-3.008,4.585,4.585,0,0,0,2.477-7.521A4.585,4.585,0,0,0,52.2,32.535,4.631,4.631,0,0,0,56,28.022ZM15.835,53.946H6.456v-29.2h9.378Zm35.48-23h-10a.885.885,0,0,0,0,1.77h7.432a2.92,2.92,0,0,1,0,5.84H38.573a.885.885,0,1,0,0,1.77h7.7a2.92,2.92,0,0,1,0,5.84h-10a.885.885,0,0,0,0,1.77h7.432a2.92,2.92,0,0,1,0,5.84H23.444L17.6,51.822V26.517l7.167-2.212a.874.874,0,0,0,.619-.619L29.549,9.971a1.913,1.913,0,0,1,1.858-1.327,5.216,5.216,0,0,1,5.043,6.636l-2.566,8.76a.9.9,0,0,0,.177.8.8.8,0,0,0,.708.354H51.4a2.946,2.946,0,0,1,2.92,2.92,3.074,3.074,0,0,1-3.008,2.831Z" transform="translate(109.476 108.182)" fill="#fff"/>
    </g>
    <rect id="Rectangle_18215" data-name="Rectangle 18215" width="200" height="200" transform="translate(413 1220)" fill="none"/>
  </g>
</svg>
