<svg id="Group_2673" data-name="Group 2673" xmlns="http://www.w3.org/2000/svg" width="37.882" height="31.415" viewBox="0 0 37.882 31.415">
  <g id="Rectangle_62" data-name="Rectangle 62" transform="translate(0 0)" fill="#fff" stroke="#707070" stroke-width="0.2">
    <rect width="37.882" height="31.415" rx="3" stroke="none"/>
    <rect x="0.1" y="0.1" width="37.682" height="31.215" rx="2.9" fill="none"/>
  </g>
  <path id="noun-telegram-4137491" d="M126.377,50.249,122.458,66.4a1.215,1.215,0,0,1-1.736.791l-4.956-2.558-2.343,3.834a1.215,1.215,0,0,1-2.251-.63V63.563a1.221,1.221,0,0,1,.376-.876l9.658-9.22a.161.161,0,0,0-.253-.131l-11.524,8.021-3.872-2a1.213,1.213,0,0,1,.069-2.19l19.092-8.32a1.211,1.211,0,0,1,1.66,1.4Z" transform="translate(-97.329 -43.189)"/>
</svg>
