<svg xmlns="http://www.w3.org/2000/svg" xmlns:xlink="http://www.w3.org/1999/xlink" width="400" height="100" viewBox="0 0 400 100">
  <defs>
    <clipPath id="clip-path">
      <rect id="Rectangle_18295" data-name="Rectangle 18295" width="400" height="100" transform="translate(-4062 -20357)" fill="#fff" stroke="#707070" stroke-width="1"/>
    </clipPath>
  </defs>
  <g id="Mask_Group_2644" data-name="Mask Group 2644" transform="translate(4062 20357)" clip-path="url(#clip-path)">
    <g id="Group_73542" data-name="Group 73542" transform="translate(-24917 -20081.949)">
      <rect id="Rectangle_18105" data-name="Rectangle 18105" width="37.282" height="38.084" rx="2.54" transform="translate(21170.344 -222.953)" fill="#b7e255" stroke="#000" stroke-width="0.5"/>
      <rect id="Rectangle_18106" data-name="Rectangle 18106" width="37.282" height="38.084" rx="2.54" transform="translate(21095.969 -261.5)" stroke="#000" stroke-width="0.5"/>
      <rect id="Rectangle_18108" data-name="Rectangle 18108" width="37.282" height="38.084" rx="2.54" transform="translate(21095.969 -222.953)" fill="#f9e948" stroke="#000" stroke-width="0.5"/>
      <rect id="Rectangle_18012" data-name="Rectangle 18012" width="37.282" height="38.084" rx="2.54" transform="translate(21058.877 -261.5)" fill="#fff" stroke="#000" stroke-width="0.5"/>
      <rect id="Rectangle_18107" data-name="Rectangle 18107" width="37.282" height="38.084" rx="2.54" transform="translate(21058.877 -222.953)" fill="#b6a7ff" stroke="#000" stroke-width="0.5"/>
      <rect id="Rectangle_18013" data-name="Rectangle 18013" width="37.282" height="38.084" rx="2.54" transform="translate(21133.252 -222.953)" fill="#fe7b3d" stroke="#000" stroke-width="0.5"/>
      <rect id="Rectangle_18014" data-name="Rectangle 18014" width="37.282" height="38.084" rx="2.54" transform="translate(21207.436 -222.953)" fill="#b6a7ff" stroke="#000" stroke-width="0.5"/>
      <text id="G" transform="translate(21085.969 -194.135)" font-size="25" font-family="PlayfairDisplay-Bold, Playfair Display" font-weight="700"><tspan x="-18.375" y="0">G</tspan></text>
      <text id="_1" data-name="1" transform="translate(21091.598 -217.226)" font-size="5" font-family="MerriweatherSans-Bold, Merriweather Sans" font-weight="700"><tspan x="-2.33" y="0">1</tspan></text>
      <text id="_2" data-name="2" transform="translate(21129.426 -216.226)" font-size="6" font-family="MerriweatherSans-Bold, Merriweather Sans" font-weight="700"><tspan x="-3.675" y="0">2</tspan></text>
      <text id="A" transform="translate(21122.787 -194.135)" font-size="25" font-family="PlayfairDisplay-Bold, Playfair Display" font-weight="700"><tspan x="-16.675" y="0">A</tspan></text>
      <text id="M" transform="translate(21163.162 -194.135)" font-size="25" font-family="PlayfairDisplay-Bold, Playfair Display" font-weight="700"><tspan x="-23.175" y="0">M</tspan></text>
      <text id="E" transform="translate(21196.891 -194.135)" font-size="25" font-family="PlayfairDisplay-Bold, Playfair Display" font-weight="700"><tspan x="-15.85" y="0">E</tspan></text>
      <text id="S" transform="translate(21232.709 -195.135)" font-size="24" font-family="PlayfairDisplay-Bold, Playfair Display" font-weight="700"><tspan x="-14.016" y="0">S</tspan></text>
      <text id="_3" data-name="3" transform="translate(21165.898 -216.59)" font-size="6" font-family="MerriweatherSans-Bold, Merriweather Sans" font-weight="700"><tspan x="-3.453" y="0">3</tspan></text>
      <text id="_4" data-name="4" transform="translate(21203.072 -216.59)" font-size="6" font-family="MerriweatherSans-Bold, Merriweather Sans" font-weight="700"><tspan x="-4.173" y="0">4</tspan></text>
      <text id="_5" data-name="5" transform="translate(21240.719 -216.59)" font-size="6" font-family="MerriweatherSans-Bold, Merriweather Sans" font-weight="700"><tspan x="-3.744" y="0">5</tspan></text>
      <g id="Group_72979" data-name="Group 72979" transform="translate(20865 -265.051)">
        <path id="Path_9450" data-name="Path 9450" d="M349.863,3.28V2.864l-4,.093-4.687-.093V3.28c3.481.185,4.343,1.621,4.343,5.6v8.56c0,5.183-1.592,8.1-6.276,8.1-4.343,0-5.5-3.007-5.5-7.727V6.612c0-2.824.858-3.192,3.181-3.332V2.864l-5.075.093-5.156-.093V3.28c2.321.14,3.179.463,3.179,3.332V19.154c0,5.921,4.515,7.309,8.683,7.309,4.9,0,7.868-2.591,7.868-8.607V8.88c0-2.876.166-4.865,2.365-5.44ZM321.62,14.9l-.069,2.043c-.333,4.551-1.906,7.551-5.819,8.321a6.889,6.889,0,0,1-1.761.14c-2.149-.047-2.967-1.065-2.967-3.61V3.88a8.944,8.944,0,0,1,1.933-.23c5.6,0,8.333,4.027,8.652,10.02l.031,1.226m.711,8.74.7-.65c1.789-1.844,2.841-4.6,2.841-8.553,0-8.424-5.63-11.569-12.122-11.569l-4.557.093-5.288-.093V3.28c2.365.14,3.183.463,3.183,3.377V22.391c0,2.869-.862,3.194-3.183,3.379v.37l5.247-.093c1.2,0,2.407.093,3.609.138a16.072,16.072,0,0,0,3.011-.093,12.975,12.975,0,0,0,5.783-1.887l.772-.569M302.793,3.28V2.864l-3.569.093-4.471-.093V3.28c3.525.14,4.041,2.5,4.041,6.156V21.65L284.223,2.91h-5.632v.418a5.231,5.231,0,0,1,1.891.323c1.806.786,1.977,3.517,1.977,5.461V19.569c0,3.007,0,5.968-3.137,6.2v.37c1.2-.047,2.449-.14,3.653-.14,1.462,0,2.881.093,4.3.14v-.37c-3.353-.233-3.955-2.684-3.955-6.2V8.185l14.1,18.233h2.235V9.436c0-2.691.075-5.585,2.6-6.088l.539-.068M277.387,26.14v-.37c-2.321-.185-3.225-.51-3.225-3.379V6.657c0-2.869.862-3.237,3.225-3.377V2.864l-5.117.093-5.156-.093V3.28c2.363.14,3.181.463,3.181,3.377V22.391c0,2.869-.862,3.194-3.181,3.379v.37l5.156-.093,5.117.093m-12.208,0v-.37c-2.279-.185-3.223-.51-3.223-3.379V6.657c0-2.869.9-3.237,3.223-3.377V2.864l-5.2.093L254.9,2.864V3.28c2.365.14,3.139.463,3.139,3.377v6.989l-5.546.047h-4.169V6.657c0-2.869.818-3.237,3.181-3.377V2.864l-5.116.093-5.156-.093V3.28c2.363.14,3.179.463,3.179,3.377V22.391c0,2.869-.86,3.194-3.179,3.379v.37l5.156-.093,5.116.093v-.37c-2.321-.185-3.181-.51-3.181-3.379v-8l4.729-.045,4.987.045v8c0,2.869-.774,3.194-3.139,3.379v.37l5.075-.093,5.2.093m-31.944-6.524h-.388c-.946,3.885-2.321,5.736-5.89,5.736-3.783,0-4.513-.6-4.513-5.135V14.571h1.935c2.577,0,4.213.6,4.427,3.932h.344l-.086-4.488.086-4.025h-.344c-.214,3.007-2.277,3.795-4.557,3.795h-1.805V3.65h1.376c2.279,0,5.588.093,7.008,2.637a10.642,10.642,0,0,1,.944,3.149h.346c-.088-1.388-.088-2.686-.088-4.072l.088-2.777a84.109,84.109,0,0,1-10.791.37l-5.974-.093V3.28c2.363.14,3.179.463,3.179,3.377V22.391c0,2.869-.858,3.194-3.179,3.379v.37c2.235-.093,4.513-.093,6.748-.093a89.83,89.83,0,0,1,10.575.37l.231-3.4.329-3.4m-19.86,6.524v-.37c-2.321-.185-3.225-.51-3.225-3.379V6.657c0-2.869.86-3.237,3.225-3.377V2.864l-5.2.093-5.114-.093V3.28c2.405.14,3.179.463,3.179,3.377v6.989l-5.586.047H196.48V6.657c0-2.869.86-3.237,3.223-3.377V2.864l-5.156.093-5.117-.093V3.28c2.365.14,3.181.463,3.181,3.377V22.391c0,2.869-.86,3.194-3.181,3.379v.37l5.117-.093,5.156.093v-.37c-2.321-.185-3.223-.51-3.223-3.379v-8l4.729-.045,5.028.045v8c0,2.869-.774,3.194-3.179,3.379v.37l5.114-.093,5.2.093m-25.107-16.2-.042-4.628.042-2.684a28.437,28.437,0,0,1-3.395.233l-4.083.045h-3.269l-4.169-.045A26.828,26.828,0,0,1,170,2.632l.044,2.684L170,9.944h.3c.73-3.842,1.374-6.341,6.1-6.341h.688l.086,6.711V22.391c0,2.546-.86,3.147-3.613,3.379v.37l5.59-.093,5.544.093v-.37c-2.709-.233-3.653-.833-3.653-3.379V10.314l.086-6.711h.772c4.3,0,5.374,2.731,6.02,6.341h.342" transform="translate(-170 53.434)" fill="#161615"/>
        <path id="Path_9503" data-name="Path 9503" d="M345.432,47.493l.606-.163.606-.3.4,1.484c-.3,0-.4.186-.7.276l-.305-.751-.606-.548m-1.211,1.579h-.911c.1-.742.4-1.3,1.216-1.3a1.341,1.341,0,0,1,1.211,1.2l-1.516.1m-1.615-22.633h.1v.1m-.2.923-.3-.181c0-.186.1-.371.3-.371s.305.09.305.276l-.079.208-.227.068m.1-.647-.4.186-.2-.462a.31.31,0,0,0,.3-.281h.1v.186l.2.371m-1.009-.462-.1-.1.1-.186.2.186m-.4.837-.4-.186c0-.186.2-.281.4-.281.1,0,.2.1.2.281l-.2.186m.1-1.208-.1.281.1.276a.712.712,0,0,0-.507.281v-.1l-.2-.462h.1l.4-.281h.2M340.691,48.7l.379-.814a.976.976,0,0,1,.832-.394c.7,0,.8,1.023.8,1.394v.091l-2.014-.276m-.1-22.819-.1-.091.1-.1.1.1m-.305-.466V25.7l.1.371-.1-.09-.5.186.1-.186-.2-.281.379-.118m.153,1.036-.226.1-.305-.281.1-.186h.2c.2,0,.3.1.3.186l-.074.176m-.63-1.29-.1-.091.1-.1.1.1m-.458-.186.054.276-.305.1a.532.532,0,0,0,0-.557l.305-.1h.2l-.256.281m-.35,24.022.2-.186,1.009.186m-1.211-23.466.2-.1.2.281-.2.276a.311.311,0,0,1-.305-.276v-.1l.1-.09m0-1.208-.1.186-.1-.186.1-.1m1.846,21.941,2.093.231a6.78,6.78,0,0,0,3.23-.647l.606.552a5.505,5.505,0,0,1-2.826.837c-1.009,0-4.845-.371-5.15-1.389l.1-.1,1.945.511m-1.945,1.991-.2-.091c0-.371.2-1.208.807-1.208s.807.557.807,1.023l-.1.557-.606-.1c.1-.276.3-.462.3-.742l-.468.317-.542.24m-.305,1.394.305-.281a65.583,65.583,0,0,0,7.371.742c1.812,0,3.634-.928,3.634-2.783a1.915,1.915,0,0,0-.812-1.575,2.979,2.979,0,0,1,1.62.371,1,1,0,0,0,.3-.742,1.993,1.993,0,0,0-.606-1.3,3.208,3.208,0,0,1,1.92,2.783c0,2.783-3.235,3.71-5.554,3.71A42,42,0,0,1,341.7,49.9l-1.581-.172-1.654-.1m-.4-24.859h.2c.2,0,.305,0,.305.186s-.1.281-.305.281l-.2-.1v-.371l-.1-1.484.7.833-.1.466-.217.023m-.995,24.185.7-.833-.1.186.2.371m-1.108-23.28.222.425.079.5c0,.186-.1,1.018-.3,1.018s-.2-.833-.2-1.018l.025-.5.177-.425m-.025,7.489.025.579-.2.928c-.2,0-.2-.837-.2-1.023,0-.09,0-.928.2-.928l.177.443m.025-13.149-.015.258-.089.113c-.2.1-.4-1.208-.4-1.484l.1-.371c.1-.045.2.281.276.638l.128.846m0,9.737.31.118.089.253a.458.458,0,0,1-.5.466.526.526,0,0,1-.4-.466l.177-.253.33-.118m.163-7.149.138.29c0,.186-.2.367-.5.367a.414.414,0,0,1-.4-.367.356.356,0,0,1,.4-.371l.364.081m-.241,13.308.177.339a.519.519,0,0,1-.5.462c-.4,0-.606-.186-.606-.462s.2-.466.606-.466l.325.127m.079-11.072L336.584,24a2.187,2.187,0,0,1-.64-1.462,2.515,2.515,0,0,1,.709-1.575,1.866,1.866,0,0,0-.4,1.389l.212,1.127.6.914m-.1,3.615-.542.851-.162.914a2.449,2.449,0,0,0,.4,1.67,2.653,2.653,0,0,1-.808-1.67l.29-.95.817-.814m-1.615,6.959.217-.267.29-.2-.305.561m.1-19.479.364.081.138.29c0,.186-.2.371-.5.371a.418.418,0,0,1-.4-.371l.128-.29.276-.081m0,2.041-.832-.837a1.937,1.937,0,0,1-.379-1.113,2.629,2.629,0,0,1,.7-1.484,2.9,2.9,0,0,0-.3,1.394l.212,1.086.6.955m-.2,8.253-.266,1.032-.645.824a2.386,2.386,0,0,0,.507-1.855,3.287,3.287,0,0,0-.709-1.855,2.386,2.386,0,0,1,1.039,1.317l.074.538M335.137,46.1l-.049-.579-.355-.443h-.4a5.321,5.321,0,0,1,2.22-3.059c1.211.928,2.221,1.76,2.521,3.249h-.606l-.871-1.163-1.246-.882a5.894,5.894,0,0,1,.507,2.231,3.232,3.232,0,0,1-.606,1.946l-.443-.719-.67-.579m-.758-11.095.458-.131a.467.467,0,1,1,0,.932c-.4,0-.61-.186-.61-.466l.152-.335m-.049-5.973-.2.742-.1-.652a.827.827,0,0,1,.2-.647l.1.557m.379-10.2.241.484.089.538a2.657,2.657,0,0,1-.812,1.67,3.376,3.376,0,0,0,.409-1.67,2.328,2.328,0,0,0-.709-1.765l.783.742m-.379,6.679.33.149.177.222a.62.62,0,0,1-.507.557c-.305,0-.4-.276-.4-.557l.128-.258.276-.113m-.4,8.719.453-.81.153-.955a2.755,2.755,0,0,0-.507-1.76,2.551,2.551,0,0,1,.911,1.67,2.015,2.015,0,0,1-.315,1.032l-.694.824m.4-11.041-.079.548-.227.475-.2-1.023.2-1.109c.153,0,.227.253.266.52l.04.588m-.808,12.339,1.009-1.439a3.182,3.182,0,0,0,.709-1.439c0-1.018-.807-1.946-.807-3.059,0-1.484,1.713-2.226,1.713-3.525,0-1.2-1.413-1.95-1.413-3.249,0-1.2,1.009-2.036,1.009-3.244,0-1.575-2.221-1.76-2.221-3.986,0-.837.7-1.484.5-2.321l.2.742-.3,1.579.1.683c.448,1.425,2.225,1.76,2.225,3.3,0,1.208-1.009,2.136-1.009,3.244s1.413,1.95,1.413,3.249c0,1.389-1.615,2.226-1.615,3.615,0,1.023.7,1.95.7,2.968a2.32,2.32,0,0,1-.808,1.579l-1.413,1.3m-.1-16.977V18.09a1.164,1.164,0,0,1,.2-.833l.1.462-.305.833m.507.837.33.176.177.38a.7.7,0,0,1-.507.371.518.518,0,0,1-.507-.462l.177-.3.33-.163m.709,27.176-.217.9-.6.683h-.4l-.5-1.579m.7-32.927-.163.29-.241.081c-.3,0-.5-.1-.5-.371,0-.186.2-.371.5-.371l.241.118.163.253m.2,21.24-.241.385-.463.176a.56.56,0,0,1-.606-.561.58.58,0,0,1,.606-.647l.463.186.241.462m3.939,2.041.325-3.57.177-3.57-.1-4.081a.509.509,0,0,0,.606.1l-.1.186a.641.641,0,0,0,.606.647l.507-.091-.1.091a.726.726,0,0,0,.7.652.573.573,0,0,0,.507-.281s.3.647.7.647l.507-.186a.622.622,0,0,0,.6.557c.507,0,.709-.276.709-.557s-.1-.552-.4-.552c.2-.1.4-.371.3-.466h1.315l-.2,1.575v.1a5.023,5.023,0,0,1-2.221,1.113,5.5,5.5,0,0,0,2.117-.557l-.2.557A3.483,3.483,0,0,1,342.3,30.24a3.572,3.572,0,0,0,1.615-.462l-.1.462A4.311,4.311,0,0,1,342,31.262a4.548,4.548,0,0,0,1.615-.371l-.2.557a9.594,9.594,0,0,1-1.915,1.018A5.162,5.162,0,0,0,343.211,32l-.2.462-1.615.837,1.31-.281-.6,1.3a16.457,16.457,0,0,1-1.817.932l1.512-.376a6.051,6.051,0,0,0-.906,2.321l.2,1.113a3.177,3.177,0,0,1-1.315,1.2,5.47,5.47,0,0,0,1.516-.742,9.909,9.909,0,0,0,1.206,1.579,4.513,4.513,0,0,1-1.408.928,2.67,2.67,0,0,0,1.61-.652l.4.376a2.5,2.5,0,0,1-1.206,1.018,1.982,1.982,0,0,0,1.408-.652l.4.371a2.107,2.107,0,0,1-1.31.928h.1a2.078,2.078,0,0,0,1.413-.557l.2.186a2.325,2.325,0,0,1-1.31,1.023,3.507,3.507,0,0,0,1.615-.652l.606,1.023s-.606.928-1.211,1.018a2.671,2.671,0,0,0,1.516-.557l.1.1a2.677,2.677,0,0,1-1.315,1.023,2.954,2.954,0,0,0,1.516-.561l.2.561a5.4,5.4,0,0,1-3.028.738,8.515,8.515,0,0,1-3.634-.738,1.8,1.8,0,0,0-.305-1.208h.507l1.211-.1a2.488,2.488,0,0,1-2.526-1.3l.807.1.911-.1a4.081,4.081,0,0,1-2.723-.833l.906.09,1.009-.09a4.644,4.644,0,0,1-3.23-1.208,4.838,4.838,0,0,0,1.615.281l1.009-.09h-.4c-3.328,0-4.845-2.973-5.854-5.475l2.866.647,2.787.928m-6.46-10.48-.3-.09.4-.186.2.186m-.483,3.778-.226-.163c0-.371.605-.466.807-.466.305,0,.7.1.7.281,0,.371-.7.371-.906.371l-.379-.023m.281-2.2-.305.09a.424.424,0,0,1-.3-.371l.1-.09.29.118.217.253m.2.276.374.036.227.244c0,.276-.6.462-.8.462s-.606-.09-.606-.371c0-.136.153-.231.33-.29l.478-.081m.2,2.6.374.077.227.294c0,.276-.7.371-.906.371v.276c0,.1,0,.647-.4.647-.2,0-.3-.552-.3-.647a.879.879,0,0,1,.551-.95l.458-.068M330.6,23.1l.1-.231a1.306,1.306,0,0,1,.807-.231c.2,0,.606,0,.606.276s-.606.462-.906.462l-.379-.068L330.6,23.1m.7,10.76.468.14.241.416c0,.276-.4.557-.709.557a.656.656,0,0,1-.7-.557l.2-.416.5-.14m-.807,14.561,2.826.1a2.572,2.572,0,0,1-1.211.276l-.807-.113-.807-.258m.807-27.081.428.068.281.208c0,.371-.709.466-.911.466s-.7-.1-.7-.371c0-.14.153-.235.34-.29l.566-.081m-.807,3.71h-.1c0-.281.2-.281.4-.371l-.2-.186c0-.281.7-.466.906-.466s.606.09.606.276c0,.466-.906.466-1.211.466l-.089.208-.315.072m.305,4.077v.1l-.315-.068-.089-.213v-.09l.276.068M330.4,47.864l.428-.765a1.288,1.288,0,0,1,.881-.348c.807,0,1.009.652,1.009,1.208v.09l-2.319-.186m.123-27.244-.226-.208c0-.281.709-.466.911-.466s.605.1.605.371-.709.371-.911.371l-.379-.068m.379-7.167-.291.253-.517.118c-.2,0-.605-.1-.605-.371s.709-.371.911-.371l.325.081.177.29m-1.718,10.76v-.186a.332.332,0,0,1,.305-.371l.1.1-.128.3-.281.163m.207,5.751-.1.186-.2-.371.1-.186m.207,1.113.231.077c.172.136.172.434.172.575,0,.186,0,.738-.4.738-.207,0-.305-.552-.305-.738l.074-.4.231-.253m.3,2.688.468.176.241.38c0,.371-.4.557-.709.557q-.605,0-.605-.557l.153-.38.453-.176M329.6,21.7l.192.385a.587.587,0,0,1-.611.647c-.5,0-.807-.186-.807-.647,0-.281.305-.557.807-.557l.418.172m.29-9.819-.3.588a.836.836,0,0,1-.611.244c-.606,0-1.009-.276-1.009-.833l.2-.557,1.718.557m-.719,32.058-1.4-.71c.606-.742,2.526-4.638,2.526-5.471a1.988,1.988,0,0,0-.3-1.023l2.216-.09.807,1.575-.5.1A3.381,3.381,0,0,1,331,37.755a2.958,2.958,0,0,0,2.319.833,8.554,8.554,0,0,0,1.718,2.136h-.4a6.393,6.393,0,0,1-3.23-.837,6.609,6.609,0,0,0,4.037,1.208l.7.647-.5.371a7.514,7.514,0,0,1-4.037-.833,8.012,8.012,0,0,0,3.634,1.3l-.606.647h-.2A9.225,9.225,0,0,1,330.7,42.3a8.556,8.556,0,0,0,3.737,1.394l-.409.557h-.2a6.957,6.957,0,0,1-3.831-1.023,6.493,6.493,0,0,0,3.831,1.484l-.1.371a11.562,11.562,0,0,1-3.092-.579l-1.462-.566m-1.4-20.651.2.276c0,.19-.1.19-.2.281-.1-.09-.2-.09-.2-.281l.2-.276m.01,7.326.192-.09c.2,0,.305.557.305.742,0,.1-.1.652-.305.652-.3,0-.4-.557-.4-.652l.089-.443.123-.208m-.01-.647.1.186-.305.371-.1-.371.074-.1m-.074,6.217.2-1.579,4.343.652.2,1.208-2.408-.072M327.362,47.4l.507-.919a1.126,1.126,0,0,1,.807-.566c.808,0,1.113,1.113,1.113,1.67v.186l-2.427-.371m.507-14.194.463.154a.6.6,0,0,1,.241.5c0,.276-.4.557-.7.557a.662.662,0,0,1-.709-.557l.2-.5.507-.154m-.2-11.222-.079.362-.227.29c-.3,0-.4-.557-.4-.652,0-.186.1-.742.4-.742l.227.3.079.439M326.56,44.153v-.09a.942.942,0,0,1,.4-.742c2.216,1.67,4.845,2.041,7.567,2.226v.281l-.1.367h-.911a15.392,15.392,0,0,1-5.564-1.172l-1.4-.869m1.206-18.828.6.127a1.562,1.562,0,0,1-.6,3.027,1.573,1.573,0,0,1-.635-3.027l.635-.127m-1.551-1.588.039.29v.186l-.3-.371v-.186m.1,6.493h-.1v-.186a.424.424,0,0,1,.3-.371l.1.091-.079.3-.227.163m.113.462.192-.09c.3,0,.4.466.4.742,0,.1-.1.557-.4.557s-.4-.462-.4-.557l.089-.443.123-.208m-.315,5.57.227-.837.079-.837.906.1-.2,1.67M326.5,14.466l.271-.33.291-.127c.906,0,1.413,2.783,1.413,3.434a1.415,1.415,0,1,1-2.826,0l.4-1.928.448-1.05m-.423,25.678-.227.113-.2-.371h.507m.364-6.642.241.43c0,.276-.4.557-.709.557a.559.559,0,0,1-.606-.557.632.632,0,0,1,.606-.652l.468.222m-.655-17.855-.517,2.425a1.639,1.639,0,0,0,1.713,1.575,1.469,1.469,0,0,0,1.615-1.67c0-.742-.709-4.267-1.615-4.267-.226,0-.448.231-.65.588l-.547,1.348m.492,29.787.29.285a2.408,2.408,0,0,1,.212,1.2v.647L325.8,46.95c-.4-.149-.758-.335-.758-.57s.251-.484.542-.706l.773-.5m-1.211-23.561.5-.186a.651.651,0,0,1,0,1.3.66.66,0,0,1-.7-.647l.2-.466m.389,5.371.359.113.158.176c0,.181-.606.647-.807.738l.911-.186.2.186-.305.837a1.824,1.824,0,0,1,.807-.466c.3,0,.3.837.2,1.023.1-.1.5-.837.7-.837s.507.652.606.742v-.186s0-.742.2-.742a2.418,2.418,0,0,1,.911.557l-.305-.928c0-.09,0-.186.207-.186l.906.186c-.2-.09-.807-.462-.807-.738s.911-.371,1.009-.371c-.1,0-1.009-.1-1.009-.371s.605-.652.807-.742l-.906.091-.207-.091a1.679,1.679,0,0,1,.305-.928,1.365,1.365,0,0,1-.911.557c-.3,0-.2-.837-.2-1.023-.1.186-.4.837-.606.837-.3,0-.5-.652-.606-.837v.371c0,.281,0,.652-.3.652a1.42,1.42,0,0,1-.807-.466,1.189,1.189,0,0,1,.305.742c0,.186-.1.186-.305.186l-.906-.091c.2.091.906.462.906.742s-1.009.371-1.108.371l.591.081m-.793-2.308h.1c.2-.1.305.091.305.276h-.1l-.3-.276M325,29.013l-.261.113h-.1l-.1-.09c0-.186.3-.281.5-.281l-.039.258m.167,1.946.074.4c0,.186-.1.647-.3.647-.4,0-.4-.462-.4-.647s0-.652.4-.652l.226.253m-.63,7.629V38.5h.5l-.5-.186v-.1l.606.1-.507-.281.1-.09h.4l-.4-.186.1-.1.507.1h.2c-.2,0-.507-.1-.507-.281v-.09l.709.09-.507-.276.606-.1c1.009,0,1.31.742,1.511,1.484a4.192,4.192,0,0,1-1.408.466l-.744-.163-.669-.3m-.2-11.683.615-.3.694-.163c-.2-.186-1.108-.557-1.108-.833,0-.186.2-.186.3-.186l1.315.276a2.018,2.018,0,0,1-.606-1.113l.1-.091v-.1a2.857,2.857,0,0,1,1.211.742l-.1-.742.1-.557c.5,0,.807.837.906,1.023.1-.1.507-1.113.807-1.113.2,0,.1,1.113.1,1.389.3-.276.709-.742,1.113-.742l.1.281a2.161,2.161,0,0,1-.4,1.018,2.085,2.085,0,0,1,1.009-.276c.305,0,.4,0,.4.186a1.418,1.418,0,0,1,.807-.281c.2,0,.606,0,.606.371,0,.186-.7.371-.808.371-.2,0-.7-.09-.7-.276a1.853,1.853,0,0,1-1.009.647,2.694,2.694,0,0,1,1.31.281l.709-.186c.2,0,.6.091.6.371s-.7.371-.906.371-.5,0-.605-.186a3.083,3.083,0,0,1-1.009.276c.2.09,1.009.557,1.009.833,0,0,0,.186-.4.186a2.445,2.445,0,0,1-1.108-.276,2.065,2.065,0,0,1,.606,1.113l-.2.186a1.809,1.809,0,0,1-1.113-.742v.647c0,.1,0,.652-.1.652-.4,0-.7-.837-.807-1.023-.1.186-.4,1.023-.8,1.023-.305,0-.1-1.023-.1-1.208a2.184,2.184,0,0,1-1.211.652l-.1-.186c0-.281.4-.742.606-1.113l-1.315.276-.2-.09h-.1c0-.281.906-.837,1.108-.928l-.729-.163-.581-.3m-.1,11.964.1-.1a2.614,2.614,0,0,0,3.225,0h.1v.1c0,.462-1.413.833-1.713.833a3,3,0,0,1-1.615-.557l.4.1-.507-.371m.808-28.108.645.244.266.593a.871.871,0,0,1-.911.837.969.969,0,0,1-1.009-.837.777.777,0,0,1,.315-.593l.694-.244m-.389,22.529.187.385a.713.713,0,0,1-.606.647.826.826,0,0,1-.709-.647c0-.281.4-.557.709-.557l.419.172m-.015-5.833-.084.217a.951.951,0,0,1-.625.154c-.2,0-.808-.09-.808-.371s.507-.367.709-.367l.478.113.33.253m-.1-5.376-.266.163-.345.023a1.164,1.164,0,0,1-.808-.186l-.1-.186.1-.186.507-.186a1.249,1.249,0,0,1,.812.312l.1.244m0,2.688-.266.208-.345.072a1.212,1.212,0,0,1-.808-.281v.466l-.1-.652.1-.091c.1-.19.4-.19.606-.19a1.159,1.159,0,0,1,.714.24l.1.226m0,4.172-.266.213-.345.068-.808-.186-.1-.186.1-.186.507-.1a1.432,1.432,0,0,1,.812.158l.1.213m-1.418-5.751.251-.163L323.63,23c.3,0,.911.1.911.371s-.611.281-.709.281l-.709-.1-.2-.276.2-.1m0-5.376.482-.258.63-.113a2.221,2.221,0,0,1,1.009.371v-.557l-.606-.186-.807.186c-.4,0-.709-.186-.709-.557a.766.766,0,0,1,.808-.742,1.718,1.718,0,0,1,1.516.742l.1-.652c-.4-.928-1.62-.09-1.62-1.018,0-.186.305-.371.611-.371a1.335,1.335,0,0,1,1.108.742l.2-.371c-.2-.837-1.211-.186-1.211-1.023a.418.418,0,0,1,.4-.371c.507,0,.807.371,1.113.742l.1-.371c-.2-.557-.807-.371-.807-.833l.2-.281c.507,0,.709.466.911.742a.284.284,0,0,1,.3-.186l-.1-.742c0-.186.1-.371.3-.371s.3.1.3.371l-.2.652c.2.09.305.09.4.276.1-.276.4-.742.709-.742l.2.1.1.276c0,.276-.606.186-.7.742l.1.466a1.143,1.143,0,0,1,1.009-.837c.2,0,.409.276.409.466,0,.462-.911.186-1.216.833l.2.466a2,2,0,0,1,1.315-.837.63.63,0,0,1,.507.466c0,.647-1.315.186-1.62.928l.1.557a1.808,1.808,0,0,1,1.211-.557c.507,0,1.009.276,1.009.742a.538.538,0,0,1-.5.557l-1.216-.186-.4.09.1.652a2.242,2.242,0,0,1,1.009-.371,1.174,1.174,0,0,1,1.211,1.018c0,.371-.2.557-.5.557-.507,0-.807-.557-1.418-.557h-.5l-.1.371c.606,0,1.516.371,1.516.833,0,.376-.7.932-1.113.932s-.5-.932-1.108-1.208l-.507.186a.883.883,0,0,1,.507.742.87.87,0,0,1-.906.837.857.857,0,0,1-.2-1.674l-.507-.09c-.807.186-.7,1.208-1.211,1.208-.4,0-1.113-.557-1.113-.837,0-.557,1.113-.928,1.62-.928l-.2-.371h-.4c-.812,0-.911.557-1.516.557l-.305-.186a.509.509,0,0,1-.3-.466l.3-.552m0,12.054h.305c.3,0,.911,0,.911.371,0,.19-.409.376-.611.376l-.606-.186c-.2,0-.4-.19-.4-.281l.4-.281m0-9.642.478.127c.177.081.33.195.33.335,0,.281-.606.281-.808.281-.3,0-.7-.1-.7-.466l.276-.208.428-.068m0-5.475.276.1.128.176c0,.186-.3.276-.4.371h-.3c-.2,0-.808-.1-.808-.371,0-.235.2-.326.443-.348l.665.068m0-1.389.138.1.064.172-.2.371h-.4c-.2,0-.8-.1-.8-.466,0-.181.4-.276.6-.276l.605.1m0-1.3.2.276-.2.1-.5.09c-.305,0-.906-.09-.906-.371s.4-.276.6-.276l.4.023.4.163m-.1,21.611-.2.43-.507.217a.714.714,0,0,1-.6-.647.622.622,0,0,1,.6-.557l.507.172.2.385m0-22.819-.227.29-.379.081c-.305,0-.906-.1-.906-.466,0-.186.5-.276.6-.276a1.579,1.579,0,0,1,.812.195l.1.176m-1.713,19.2-.025.548-.177.475c-.1,0-.1-.928-.1-1.023s0-1.018.1-1.018l.177.475.025.543m.162-3.452.138.3a.457.457,0,0,1-.5.462.436.436,0,0,1-.4-.462c0-.186.2-.466.4-.466l.364.163m1.649.118.2.09h-.2c-.3.1-.5.186-.5.466a.939.939,0,0,0,.5.738l.2.1h-.2c-.3.09-.605.276-.605.462a1.077,1.077,0,0,0,.605.837l.1.09h-.1c-.3.1-.807.1-.807.557,0,.281.4.561.606.652-.3.186-.7.371-.7.652a.553.553,0,0,0,.3.557,1.476,1.476,0,0,1,.605-.742l.4-.1.4.186c0,.371-.606.742-.808.928v.186l.305.09c.5,0,.606-.371.7-.647a.966.966,0,0,0,.812.647c.4,0,.605-.276.7-.647a.739.739,0,0,0,.606.742c.507,0,.709-.371.807-.742.2.276.4.742.906.742.305,0,.606-.466.606-.742a1.157,1.157,0,0,0,1.014.833,1.05,1.05,0,0,0,.7-.462c.1.276.305.833.709.833a.731.731,0,0,0,.7-.557c.1.281.305.557.606.557a.631.631,0,0,0,.606-.647c0-.462-.606-.557-1.009-.462.2-.371,1.108-.371,1.108-.837,0-.647-.605-.557-1.108-.557.3-.371,1.108-.371,1.108-.928,0-.466-.906-.466-1.206-.466.3,0,1.108-.462,1.108-.833,0-.281-.807-.557-1.108-.557.3-.186,1.108-.462,1.108-.833,0-.466-.305-.557-.709-.557a.915.915,0,0,0,.709-.837c0-.371-.507-.557-.807-.557.2-.186.7-.462.7-.837s-.4-.462-.7-.462c.3-.186.7-.466.7-.928,0-.276-.7-.462-.906-.557.3-.091.807-.371.807-.742s-.606-.557-.807-.557c.2-.186.807-.462.807-.928,0-.281-.606-.466-.807-.466a1.069,1.069,0,0,0,.606-.833c0-.371-.7-.557-1.009-.557a1.227,1.227,0,0,0,.606-.833c0-.371-.606-.466-.807-.557.305-.1.709-.371.709-.742,0-.466-.709-.557-1.113-.557.305-.186.709-.466.709-.837,0-.276-.709-.462-1.009-.557.3-.1.807-.557.807-.833s-.4-.466-.606-.466l.3-.462.808.186a88.248,88.248,0,0,1,1.615,14.375c0,2.317,0,4.823-.2,7.14a34.912,34.912,0,0,0-8.277-1.113h-1.92l-1.61.186a35.3,35.3,0,0,0,.6-6.489v-.652A84.8,84.8,0,0,0,320.4,10.018l1.413.1-.566.217-.241.186-.1.244c0,.561.5.652.906.747-.3.09-.807.371-.807.647,0,.371.709.742,1.108.742-.3.1-.906.371-.906.647,0,.466.709.652,1.009.747-.2.091-.7.276-.7.557s.6.742.906.742c-.305.09-.7.462-.7.742,0,.371.6.557.906.647-.305.1-.906.281-.906.742,0,.281.6.557,1,.647-.3.1-.8.371-.8.652,0,.371.6.742.8.837-.2.09-.606.371-.606.647s.606.557.807.652c-.2.186-.807.462-.807.742s.606.647.911.742c-.305,0-.709.276-.709.552,0,.371.4.652.807.742l.1.1h-.1c-.4.09-.7.186-.7.557l.2.475.5.267h.1l-.1.1c-.3,0-.7.276-.7.462l.241.452.463.385-.1-.742.1-.1.606-.091c.2,0,.812.091.812.371s-.507.276-.611.276a.883.883,0,0,1-.808-.276v.557M320.4,48.235l.039-.29-.039-.357a13.39,13.39,0,0,1,2.723-.1l3.333.466,2.521.557a10.488,10.488,0,0,0,2.93.742h.2c1.817,0,2.93-.837,2.93-2.6a2.757,2.757,0,0,1,.606,1.3l-.1.928a4.7,4.7,0,0,0,1.915-4.176,2.821,2.821,0,0,1,.807,1.855,3.475,3.475,0,0,1-1.31,2.412l1.512-.276.1.091-.891.787a5.649,5.649,0,0,1-3.348.977c-2.221,0-4.037-.928-6.16-1.484a23.019,23.019,0,0,0-5.047-1.023l-.5-.09-1.187.068-1.034.208m.911-23-.6.842L320.5,27a2.95,2.95,0,0,0,.5,1.575,2.017,2.017,0,0,1-.7-1.665,1.826,1.826,0,0,1,.551-1.344l.458-.326m.1-5.29-.128.335-.276.131-.5-.186a3.439,3.439,0,0,0,.906,1.67,2.24,2.24,0,0,1-1.211-1.95,1.777,1.777,0,0,1,.709-1.484,2.256,2.256,0,0,0-.4,1.394c0-.19.2-.281.5-.281l.241.118.162.253M320.085,33.43l.418-.127a.465.465,0,1,1,0,.928c-.305,0-.606-.186-.606-.466l.187-.335m.113-21.09.276.127.128.339a.418.418,0,0,1-.4.371c-.3,0-.5-.186-.5-.371l.138-.339.364-.127m-.1,20.312.315.118.089.253v.1l-.1-.1c-.3,0-.606.186-.606.371l-.2-.371.138-.253.369-.118m.069-1.167.635-.222a3.238,3.238,0,0,0-1.512,2.5l-.1-.833a1.509,1.509,0,0,1,.468-1.077l.512-.371M319.9,43.09l-.709.416a1.906,1.906,0,0,1,1.92-1.579,2.6,2.6,0,0,1,2.014,1.113,1.865,1.865,0,0,1,.305,1.113,2.542,2.542,0,0,1-.305,1.3,5.989,5.989,0,0,1-1.31,1.76l-1.413.276a1.119,1.119,0,0,0-.606-.928c1.113-.276,2.422-.738,2.422-1.855a1.645,1.645,0,0,0-1.615-1.76l-.7.14m.3-28.615-.871-.837a2,2,0,0,1-.34-1.113,1.975,1.975,0,0,1,.606-1.394,1.972,1.972,0,0,1-.3-1.018V9.832a2.1,2.1,0,0,1,.5,1.208l-.1.281-.1-.1a2.067,2.067,0,0,0-.3,1.113,3.15,3.15,0,0,0,.507,1.71l.4.425M320,23.19l-.212.86-.6.719a2.3,2.3,0,0,0,.507-1.579,2.8,2.8,0,0,0-.709-1.76l.734.742L320,23.19m-.679-7.045.276,1.018a2.234,2.234,0,0,1-.807,1.67,2.53,2.53,0,0,0,.507-1.67,2.343,2.343,0,0,0-.709-1.76l.734.742m-.33,6.584.276.127.128.335c0,.186-.2.466-.4.466a.425.425,0,0,1-.4-.466l.089-.3.315-.163m-.305,1.765.177.439.025.579c0,.1,0,.928-.2.928l-.2-.928.2-1.018m.1,9.271.453.118.153.253c0,.371-.2.466-.605.466a.46.46,0,0,1-.507-.466l.177-.253.33-.118m-.507,15.027.266-.774a.732.732,0,0,1,.645-.43.87.87,0,0,1,.709.371,1.611,1.611,0,0,1-.734.52l-.886.312m.4-28.38-.064.543-.138.475c-.2,0-.3-.928-.3-1.018s.1-1.023.3-1.023l.138.475.064.548m.266,8.158.241,1.023a2.423,2.423,0,0,1-.709,1.67,2.693,2.693,0,0,0,.507-1.67,2.451,2.451,0,0,0-.807-1.765l.453.33.315.412m0-11.71.138.3a.52.52,0,0,1-.5.466.63.63,0,0,1-.507-.466.625.625,0,0,1,.507-.462l.364.158m-.266,12.733-.089.3-.315.158c-.2,0-.4-.276-.4-.462a.437.437,0,0,1,.4-.466l.315.131.089.335m.758-14.724.8.833a1.817,1.817,0,0,1,.364,1.09c0,1.208-.906,2.131-.906,3.154,0,1.208,1.31,2.041,1.31,3.339,0,1.484-1.615,2.226-1.615,3.62,0,1.018.911,1.851.911,2.964,0,1.208-1.516,2.045-2.225,2.968.4-.833,1.718-2.131,1.718-2.873,0-1.113-.807-1.95-.807-3.059,0-1.579,1.517-2.321,1.517-3.62,0-1.2-1.315-1.946-1.315-3.339,0-1.113.911-1.946.911-3.059,0-1.67-2.324-1.765-2.324-4.081,0-.837.7-1.484.5-2.231a.815.815,0,0,1,.305.652c0,.557-.305,1.023-.305,1.579A2.058,2.058,0,0,0,318.643,14l.8.869m-1.969,23.719.1-.276a2.518,2.518,0,0,0,1.615-2.783,17.161,17.161,0,0,0,3.934.928l2.526.186v.186a1.822,1.822,0,0,0-1.413,1.67.5.5,0,0,0-.305.371c0,.557,1.113,1.018,1.516,1.018,0,.281.1.557.4.557.4,0,.507-.276.507-.557.5,0,1.61-.462,1.61-1.018a.418.418,0,0,0-.4-.371,1.821,1.821,0,0,0-1.511-1.67v-.1a24.521,24.521,0,0,0,3.737,0v.186l-.276,1.466c-.512,1.534-1.6,3.222-2.048,4.751l-.4-.186c-.606,0-1.009.742-1.009,1.2l.305.557c-.808.186-1.817.932-1.817,1.765,0,.462.4.647.7.833l-2.122-.091h-1.009l1.009-1.023a3.066,3.066,0,0,0,.808-2.041,2.463,2.463,0,0,0-.808-1.946,3.122,3.122,0,0,0-2.014-.742c-1.516,0-2.024,1.018-2.024,2.226v.462a1.659,1.659,0,0,1,1.418-.742,1.124,1.124,0,0,1,1.211,1.113c0,.932-1.211,1.579-1.92,1.855v-.09c0-.557-1.211-.833-1.718-.928a9.047,9.047,0,0,1-.7-3.991l-.025-1.389.123-1.394m0-27.081-.1.371a1.917,1.917,0,0,1-.4-1.208v-.281l.364.557.138.561m0,20.774.1.281c0,.276-.2,1.484-.507,1.484-.2,0-.2-.186-.2-.281a3.7,3.7,0,0,1,.379-1.29l.222-.195m.113,2.018.192.3c0,.276-.305.466-.606.466a.461.461,0,0,1-.5-.466.52.52,0,0,1,.5-.466l.414.163m-1.827,15.05.354-.52a.954.954,0,0,1,.655-.312,3.636,3.636,0,0,1,1.108.462l-2.117.371m-1.211-29.493-.049-.3-.354-.163-.1.09.207.652-.207.837.369-.489m.743-9.534-.5-.186-1.014-1.575.611.276m-.812,38.868h-.3l.1-.742c1.62,0,4.239-.186,5.047-1.76.305.09.911.276.911.552,0,1.186-2.609,1.688-4.387,1.864l-1.369.086m.1-29.683-.089-.475a.369.369,0,0,0-.315-.267l-.2.1-.1.09c0,.186.4.371.4.742a7.089,7.089,0,0,1-.4,1.394l.507-.719.2-.86m-.281,30.864-.527-.163c.2-.557.4-.557,1.108-.557a1.181,1.181,0,0,1,1.113.742h-1.009l-.684-.023m.581-38.841-.807-.186L311.72,9l1.108.09m-2.142-1.339.158.3-.03.3-.2.09a.775.775,0,0,1-.709-.928l.2-.09.31.1.271.231M309.9,9.185,311.016,9l1.206,1.389-1,.1m-1.413.276L308.49,9.647l.807-.371,1.315,1.3m-3.235-.371.606-.371,1.216,1.208-.611.281m-.645-4.281.443-.081c.605,0,1.315.466,1.315,1.023,0,.647-.709,1.018-1.315,1.018a1.109,1.109,0,0,1-1.211-1.018.954.954,0,0,1,.379-.719l.389-.222m.615,18.326,1.078-.611A6.094,6.094,0,0,0,311.218,23a8.523,8.523,0,0,0-1.113.837,10.522,10.522,0,0,1-2.93,1.484l-.1-.462.2-.652c1.413-.652,2.422-2.873,3.131-2.783h.2c1.211.837,2.418,1.76,2.723,3.154.605-1.113,1.817-1.394,2.22-2.688a17.91,17.91,0,0,0,.911-3.991l1.408-1.855.2,5.195v.466l-1.3,1.837a18.789,18.789,0,0,1-5.052,4.837,9.042,9.042,0,0,1-3.737,1.394c-.4,0-.906-.1-.906-.557a1.33,1.33,0,0,1,.4-.742c2.826-.281,4.141-1.113,5.249-3.43a7.839,7.839,0,0,1-5.249,2.964h-.1v-.186a1.075,1.075,0,0,1,.305-.833c2.122-.186,3.835-.647,4.643-2.5-.606,1.113-3.634,1.946-4.948,2.226-.2-.1-.4-.281-.4-.466a.925.925,0,0,1,.4-.647l1.182-.24m-1.078-13.4-1.009-1.023.4-.371,1.211,1.023m-.4-4.914-.241.29-.468.081c-.2,0-.7-.1-.7-.371s.507-.376.7-.376l.468.081.241.294m-1.615,4.638,1.108,1.018c-.3.186-.5.466-.8.557l-.807-1.113.5-.462m-.1-2.783.783.208a.74.74,0,0,1,.325.624c0,.462-.5.833-1.108.833a.966.966,0,0,1-1.009-.833.744.744,0,0,1,.315-.624l.694-.208m-.1,4.823-.807.462-.5-1.484a.7.7,0,0,0,.5-.276l.807,1.3M304.453,48.42l.079-.638-.079-.566a6.375,6.375,0,0,0,4.239,1.946c.911,0,2.422-.276,2.422-1.484a1.676,1.676,0,0,0-.4-1.113c.911,0,2.019.371,2.019,1.394,0,1.67-2.117,2.412-3.634,2.412a5.7,5.7,0,0,1-3.574-1.176l-1.068-.774m.4-38.063.222.2.084.3c0,.466-.507.742-.911.742s-.911-.276-.911-.742.507-.652.911-.652l.606.154m-.3,3.652-.709.371-.606-1.484.7-.276m-.606-5.937.566.072c.586.136,1.152.484,1.152,1.041,0,.742-1.009,1.109-1.718,1.109-.606,0-1.61-.367-1.61-1.109,0-.629.566-.941,1.1-1.054l.507-.059m0,7.792-1.108.09-.5-1.484,1-.186m.4-1.018-.069.294a.807.807,0,0,1-.738.353.661.661,0,0,1-.7-.647c0-.281.4-.557.7-.557l.556.172.251.385M302.8,43.81l-1.172-.3a1.3,1.3,0,0,1,1.108-.837,1.283,1.283,0,0,1,1.315,1.113v.186L302.8,43.81M301.4,6.661l-.276-.258c0-.281.5-.466.7-.466s.606.186.606.466c0,.186-.4.371-.606.371l-.428-.113m-.276,37.307,1.408.3,1.413.163c.507,0,1.216-.1,1.216-.652a3.308,3.308,0,0,0-.4-1.2.621.621,0,0,0,.4-.652,1.841,1.841,0,0,0-.305-1.109h-.7l.231-.86c.729-1.747,2.683-1.787,4.712-2.113l1.211-.276c.507,2.317.1,6.769,1.315,8.719h-.305a4.133,4.133,0,0,0-1.512.186c.606.186,1.108.462,1.108,1.018,0,.928-1.512,1.208-2.22,1.208-2.019,0-3.126-1.3-4.54-2.412a3.9,3.9,0,0,0-2.526-2.041l-.5-.281m.1-27.176-.2-.09.2-.186.305.186m-1.113,33.2.886-.416a.894.894,0,0,0,.428-.7.83.83,0,0,0-.4-.742,1.712,1.712,0,0,0,1.31-1.76,2.024,2.024,0,0,0-.4-1.3,3.388,3.388,0,0,1,1.817,2.968c0,1.321-1.2,1.7-2.427,1.851l-1.206.1m1.211-35.244h-1.009l-.4-1.3.911-.186M300.012,16.7l.227-.326a4.026,4.026,0,0,1,1.388-.326l-1.615.652m1.009-8.163v.276c-.1.557.606,1.018,1.211,1.018a1.888,1.888,0,0,0,.906-.371c.1.742-.906,1.3-1.61,1.3s-1.615-.462-1.615-1.113a1.016,1.016,0,0,1,.325-.728l.783-.38m-.2,3.986-.227.29-.379.081c-.3,0-.7-.09-.7-.371s.4-.462.7-.462l.379.127.227.335m.133-5.412.069.312a.758.758,0,0,1-.807.647c-.4,0-.906-.276-.906-.647,0-.466.5-.742.906-.742l.556.2.182.231m.271,10.235.443-.186.064-.462c.6-.186,1.108-.557,1-1.113v-.1c-.3.466-1,.281-1.512.281-.808,0-1.915.557-1.915,1.484l.3-.186.507.186.4-.1.7.186m-1.512-3.9.3,1.3-.906.1-.409-1.3m0,17.172-.1-.566.507.928M298.5,42.669l.207-.348a1.419,1.419,0,0,1,1.108-.394c.709,0,1.211.281,1.211,1.113v.371l-2.526-.742m-.2-3.986.453-.946c2.545-4.434,8.922-4.547,8.734-7.588l.807.09a9.345,9.345,0,0,0,4.441-1.855,16.342,16.342,0,0,0,5.347-6.584A45.713,45.713,0,0,1,315.659,36a16.992,16.992,0,0,1,7.464-1.579h.808l1.718.09-.4,1.579L323.123,36l-3.934-.557-.1-.371v.462c0,.652-.906,2.412-1.915,2.5l-.1.186a5.185,5.185,0,0,1-1.812.742,11.25,11.25,0,0,0,1.713-.276l-.1.833-1.817.557,1.817-.186-.1.557a3.841,3.841,0,0,1-1.615.652L316.87,41v.462a8.085,8.085,0,0,1-1.718.647l1.718-.186v.466a3.523,3.523,0,0,1-1.718.742h.305a4.351,4.351,0,0,0,1.511-.281l.1.371a4.345,4.345,0,0,1-1.915.837,4.892,4.892,0,0,0,2.019-.371,14.609,14.609,0,0,0,.906,1.765c-1.009,1.389-3.427,1.665-5.047,1.665a1.552,1.552,0,0,0-1.31-.833c-1.211-3.249-.1-6.774-1.413-10.389a15.922,15.922,0,0,1-1.211-4.081v.276a14.483,14.483,0,0,0,.911,4.547l-.2.09a2.125,2.125,0,0,1-.709-1.294v.186A2.291,2.291,0,0,0,309.6,37.2l-.4.276a2.6,2.6,0,0,1-1.113-1.851v.462a2.749,2.749,0,0,0,.606,1.484h-.4l-.561-.357a2.279,2.279,0,0,1-.852-1.683v.281a2.541,2.541,0,0,0,.7,1.851,4.5,4.5,0,0,0-1.915.466,2.238,2.238,0,0,1-1.211-1.946l-.1.371a2.565,2.565,0,0,0,.906,1.76l-.3.186c-.911-.186-1.315-1.208-1.516-1.946a2.722,2.722,0,0,0,1.113,2.222,2.911,2.911,0,0,0-.611,2.045,10.863,10.863,0,0,1-4.5-1.163l-1.152-.973m-.153-30.47.556-.14a.559.559,0,1,1,0,1.113c-.4,0-.807-.186-.807-.557l.251-.416m.153,4.222.315.127.089.335c0,.1-.1.281-.4.281-.2,0-.4-.186-.4-.281l.128-.335.276-.127m.4-2.136-.1.276c0,.652.606.837,1.211.837l.606-.09c-.1.557-.807.742-1.31.742s-1.418-.186-1.418-.837a.741.741,0,0,1,.315-.57l.694-.357m-.354,29.135.719.5a10.266,10.266,0,0,0,5.495,1.344l.1.557c0,.371-.2.371-.606.371-1.817,0-6.056-1.113-6.563-2.878,0-.186.1-.462.305-.462l.552.566m-.251-25.8.4,1.3-1.009.186-.3-1.208m.906-3.986-.153.335-.453.127c-.2,0-.606-.186-.606-.462s.4-.466.606-.466l.453.127.153.339m-1.674,3.05.364-.081a.358.358,0,0,1,.4.371.418.418,0,0,1-.4.371c-.3,0-.5-.186-.5-.371l.138-.29m-.241,12.348h-.1l.3-.091m-.3,16.045.379-.489.527-.348a1.442,1.442,0,0,1,1.009,1.208l-.2.742-.935-.489-.778-.624m.4-30.706.276.118.123.253a.355.355,0,0,1-.4.376c-.2,0-.507-.1-.507-.376l.177-.253.33-.118m-.2,5.756-.305-.186a.314.314,0,0,1,.305-.281c.1,0,.2.1.2.281l-.2.186m.3-2.321.3,1.208-.8.276-.305-1.113m-.089-2.679.089.176c0,.276-.1.462-.4.462a.436.436,0,0,1-.4-.462c0-.1.2-.281.4-.281l.315.1m-.049,1.742.138.285c0,.281-.2.376-.5.376a.359.359,0,0,1-.4-.376.355.355,0,0,1,.4-.367l.364.081m-.064,2.235-.7.281-.305-1.023.606-.371m-.906-1.946.364.068.138.208a.458.458,0,0,1-.5.466.441.441,0,0,1-.409-.466l.128-.208.281-.068m-.03,4.24.128.213c0,.186-.2.186-.4.186-.1,0-.2,0-.2-.186s.1-.281.2-.281l.275.068m.128-.624-.492.2-.419.267-.1-1.113.709-.466m.1-.647-.128.253-.276.118c-.305,0-.507-.186-.507-.371a.46.46,0,0,1,.507-.466l.276.127.128.339m-1.516,2.783-.3-.281c.1-.462.1-.742.5-.928l.1.928-.305.281M292.149,46l.192-.452.606-.276a11.441,11.441,0,0,1,5.248-1.579c1.615,0,3.934.557,3.934,2.412a1.736,1.736,0,0,1-1.812,1.67,5.841,5.841,0,0,1-1.62-.371,1.567,1.567,0,0,0,1.517-1.394c0-1.113-1.413-1.3-2.324-1.3a9.469,9.469,0,0,0-4.943,1.394l-1.009.557-.2-.281.413-.38m-.113-27.077-.8-.09a3.467,3.467,0,0,1,.906-1.3l-.1,1.389m-.2,3.9-1.108-.09a29.909,29.909,0,0,0,1.413-3.154l.3.091a.473.473,0,0,0,.507-.276V18.276l-.305-.928.305-.09.7-.466-.1.466c0,.276.4.557.709.557a.656.656,0,0,0,.7-.557.642.642,0,0,0-.606-.652l1.615-.647-.1.186a.638.638,0,0,0,.606.647.579.579,0,0,0,.6-.647l-.4-.466c2.723-.742,5.953-.371,8.075-1.3,3.225-1.389,2.723-3.249,7.366-3.62l.1.281a.429.429,0,0,1-.3.466,8.583,8.583,0,0,1,2.221-.186,3.4,3.4,0,0,1,3.432,3.059l-.1,1.023a2.529,2.529,0,0,0-1.31-.928c-.1-1.208-.906-2.692-2.422-2.692-2.925,0-1.113,2.878-3.53,4.547.807-.186,1.413-1.394,1.615-2.136a2.285,2.285,0,0,1,1.512,1.3,2.2,2.2,0,0,0-1.315-1.855l.2-.462a6.283,6.283,0,0,1,1.718,1.484,6.474,6.474,0,0,0-1.211-1.855l.5-.281a4.769,4.769,0,0,1,1.315,1.484,7.482,7.482,0,0,0-.709-1.575s2.024,1.109,2.024,2.317a1.508,1.508,0,0,1,1.408.928,4.872,4.872,0,0,1-1.31,2.041v.1a14.324,14.324,0,0,1-.807,3.71c-.4,1.113-1.413,1.76-1.718,2.778-1.009-3.706-4.234-2.688-4.234-6.769a6.512,6.512,0,0,1,.3-1.946,6.037,6.037,0,0,0-.807,2.593,3.833,3.833,0,0,0,.709,2.045,4.349,4.349,0,0,1-1.113,2.593l.1-.738v-.466l-.4,1.575c-.3.186-.5.466-.906.561l.3-1.113-.7,1.294-.606.281.2-1.023a2.666,2.666,0,0,1-.605,1.023l-.5.09.1-.647v-.371c-.1.371-.1.742-.4,1.018l-.606.1.2-1.113-.507,1.113-.5-.1.3-1.113-.606,1.113-.606-.09A4.366,4.366,0,0,0,302.838,23a2.825,2.825,0,0,1-.606,1.208h-.807a4.183,4.183,0,0,0,.5-1.575,2.822,2.822,0,0,1-.906,1.575h-.3a5.479,5.479,0,0,0-3.437,1.765c0-.652,2.024-2.507,2.024-4.452l-.1-.557a15.041,15.041,0,0,1-6.258,1.76l-1.113.09m-1.915,1.674,1.512.394,1.517.253,2.826.186v.186l-1.31,1.579a2.337,2.337,0,0,1-1.113-.466,2.021,2.021,0,0,0,.911.652l-.305.462a1.809,1.809,0,0,1-1.009-.281l.807.557-.305.371-.5-.186-.606-.186.606.371.4.186-.2.557h-.2a1.412,1.412,0,0,1-1.009-.276,2.164,2.164,0,0,0,1.009.557h.1l-.1.462v-.276l-.1.371a1.891,1.891,0,0,1-1.009-.371,2.329,2.329,0,0,0,1.009.647v.281a2.578,2.578,0,0,1-1.206,0,2.135,2.135,0,0,0,1.108.186v.371l.1.742a3.718,3.718,0,0,1-1.108.276h.4a.947.947,0,0,0,.7-.09l.1.186.2.276-.808.742c.2-.09.5-.186.606-.371l.4-.186.5.186a2.079,2.079,0,0,1-.7.837,1.765,1.765,0,0,0,.911-.742l.4.09.906-.186c.2.1.4.281.4.466l-.1-.557.2-.1.4.371-.2-.557.2-.09.2.462-.1-.462,1.108-.833a.513.513,0,0,0,.305.371l-.305-.652c0-.276.2-1.484.507-1.579l.3.281a1.654,1.654,0,0,0,1.718,1.67c.2,0,.911,0,.911.186-.1,1.018-2.831,1.575-3.737,1.76h.808a5.079,5.079,0,0,1-4.037,2.136l-1.009-.186c-3.126-.652-4.037-3.434-4.037-6.217l.315-2.443.694-2.376m-.276-1.566,1.068.244,1.226.113h1.009a16.66,16.66,0,0,0,5.145-1.2l.305.647c0,.742-.911,1.484-1.211,2.041h-.7l-.2-.466v.466h-.606l-.2-.557-.1.557H294.36l-.2-.557-.1.557h-.611l-.2-.652v.561h-.3l-.507-.1a1.051,1.051,0,0,1-.2-.742.97.97,0,0,0,0,.742l-.6-.186a1.012,1.012,0,0,1-.305-.742.738.738,0,0,0,0,.647c-.7-.09-3.23-1.018-3.333-1.665l.758.059.886.231m.67,24.326.414-.308.2-.38a14.39,14.39,0,0,1-4.441,1.394h.4a11.2,11.2,0,0,0,2.206-.281l1.216-.425m-1.251,1.167-.96.1a6.8,6.8,0,0,1-3.028-.652,8.356,8.356,0,0,0,6.056-3.525,1.559,1.559,0,0,1,.906,1.208,1.124,1.124,0,0,1-.4.742c-.1-.186-.4-.281-.606-.371a1,1,0,0,1,.5.928c0,.6-.606,1.018-1.339,1.285l-1.132.29m.556-4.914L288.4,44.782c-.995,1.054-1.566,1.507-3.831,2.063l.3.09a6.376,6.376,0,0,0,4.579-2.828l.167-.6m-5.652,4.267v-.466a3.067,3.067,0,0,0,.606-.928c2.319-.371,4.54-3.525,4.234-5.561.409.276,1.216,1.294,1.113,1.851a5.182,5.182,0,0,0,1.718-.928c0,1.765-1.817,3.991-3.535,4.733l-2.033.719-2.1.579m.5-14.936-1.29.661-1.132.733a1.487,1.487,0,0,0-.4-1.023,7.693,7.693,0,0,1,2.019-.371h.807m-.837-1.964-.827.643a4.6,4.6,0,0,0-1.162,1.6l-.606-.652a14.851,14.851,0,0,1,1.817-1.665,10.875,10.875,0,0,0-2.019,1.48l.4-1.018a4.773,4.773,0,0,1,2.728-.928h.606l-.94.538m-.192-4.33-1.152,1.774a31.841,31.841,0,0,0-1.753,3.778l-.507-.276a22.719,22.719,0,0,1,1.413-3.063,17.06,17.06,0,0,0-1.713,2.878l-.507-.186,1.315-3.154s2.521-2.968,4.338-3.339l-1.433,1.588m-4.928,8.525.433.5.581.43.4-.371-.748-.213m-1.073-1.923,1.315.371-.4.371m-1.009-19.294.1-.276.507.276m-.025,20.973-.581-.38c.1.371.606.652,1.009.928l.305-.371-.734-.176m-.581,2.864,1.315-1.3a12.833,12.833,0,0,1,2.723-.276,4.562,4.562,0,0,1,2.526.557h-.4a8.108,8.108,0,0,0-4.845,1.575l-.66-.344-.655-.213m-.2,8.443.2-1.023a6.01,6.01,0,0,0,2.324.652c1.713,0,2.619-1.389,3.328-2.6a2.322,2.322,0,0,1,.305,1.394,1.788,1.788,0,0,1-.709,1.48,1.988,1.988,0,0,1,.3,1.023l-.1.81-.315.525-.128-.643a2.727,2.727,0,0,0-1.93-1.122l-3.279-.5m1.605-15.176,1.019.566a2.346,2.346,0,0,1,1.113,1.624.758.758,0,0,1-.807.647,3.046,3.046,0,0,1-1.211-.371l1.108-1.2h-.606A2.37,2.37,0,0,1,277.7,32.19c.1-.371.4-.371.709-.371l1,.222m-.9-15.525-.542-.072-.468-.208.1-.276a1.487,1.487,0,0,1,1.516-.371l.3-.466-.709-.833a2.4,2.4,0,0,1,1.216-.561,2.175,2.175,0,0,1,.4,1.118,1.668,1.668,0,0,1-1.108,1.538l-.714.131m-1.009,11.5V24.955A40.375,40.375,0,0,1,282.046,18a47.8,47.8,0,0,0-4.544,6.118v-1.76c1.718-2.5,4.239-5.842,7.371-6.864a38.66,38.66,0,0,0-6.061,9.027l-1.31,3.493m0,2.787V29.221c0-.652,2.324-4.452,2.728-5.1,1.211-1.76,2.826-3.706,4.948-4.543a49.433,49.433,0,0,0-6.258,11.783l-.409-.1-.807.186a64.512,64.512,0,0,1,4.544-8.534l-2.486,3.873L277.5,30.8m1.211,5.842-1.211-.557.911.928m-.935-23.443,1.034-.394-.4-.466a2.135,2.135,0,0,0-1.211,1.67l.222-.475.359-.335M276.9,36.552l.394.5.615.425.4-.371-.743-.24m.34-24.339-.4-.462a2.37,2.37,0,0,0-1.206,1.665,1.465,1.465,0,0,1,.576-.774l1.034-.43m-.606-.647-.3-.466c-.7.466-1.211.928-1.211,1.67a1.158,1.158,0,0,1,.532-.774l.98-.43m-1.551-.186.945-.466-.3-.371c-.606.371-1.211.928-1.211,1.579l.566-.742m.345-1.118-.305-.371a2.135,2.135,0,0,0-1.211,1.674,1.705,1.705,0,0,1,.566-.824l.95-.48m-.507-.647-.4-.281a1.877,1.877,0,0,0-1.211,1.579,1.516,1.516,0,0,1,.581-.787l1.034-.511M273.769,42.95l-.285-.629a1.93,1.93,0,0,0-1.635-1.131l-.3.09a12.279,12.279,0,0,0,1.63,1.136l.591.534m-.507-8.525-.591.412-.419.507-1.108.1a6.618,6.618,0,0,0,1.31-1.579l1.009-.186,1.113.186-1.315.566m-2.019,8.109.625.425.586.548c-.1-.557-.7-1.67-1.408-1.67h-.709l.906.7m-1.915-16.095.871-.118.945.027a.947.947,0,0,0,.7,0l.1.186-2.624-.1m1.817-17.068-.2-.186-2.117,1.484.2.186m-.507,26.715,1.2-.814,1.127-.946,1.408-.1a5.012,5.012,0,0,1,3.437,1.018l-1.516-.181a13.118,13.118,0,0,0-2.866.371l-2.787.647M270.815,7.3l-.276-.154c-.3,0-2.422,2.412-2.624,2.5l.1.186c.2-.186,2.93-1.946,2.93-2.317l-.128-.217m-3.407,35.927h-.1c0,.371.906.652,1.211.837l.807.833a1.905,1.905,0,0,0-1.236-1.566l-.684-.1m.709-25.321.3-.891a1.034,1.034,0,0,1,.911-.407l.4.1a2.941,2.941,0,0,0-.808,1.851,2.113,2.113,0,0,0-1.615,1.023,1.012,1.012,0,0,1-.305-.742.713.713,0,0,1,.4-.6l.709-.326M267,28.108l.1-.186.5.09a1.065,1.065,0,0,0,1.009-1.109c.1-.186.305-.186.611-.186h2.723v.738l-1.615.1,1.512.276v.281H267m1.516-21.149-.305-.09L266.7,8.443l.3.186m.606,8.443-.153.425-.453.222a.713.713,0,0,1-.6-.647.641.641,0,0,1,.6-.652l.453.186.153.466m.305,28.289-.2-.575a1.986,1.986,0,0,0-1.615-1.1h-.3l.906.692,1.211.977m1.516-42.574-.079-.222-.226-.149c-.4,0-3.432,5.1-3.634,5.38l.2.09L267.6,5.339l1.832-2.552m-5.15,27.267.1-.276a5.465,5.465,0,0,0,2.319-1.394h5.145l-.2.742-1.713.186,1.713.186-.2.557h-7.169m1.113-24.859-.2-.186-1.113,1.95.4.186M268.24,48.7l1.393-.181a6,6,0,0,0-2.831-.652l-1.61.1c.1,1.018-1.009,1.67-1.822,2.131l3.171-.964,1.7-.43m-2.949-12.335-1.511.19,1.009.09-.911.371a4.3,4.3,0,0,0-.709-1.113H266.5l-1.211.462M262.868,6.683v-.1l1.113-2.321c0-.276-.305-.367-.507-.367-.305,0-.606,1.48-.606,1.665l-.305,1.023.305.1m-.606,25.135v-.647c.1-.281.2-.466.606-.466l.2.1c.2-.652,1.009-.281,1.113-.561h7.164l-.2.466-1.817.281,1.718.186-.4.647h-8.38m-.1,7.511h-.1a1.42,1.42,0,0,0,.2-.928l-.1-.557.709-.09c5.347-1.113,9.586-5.38,9.586-10.665,0-1.95-1.408-7.05-4.239-7.05l-.606.186a1.923,1.923,0,0,1,1.822-1.3,2.108,2.108,0,0,1,1.615-2.407l-.1.742c0,3.339,3.028,4.823,3.028,9.832,0,6.213-4.643,10.941-11.1,12.149l-.709.091M270.539,32l-.4.647-1.92.186,1.62.186-.507.652h-7.267l-.1-.281c0-.186.4-.371.4-.833V32h8.178m-7.976,12.638-.31-.412-.5-.167a3.951,3.951,0,0,1,.807,2.783,2.539,2.539,0,0,0,.2-1.2l-.2-1m-.606-7.258-.3-.281.3-.833.4-.647.507.462a1.834,1.834,0,0,1,.606,1.018l-.606.1-.911.186m-.3-33.208h-.4l-.2,2.041.305.09m.4,32.095-.315.824a.954.954,0,0,1-.689.475c-.2,0-.2-.186-.305-.276a1.971,1.971,0,0,0,.507-1.113,2.286,2.286,0,0,0-.4-.928h.3a.841.841,0,0,1,.68.335l.227.683M260.244,0l-.315.127-.089.339.2,5.937h.4l.1-5.846-.039-.38m-.049,19.792.089.163c0,.186-.1.281-.507.281-.2,0-.3-.1-.3-.281s.2-.186.4-.186l.315.023M260.269,44.8l-.226-.652a3.065,3.065,0,0,0-.3,1.3,11.634,11.634,0,0,0,.3,1.946,11.146,11.146,0,0,0,.305-1.946l-.079-.652m.34-24.221.241.29c-.1.281-.3.281-.807.281-.606,0-.7-.186-.606-.371.1-.281.305-.281.709-.281l.463.081m-.478,18.552-.325.335-.369.14-.4-.186a1.329,1.329,0,0,0,.4-1.023l-.1-.647c0-.186.2-.281.4-.281.4,0,.7.557.7.837l-.315.824m-1.4-17.52.286-.24a6.465,6.465,0,0,1,1.63-.036c.305,0,.709.091.807.276,0,.371-.1.371-.4.371a7.407,7.407,0,0,1-1.984-.118l-.335-.253m0-17.439h-.409l.409,2.131.3-.09m1.009,15.955,1.413-.091c.2,0,.606.276.606.557,0,.367-.2.552-.606.552h-2.723c-.305,0-.507,0-.507-.462a.58.58,0,0,1,.606-.647l1.211.091m-1.211,15.213-1.113-.186h1.516m-1.92,8.443.2,1.2v-.1a3.568,3.568,0,0,1,.709-2.688.813.813,0,0,0-.724.579l-.187,1m.4-21.932.812-.335a18.169,18.169,0,0,0,3.23,0,1.692,1.692,0,0,1,1.113.652,2.169,2.169,0,0,1,.3,1.208l-.3,1.484a7.178,7.178,0,0,1-1.512,1.851c-.807.928-.807,2.692-1.413,3.158a2,2,0,0,1-.305-1.023c0-1.855,1.516-2.783,1.516-3.986,0-.186,0-.652-.305-.652-.2,0-.3.1-.3.281l.1.647c0,1.2-1.713,2.6-1.211,4.733a1.735,1.735,0,0,1-.7-1.023c-.305-.742-.207-1.765-.611-2.321-.7-.928-1.512-1.76-1.512-2.778a2.041,2.041,0,0,1,.5-1.43l.6-.466m-.359-.086-.655.5a2.436,2.436,0,0,0-.492,1.67c0,1.851,1.512,2.222,1.817,3.52.2.837.4,2.231,1.413,2.507l.4.462c1.211-.738,1.113-2.412,2.422-3.71l.606-.833a3.53,3.53,0,0,0,.606-2.317,2.387,2.387,0,0,0-.606-1.765,2.557,2.557,0,0,0-.911-.371.7.7,0,0,0,.305-.647c0-.371-.4-.557-.709-.652l.1-.371c0-.276-.5-.462-.808-.462l.2-.281a.418.418,0,0,0-.4-.371l.1-.276a.661.661,0,0,0-.709-.561c-.4,0-.7.281-.5.837a.332.332,0,0,0-.305.371l.1.281c-.305.09-.606.09-.709.371v.09l.1.371c-.507.1-.709.281-.709.742a.553.553,0,0,0,.3.557l-.97.339M257.1,5.176l-.325-.882-.369-.394a.327.327,0,0,0-.3.367l1.108,2.416.2-.1L257.1,5.176m-2.309-.167-.2.186.911,1.95.3-.186m.049,8.656,1.349-.344a15.546,15.546,0,0,1,2.841-.24,28.016,28.016,0,0,1,2.826,0,12.013,12.013,0,0,1,3.535,1.113,1.111,1.111,0,0,0-.507.928l.1.462a9.158,9.158,0,0,0-3.131-.833l-2.826-.281A11.406,11.406,0,0,0,255,17.534l.1-.462a1.111,1.111,0,0,0-.507-.928l1.26-.529M255.3,36.271l-.709-.371h4.441a.907.907,0,0,0,.709.186c.807,0,.1-.833,1.413-.647,0-1.489,1.108-.281,1-1.489h6.868l-.61.557-2.014.186,1.61.281-1.108.652h-4.037v-.1l-.709-.462-.906,1.851c-1.31.1-2.93,0-4.239,0l-.807-.276,1.108-.09-2.014-.281m-.709-19.2-.187.425-.418.222a.631.631,0,0,1-.606-.647.584.584,0,0,1,.606-.652l.418.186.187.466m-2.122-5.1,1.413-1.67a8.935,8.935,0,0,1,6.159-2.5,9.534,9.534,0,0,1,2.826.462,9.369,9.369,0,0,1,4.741,4.081,37.865,37.865,0,0,1-4.741.557h-2.826a30.04,30.04,0,0,1-5.721-.471l-1.851-.457m.911,32.416.911-.692h-.305a2.056,2.056,0,0,0-1.817,1.67l1.211-.977m-.709-9.878-.389-.24-.315-.317h5.751c.1.186.507.557.507.837a.8.8,0,0,0,.507.837H254.09l-1.014-.652,1.418-.186-1.822-.281m-.906-27.638-.305.09,1.516,1.67.3-.186m-.5,9.461.847.326a.714.714,0,0,1,.468.6,1.12,1.12,0,0,1-.4.742,2.13,2.13,0,0,0-1.62-1.023,2.911,2.911,0,0,0-.8-1.851l.4-.1a.975.975,0,0,1,1.068.824l.044.475m0,25.321h-.1a2.01,2.01,0,0,0-2.014,1.67c.3-.276.5-.647.906-.833l1.064-.575.148-.262M252.751,5l-1.182-1.783-.709-.8a.5.5,0,0,0-.305.371c0,.276,3.432,4.638,3.737,5.1l.2-.09L252.751,5m3.757,27,.2.371v.186l-.2.09,1.113,1.023h-5.854l-.606-.652,1.615-.186-1.915-.186c-.1-.276-.305-.371-.305-.647h5.953m-2.925,17.122,3.127.964c-.8-.462-1.915-1.113-1.812-2.131l-1.62-.1a5.685,5.685,0,0,0-2.821.652l1.4.181,1.723.43m2.447-18.095.379.787h-6.056l-.4-.647,1.512-.186-1.61-.281-.2-.466H255.5m-6.159-5.747.507-1.136c.635-1.29,1.64-2.855,2.925-2.855.5,0,.807.371,1.315.557l-.2-1.018a1.427,1.427,0,0,0,.7-1.208l-.2-.466a10.912,10.912,0,0,1,5.652-1.48l2.826.276a13.2,13.2,0,0,1,3.732,1.113l-.2.557a1.427,1.427,0,0,0,.7,1.208l-.1,1.018c.4-.186.709-.557,1.211-.557,2.122,0,3.432,3.991,3.634,5.475l-.2.09a.676.676,0,0,1-.6-.371v.371l-1.009.1-.606-.1-.305.371h-.2a.95.95,0,0,0-.807.371l.1.186a.834.834,0,0,1-.606.647l-.5-.09L265.9,28.57a7.594,7.594,0,0,1-1.713.928c-.2.1-.2.281-.305.557-.4.1-.807.1-1.009.376-.606-.1-.807.276-1.113.742a3.138,3.138,0,0,1,.305,1.389c0,.276-.4.371-.4.833v.837l-.606.244a.781.781,0,0,0-.3.593c-.807,0-.606.276-.911.647l-.1.1a1.552,1.552,0,0,1-.709-.281.825.825,0,0,1-.4-.742c0-.557-1.113-1.765-1.615-2.136l.1-.276c0-.557-1-1.76-1.31-2.226v-.371c0-.652-.5-1.394-.5-2.136,0-.186.3-.276.4-.367-.305-.371-.305-1.394-.606-1.394s-.305.466-.4.557c0,.371-.606.466-.911.466a1.767,1.767,0,0,1-1.516-.837c.4,0,1.113,0,1.113-.462,0-.186-.1-.281-.305-.281l-.606.186a.869.869,0,0,1-.5-.276c-.7-.652-.906-.281-1.413-.557l-.1.091h-.305l-.807-.276m0,.557v-.186l.507.186m5.347,3.43.305,1.3v.371h-5.958l-.2-.652,1.718-.276-1.817-.186-.1-.557m.2-21.335-.1.1-.2.276c0,.371,2.723,2.131,2.925,2.317l.2-.186L250.83,8.362l-.876-.81-.61-.407m-.3,20.222V26.9h3.225v-.186h-3.225l.1-.466,1.817-.276-1.817-.1.1-.557h2.319l.4.371h-.2c.4.928.906,1.579,2.019,1.579A1.627,1.627,0,0,0,255,26.719l.2.462-.2.462.1.557h-5.957l-.1-.462,1.615-.281-1.615-.09m1.915-16.511.2-.186-2.117-1.484-.2.186m.906,32.466h-.7c-.709,0-1.418,1.113-1.418,1.67l.532-.548,1.59-1.122m-.606-21.425.468-.937a4.864,4.864,0,0,0,.34-2.959,2.2,2.2,0,0,1,1.615,2.407,2.159,2.159,0,0,1,1.915,1.3l-.7-.186c-2.826,0-4.239,5.1-4.239,7.05,0,5.376,4.54,9.923,10.2,10.756l.2.557a2.5,2.5,0,0,1-.305.928c-6.662-1.018-11.708-5.937-11.708-12.24a10.037,10.037,0,0,1,1.231-5.077l.99-1.6m-.822,14.425-.591-.412-1.314-.566,1.009-.186,1.113.186a6.643,6.643,0,0,0,1.315,1.579l-1.113-.1-.418-.507m.217,6.443-.305-.09a2.052,2.052,0,0,0-1.817,1.76,4.313,4.313,0,0,1,1.177-1.009l.945-.661m-1.881-30.841.345.348.222.439a2.064,2.064,0,0,0-1.206-1.579l-.305.281.945.511m-1.349,26.294.748-.511a6.082,6.082,0,0,1,2.683-.507l1.413.1a13.908,13.908,0,0,0,2.319,1.76,28.675,28.675,0,0,0-5.652-1.018l-1.512.181m.743-25.678.345.371.222.452a2.368,2.368,0,0,0-1.206-1.674l-.305.371.945.48m-.034,1.38-.1-.471a2.819,2.819,0,0,0-1.108-1.109l-.305.371.945.466.571.742m.8,24.393,3.407.511,3.254.787a19.643,19.643,0,0,0,5.15,1.67l.807.276.606-.186.709.281c.4,0,.606-.281.906-.371h.606l.606-.1a28.156,28.156,0,0,0,4.741-1.575,35.31,35.31,0,0,1,6.563-1.3,4.3,4.3,0,0,1,2.422.647,4.108,4.108,0,0,0-3.836-2.036,3.883,3.883,0,0,1,2.526-1.489,2.4,2.4,0,0,0-1.718-.557h-.808a11.562,11.562,0,0,0,1.817-6.3c0-2.787-.808-4.547-2.324-6.959a5.671,5.671,0,0,1-.8-2.873l.2-1.484-1.408.557a1.617,1.617,0,0,0-.911-.186c-.5,0-1.009.09-1.211.557-.507-1.113-4.136-1.95-5.249-2.136-1.009-.09-1.915,0-2.826,0-1.92,0-4.643.186-6.154,1.394a1.317,1.317,0,0,0-1.014.742,1.478,1.478,0,0,0-1.211-.557,1.609,1.609,0,0,0-.906.186l-1.413-.557.2,1.484a5.628,5.628,0,0,1-.807,2.873,11.823,11.823,0,0,0-2.324,6.959,11.562,11.562,0,0,0,1.817,6.3h-.807a2.628,2.628,0,0,0-1.812.557c.906.186,2.216.652,2.619,1.489a4.376,4.376,0,0,0-3.934,2.036l1.26-.462,1.26-.186m-1.93-24.52.384.339.236.434a2.435,2.435,0,0,0-1.31-1.67l-.305.466.995.43m-.566.647.354.339.227.434a2.135,2.135,0,0,0-1.211-1.665l-.4.462,1.034.43m.079,23.6-.724.312-.793.24.4.371.63-.425M244.3,14.38l-.1-.52a2.673,2.673,0,0,0-1.108-1.149l-.4.466a2.325,2.325,0,0,1,1.388.769l.227.434m-1.718.557.4-.276.2.276m-.158,25.769.537-.2,1.137-.149.709-.466-.709-.09A2.59,2.59,0,0,0,242.578,41l.448-.3m-.246-3.692.911-.928a4.093,4.093,0,0,1-1.315.557l.4.371m-.606-2.783-.4-.371,1.211-.371m.305,2.041-.684.38-.832.176.507.371m.4-1.389-.67.344-.743.213.5.371m1.3-20.326.522.29v.276l-.423.208-.487.072a1.65,1.65,0,0,1-1.713-1.67,2.084,2.084,0,0,1,.3-1.118,2.406,2.406,0,0,1,1.211.561l-.709.833.305.466h.4l.591.081m-2.91,19.674h.3c1.413,0,3.835-1.67,3.535-3.154h.1V16.235a3.112,3.112,0,0,0-2.422-2.873,33.763,33.763,0,0,1,3.634-3.715l.606-.186a2.577,2.577,0,0,1,1.615.742c3.131,2.787,9.586,3.249,13.628,3.249l1.713-.09c3.23-.186,8.277-.928,10.8-3.158a2.342,2.342,0,0,1,1.516-.742l.606.186a46.086,46.086,0,0,1,3.737,3.715A3.213,3.213,0,0,0,277,16.235V29.592l.1,2.783a4.335,4.335,0,0,0,3.639,2.968l-2.93,3.43a5.731,5.731,0,0,0-2.117-.371c-4.042,0-7.878,3.62-12.821,4.176l-2.624.09c-6.356,0-10.093-4.172-14.736-4.172l-1.817.186-3.53-3.339m2.619-3.525.428.045.281.326c-.606,1.113-1.718,1.2-2.925,1.113a6.01,6.01,0,0,0,1.108,1.2,3.045,3.045,0,0,1-1.211.371c-.5,0-.807-.276-.807-.647,0-.833,1.078-1.774,2.127-2.19l1-.222m-3.934,10.76.6-.855a10.18,10.18,0,0,1,7.07-2.95,7.533,7.533,0,0,1,4.037,1.484,20.718,20.718,0,0,0,10.6,2.878h1.713a20.187,20.187,0,0,0,7.976-3.063,7.449,7.449,0,0,1,3.732-1.3c2.521,0,6.159,1.113,6.563,3.805a12.014,12.014,0,0,0-1.817-.281,2.863,2.863,0,0,0-2.122.837c-.906-1.484-2.624-2.131-4.441-2.412a6.792,6.792,0,0,1,4.943,6.122l-.906-.1-2.422.1a3.9,3.9,0,0,1-1.817-.281c-.709-2.412-2.117-3.986-4.948-3.986h-.1a6.183,6.183,0,0,1,4.643,5.566,10.28,10.28,0,0,0-4.948-1.3,6.354,6.354,0,0,0-2.319.371v-.371a4.551,4.551,0,0,0-1.413-3.154,4.736,4.736,0,0,1,1.009,2.783,2.924,2.924,0,0,1-1.615,2.6c-1.211.833-2.019.833-2.826,2.131-1.211-2.131-4.441-1.67-4.441-4.728a5.437,5.437,0,0,1,.906-2.783,5.023,5.023,0,0,0-1.31,3.525,6.7,6.7,0,0,0-2.324-.371,9.994,9.994,0,0,0-4.943,1.3c.3-2.412,1.92-5.009,4.643-5.566h-.2c-2.624,0-4.141,1.575-4.746,3.986a4.55,4.55,0,0,1-1.915.281l-2.324-.1-1.009.1a6.8,6.8,0,0,1,4.948-6.122,6.168,6.168,0,0,0-4.441,2.412,2.867,2.867,0,0,0-2.117-.837l-1.92.281m.305-8.348-1.127-.733-1.2-.661h.7a4.44,4.44,0,0,1,1.92.371l-.3,1.023m-.084-1.964-.665-.751a8.008,8.008,0,0,0-1.679-1.181h.507a4.324,4.324,0,0,1,2.728.928l.4,1.018-1.92-1.48a13.1,13.1,0,0,1,1.615,1.665l-.5.652-.487-.851m.128,5.9-1.344-.3-1.329-.1a5.5,5.5,0,0,1,2.728-.557,11.624,11.624,0,0,1,2.521.276l1.211,1.3-.744.244-.67.312-1.1-.674-1.275-.493m1.29-19.792,1.713,2,1.393,1.986v1.76A39.37,39.37,0,0,0,239.151,18a34.775,34.775,0,0,1,4.441,6.955v3.059l-1.25-3.452a37.738,37.738,0,0,0-6.022-9.068,8.461,8.461,0,0,1,2.186,1.154l1.979,1.724m-.655,8.869.734,1.054,1.408,3.154-.5.186a17.063,17.063,0,0,0-1.713-2.878,22.711,22.711,0,0,1,1.413,3.063l-.606.276a17.626,17.626,0,0,0-4.244-7.14,5.648,5.648,0,0,1,2.541,1.285l.97,1m.148-4.457.99,1.335c.4.652,2.624,4.452,2.624,5.1V30.8l-2.161-4.014-2.383-3.873c1.516,2.783,3.23,5.656,4.441,8.534a1.571,1.571,0,0,0-1.113-.09,54.45,54.45,0,0,0-6.455-11.783,8.489,8.489,0,0,1,2.9,1.923l1.157,1.285m2.3,24.339-1.777.43-1.856.222c-1.817,0-5.652-.466-5.652-2.692a2.353,2.353,0,0,1,.507-1.389l.1.462c.1-2.131,1.211-2.226,2.925-2.783a3.241,3.241,0,0,0-1.408,2.321c0,1.855,2.319,3.154,4.136,3.154l.739-.077.714-.2,1.374-.557.2,1.113.1.281v-.281h.305l1.413.186a15.179,15.179,0,0,1-6.361,1.855l-3.53-.276-.758.068-.758.208v-.186c.305-.742,1.315-1.113,2.024-1.389a16,16,0,0,0,4.136.647,6,6,0,0,0,2.669-.584l.763-.529M231.289,36.991l.492.023-.7-.557-.2.371m.8-2.321-.4-.276-.5,1.208m.906,2.131-.8-.652-.2.281.463.29m.138.267-.7-.371-.1.186c.1.186.5.186.7.186h.1m-1.206-3.805-.32.792-.389.787,1.113-1.394m-1.211-2.688.177-.335.025-.407-.1-.557.305.09.606-.09a2.061,2.061,0,0,1-.611,1.122l-.4.176m.2,7.882.921.814a3.146,3.146,0,0,0,1.295.394.624.624,0,0,1-.4.557h-.1a2.29,2.29,0,0,1-1.915-1.67l.2-.1m.2-26.805v-.186l-.807.186m0,15.3.123-.371-.025-.367h.2l.507-.186.3.738c0,.186,0,.371-.2.466l-.906-.281m.906,9.461.4.425c.369.584.729,1.525,1.713,1.525a1.2,1.2,0,0,0,.807-.281l.305-.186a.938.938,0,0,1,.4.742.812.812,0,0,1-.709.742l-.4.1a3.864,3.864,0,0,1-3.427-2.226l.34-.557.566-.281M228.654,5.566l.1-.928-.1-.647a1.5,1.5,0,0,1,1.009,1.484v.462l-1.009-.371m0,6.312.187-.416.419-.14.3.09M228.349,46.38l1.162-.416,1.162-.136a7.016,7.016,0,0,1,2.014.276v.09a2.506,2.506,0,0,0,.911.837l-.911-.1h-.2a6.289,6.289,0,0,0-2.619.557l-1.516-1.113m.945-19.488-.34.1a1.174,1.174,0,0,0-.709-.928,1.024,1.024,0,0,0,.611-.647l.7,1.3-.266.172m.064,12.439-.482.072-.325.208c-.2-.186-.305-.281-.305-.466s.611-.371.611-.371l.5.557m0-8.439-.084.244a.989.989,0,0,1-.724.312c-.4,0-.709-.186-.709-.647a1.989,1.989,0,0,1,.507-1.023,1.6,1.6,0,0,1,.921.729l.089.385m-1.088-20.3.433-.208.453-.081a1.2,1.2,0,0,1,.807.276c-.1-.371-.606-.371-1.009-.371a1.494,1.494,0,0,0-1.413,1.023l.729-.638m1.177,1.633.62.118-.2-.557.2-.557-.305.1-.5-.1a.859.859,0,0,0-.911.652,1.412,1.412,0,0,1-.807.276l1.26.059.645.009m-1.5,8.651.227.253.074.4h-.1l-.911-.186-.1-.466.5-.09m.62,14.235,1-1.344-.4-.186a10.415,10.415,0,0,1-1.822,2.6l1.226-1.068M227.842,20.6h-.2l-.606.186-.1-.281.606-.371m-.4,1.394.591.3.217.443a.338.338,0,0,1-.305.371c-.4,0-.606-.466-.807-.652l.305-.462m-.039,5.145.645-.231c.5,0,1.009.371,1.009.742a.97.97,0,0,1-1.009.833.871.871,0,0,1-.911-.833l.266-.511m.039,2.285.4-.57h.2a1.876,1.876,0,0,0,1.009-.371,1.867,1.867,0,0,1,1.315,1.484c0,.281-.2.371-.507.371a1.367,1.367,0,0,1-1.315-1.113v.557c-.2.371-.5.928-1.108.928-.507,0-.709-.09-.709-.647v-.281l.4-.131.31-.226m-.4-8.543-.4-.1.606-.837.3.376m.507-13.362-1.516,1.489a.357.357,0,0,1-.4-.371c0-.326.325-.606.729-.8l1.187-.317m-.305,21.8-.478.511-.63.231a.631.631,0,0,1-.606-.557,1.3,1.3,0,0,1,.5-1.023l.305-.181.266.647.64.371m-.5-7.14-.241.416-.468.14a.558.558,0,0,1-.6-.557.622.622,0,0,1,.6-.557l.468.172.241.385m.1,5.1-.364.394-.138.534-.606.186a.557.557,0,0,1-.606-.557,1.691,1.691,0,0,1,.305-.928l.665.357.743.014m1.822,6.4.852.339a15.557,15.557,0,0,0,2.979.4c.709.1,1.822.371,1.822,1.113,0,1.579-1.718,1.674-1.822,3.805-.1.371-.606.557-1.108.557-.7,0-1.211-.837-1.413-1.394a2.11,2.11,0,0,0,.606-1.018l.4-.371h.606l-1.413-.186c-1.713,0-3.535.928-4.54.928-.4,0-.507-.186-.507-.462l1.915-1.719,1.62-2m-3.634-9.832-.305-.181c0-.371.4-.652.507-.837l.606.281a1.32,1.32,0,0,1-.527.661l-.281.077m.236-16.461.66-.308.615-.113-1.615,1.674c-.3,0-.4-.1-.4-.281l.217-.529.527-.443m-.266,8.593-.276-.1c-.2,0-.2.186-.2.276,0,.186,0,.281.2.281s.4-.1.4-.281l-.128-.172m.128,6.389v.276c-.1.281-.3.281-.606.281-.2,0-.605,0-.605-.281s.507-.371.709-.371l.5.1m.251,1.552.355-.253.1.38.207.09-.118-.172-.084-.394v-.09l.2-.371h.507l.2.276-.138.52-.153.208.236-.113.153-.43.606.186a.459.459,0,0,0,.507-.462,1.162,1.162,0,0,0-.4-.652h.5v.466a5.877,5.877,0,0,1-1.009,2.968A4.787,4.787,0,0,1,224.11,21.8c.1.281.605.281.911.281a.5.5,0,0,0-.305.462.625.625,0,0,0,.507.462l.35-.113m-.226,23.294.65-.376.537-.448c.3.1.606.281.606.647,0,.928-1.817.928-2.624.928h-.4l-.1-.276,1.334-.475m.177-40.619-.581.57-.428.638c-.1.186-.1.371-.4.371l-.2-.371a1.042,1.042,0,0,1,.581-.81l1.034-.4m-.2,15.4v.186l-.606-.1c-.2,0-.7.186-.7.557l-.2-1.113,1.512.466m-.694-1.846L223.3,18.09a2.879,2.879,0,0,0,1.315-.647.959.959,0,0,0,.906.462c.305,0,.507-.371.507-.647a1.8,1.8,0,0,1,1.31,1.018,9.707,9.707,0,0,1-1.31,1.67l-1.4-.824m1.123,5.593.739.457.852.339a5.613,5.613,0,0,0,1.516-3.615,2.274,2.274,0,0,1,.4,1.389c0,1.3-.709,2.878-2.324,2.878a2.382,2.382,0,0,1-1.211-.557c-1.817-1.208-2.422-3.62-2.624-5.566l.606.462a5.3,5.3,0,0,0,1.418,3.661l.625.552m-.177-11.308.438.348.418.158a.838.838,0,0,0,.808-.371l-.3.1a.712.712,0,0,1-.807-.742l.2-1.2c0-.466-.4-.932-.4-1.3l.5-.928c.305-.462,1.113-.557,1.516-.833a7.365,7.365,0,0,0,1.718-1.3h.807l.325.525.177.588a.691.691,0,0,0-.5.742,1.18,1.18,0,0,0,.3.742v.186c0,1.018.906,2.041,1.512,2.878-.2.276-.7.276-.807.552l-.3.1c-.5,0-.1-.276-.4-.371l-.1.186c0,.371.5.276.8.186l-.1.557a1.947,1.947,0,0,1-1.512.466c.1.371.7.647,1.009.833a.432.432,0,0,0-.305.466c0,.371.4.647.4.928,0,.833-2.728.833-3.23.833l-.507-.09v-.186c0-.928-.4-1.855-1.61-1.855h-.305a1.949,1.949,0,0,1,1.615,1.575h-.2c-.4.1-.7-.557-.7-1.018-.4.276-.1,1.484-.606,1.484s-.911-.928-.911-1.3a.829.829,0,0,0-.1.833l-.911.557-.1-.371c0-.928.7-1.484,1.615-1.76A2.18,2.18,0,0,1,223,13.638c0-.647.611-.742,1.113-.742l.871.158.591.353M222.5,18.832l.606-.652a22.488,22.488,0,0,0,2.826,2.136,1.336,1.336,0,0,0-.606.466l-1.526-.873-1.3-1.077m.5,12.525-.128.425c-.226.385-.679.661-.679,1.149l-.1-.281.094-.371.418-.643.094-.376a1.865,1.865,0,0,0-.4-1.023l.542.421.162.7m.571,13.611.857-.326a2.535,2.535,0,0,0,1.2-1.136h.2c.5,0,1,.091,1,.647,0,1.208-2.821,2.226-3.934,2.226-.606,0-1.009-.186-1.009-.738l.2-.652.605.09.871-.113M221.963,5.29l.832-.837-.1.557a2.777,2.777,0,0,0,.606,1.579c0,.557-.709.742-1.113.837a1.148,1.148,0,0,1-.606-1.023l.1-.566.276-.548m-.177,12.986-.305-.3a2.743,2.743,0,0,1-.3-1.371V14.194l.34,2.041.266,2.041m-1.206-6.864.335-.376c.94-.728,2.905-.484,4.407-1.946-.153,1.529-1.95,1.6-3.437,1.891l-1.3.43m0,1.484,1.152-.624c1.231-.457,2.634-.579,3.693-1.7-.079,1.462-1.915,1.62-3.466,1.919l-1.379.4m1.108-2.909-.906.127h-.4c1.31-.652,2.619-.928,3.934-1.484a6.2,6.2,0,0,1-1.654,1.023l-.97.335m-1.413-.8.556-.434a10.751,10.751,0,0,1,2.27-.769l-1.3.774-1.526.43m.1,16.792.1.742-.2,1.48a2.449,2.449,0,0,0,.906,1.95c-1-.371-1.206-1.023-1.206-2.041l.4-2.131m.015-7.719.487,1.109a3.957,3.957,0,0,1,.7,1.973l-.1.371c-.305-1.67-1.915-2.787-1.915-4.823a6.458,6.458,0,0,1,.5-2.321,7.429,7.429,0,0,1,.1,2.136l.217,1.557m-.66,29.2-.266-.8-.1.371a1.731,1.731,0,0,0,.7,1.3l.305-.281-.645-.588m1.295-24.932.33.747.128.751v.186l-.817-1.561c-1.039-1.588-2.516-3.24-2.516-4.837a4.412,4.412,0,0,1,.611-2.507l-.2,1.394a7.5,7.5,0,0,0,1.462,4.253l1,1.575m-.551,26.819,1.157-.186L222.8,48.7a4.432,4.432,0,0,1-1.915.371c-1.211,0-2.019-.557-2.019-1.855a1.515,1.515,0,0,1,.911-1.389,2.765,2.765,0,0,0,2.821,2.131,3.065,3.065,0,0,0,1.516-.371,2.24,2.24,0,0,0,1.817,1.484,5.007,5.007,0,0,1-2.826.833l-2.019-.091a3.855,3.855,0,0,0-2.624.833,1.6,1.6,0,0,1-.4-.833,1.308,1.308,0,0,1,.807-1.113,1.36,1.36,0,0,0,.694.5l.921.149m-2.117-37.194.492.127.414.339.2.742v.181l-1.211-.09a1.374,1.374,0,0,1-.807-1.113l.911-.186m-.709,17.624v.557c0,.928,1.009.466,1.113,1.3-.507-.462-1.418-.276-1.418-1.2l.074-.362.231-.29m.079-9.6.423.787c.709,1.113,2.526,2.873,2.526,4.172A16.719,16.719,0,0,0,219.167,23c-1.113-1.294-2.122-2.036-2.122-3.986a4.864,4.864,0,0,1,.3-1.67l.138,1.914.246.919m-.281-5.43-.507-.091a2.769,2.769,0,0,1,2.225-1.023,1.647,1.647,0,0,1-1.137,1.032l-.581.081m-.507,11.131-.379-.163-.227-.3v.09c0,.371.2.652.507.652.2,0,.5-.281.7-.466l-.606.186m1.009-12.339-.542.131-.468.335a1.841,1.841,0,0,1-.807-.647,1.348,1.348,0,0,1,.911-.557l.414.439.492.3m-2.619,9.647-.433-.158-.276-.3v.09c0,.371.1.742.507.742a1.158,1.158,0,0,0,.807-.462l-.606.09m.7,19.389.867.127a3.89,3.89,0,0,1,1.96,1.448,5.69,5.69,0,0,0-1.817-.276c-1.211,0-2.826.742-2.826,2.041V46.1a2.447,2.447,0,0,1,1.211-1.394c.305.1,1.108.371,1.108.652,0,.557-1.512.833-1.512,1.855,0,1.3,2.117,1.389,3.23,1.3-.305.276-.606.557-.606.833h-.4c-2.221,0-4.343-1.2-4.343-3.52a3.427,3.427,0,0,1,2.506-3.176l.625-.072m-.271-23.742-.433.448-1.211.661-2.831-1.113h.1c1.009,0,3.333-.557,3.737-1.484l.807-.186c-.2.371,0,.652,0,1.113l-.172.561m11.979,12.335h.1l.507.647-.911.186.807.09-.1.281a3.206,3.206,0,0,1-1.315,0,1.514,1.514,0,0,0,1.113.462l-.1.1-.7.09-.709-.09a2.213,2.213,0,0,0,1.211.462l-.1.1h-.4a3.073,3.073,0,0,1-.911,0l1.009.462-.2.186h-.3l-.808-.091a2.64,2.64,0,0,0,.906.462l-.4.371a2.178,2.178,0,0,1-1.108,0l.807.376-.4.371h-1.009c.1.186.4.276.606.371a5.985,5.985,0,0,1-1.713.923l-.812-.09-.807-1.575-.2-.281v.281l-.606-.1a1.417,1.417,0,0,0-.8.281l.3-.1,1.211.186.1.371a6.561,6.561,0,0,0-1.408.186h.3l1.211.1.1.276-1.31.186h.3l1.211.186v.186a2.155,2.155,0,0,0-1.108.276l.5-.09.606.09.1.281-1.113.276.507-.09.807.09c.2.557,1.009,1.208,1.009,1.855l-.4.742a9.65,9.65,0,0,0,1.817,3.063,2.219,2.219,0,0,1-1.817,1.2c-.709,0-.911-.371-1.009-.928a1.812,1.812,0,0,0,.7-.557l-.808.371-.1-.276.807-.652-.911.371-.1-.371a1.316,1.316,0,0,0,.7-.557l-.807.371-.1-.186.7-.647a1.363,1.363,0,0,1-1.009.371c-.2-.371-.7-.652-1-1.018a1.4,1.4,0,0,0,.8-.561,1.752,1.752,0,0,1-1.108.376c-1.211,0-.7-1.208-1.108-1.95-.2-.557-1.822-2.5-2.427-2.5-.5,0-.6-.1-.8-.466v-.371a4,4,0,0,0-.807-2.136,4.214,4.214,0,0,1,.4,2.231v.186l-.507.09a1.269,1.269,0,0,1-.7-1.113v.281a1.388,1.388,0,0,0,.3.833l-.3.281a2.884,2.884,0,0,1-.709-.837l.4,1.023-.606-.742.4.833-.1.1-.507-.742a1.382,1.382,0,0,0,.305.833h-.1L212.7,36l.305.738-.2.186-.507-.833.305.928-.911.186c-.7-.371-1.512-.928-1.512-1.67l.2-.652L212,33.687l1.315-1.407h.3c1.009,0,2.122-1.109,2.723-1.665l.911.928c.3.09,1.113.276,1.113.552s-1.315.371-1.315,1.3c0,.557.807,1.023,1.413,1.113a1.075,1.075,0,0,1-.606-.928c0-.742,1.92-.09,1.92-1.2,0-.833-1.413-1.2-1.413-1.855,0-.557.5-1.023,1.009-1.394,0,1.765,2.521,1.489,2.521,2.416,0,.462-.906.923-.906,1.665,0,1.484,2.925,1.208,2.925,2.878l-.2.647a1.14,1.14,0,0,0,.507-1.018c0-1.394-1.822-1.3-1.822-2.321,0-.557,1.315-1.018,1.315-2.036,0-1.674-2.422-1.208-2.422-2.878,0-1.575,1.31-1.76,1.31-3.615a5.034,5.034,0,0,0-.606-2.412c.305,0,.4-.371.4-.557a3.26,3.26,0,0,0-.7-1.579,4.588,4.588,0,0,1,.7-1.394A2.223,2.223,0,0,0,223,19.946V20.5a7.143,7.143,0,0,0,1.718,4.823,1.826,1.826,0,0,0-.605,1.3,1.894,1.894,0,0,0,.709,1.3l-.1.742c0,.557.507.928,1.009,1.113l-.1.371c0,.462.325.719.753.86l1.364.163-1.187-.271c-.4-.149-.729-.38-.729-.751l.1-.557c-.3,0-1.009-.466-1.009-.837a1.359,1.359,0,0,1,.4-.928,1.268,1.268,0,0,1-.7-1.109,1.647,1.647,0,0,1,.5-1.113l.2.186-.1.928c0,.462.1.738.7.738-.2.281-.606.652-.606,1.113s.507.742,1.009.742l-.2.466a.9.9,0,0,0,1.009.837l.5-.1.1.652M209.073,18l1.009-.186a1.258,1.258,0,0,0,.5.738L209.073,18m-.2,23.927-.1-.09-.1-.281h.3m-.4-7.882V31.262h.507v2.131M211.8,20.226l-.719.475-.793.267a.633.633,0,0,1-.606-.837l-.305.1c-.606,0-1.315-.281-1.315-.837l.1-.557,3.634,1.394,1.059.335,1.064.407a2.236,2.236,0,0,0-.812,1.484,3.255,3.255,0,0,0,2.024,2.6c.1,1.018-.305,2.407,1.408,2.407h.4c-2.216-.647-.606-1.946-1.61-2.873a1.694,1.694,0,0,1-1.718-1.855,3.864,3.864,0,0,1,.507-1.76c1.915.742,4.032,2.317,4.032,4.452a6.464,6.464,0,0,1-1.413,3.43,5.176,5.176,0,0,0,1.516-3.525A3.944,3.944,0,0,0,217.547,23c1.113.466,2.225,1.113,2.225,2.321a6.37,6.37,0,0,1-.305,1.484c-.7,1.3-4.136,5.195-5.751,5.195-.507,0-.611-.647-.611-.928l.1-.462a1.022,1.022,0,0,0,.911-.376l.808.281a1.159,1.159,0,0,0,1.108-.837,1.157,1.157,0,0,1-.906.557.956.956,0,0,1-.709-.276,2.07,2.07,0,0,1-1.211.557.966.966,0,0,1-1.009-.837l.2-.557a1.671,1.671,0,0,0,1.211-.462,1.092,1.092,0,0,0,.911.462,1.683,1.683,0,0,0,1.211-.742,2,2,0,0,1-1.009.466,1.582,1.582,0,0,1-.911-.371l.2-.281a2.838,2.838,0,0,1-1.615.742c-.606,0-1.211-.276-1.211-.928l.1-.557a2.472,2.472,0,0,0,1.113.281c.911,0,1.413-.462,1.315-1.3v-.186a1.085,1.085,0,0,1-1.014,1.2,2.356,2.356,0,0,1-1.31-.552l.4-.371a1.828,1.828,0,0,1-1.108.557,2.8,2.8,0,0,1-1.009-1.3c0-.371.3-.742.4-1.023l.606.1c0,.371.2.928.7.928a2.992,2.992,0,0,0,1.713-.652,3.491,3.491,0,0,1-1.31.371c-.606,0-.709-.186-.606-.647v-.1c.606-.186.7-.837,1.615-.837H212.5c-.7,0-.606.747-1.713.747a1.644,1.644,0,0,1-1.413-.747c-.5-.09-1.009-.371-1.009-.742a1.653,1.653,0,0,1,.305-.738l.5.09c.1.647.911,1.018,1.516,1.018a2.736,2.736,0,0,0,1.812-.833,3.108,3.108,0,0,1-1.812.462,1.093,1.093,0,0,1-1.009-.647l1.31-.462-1.211.091c-.606,0-1.31-.091-1.31-.742a1.481,1.481,0,0,1,.3-.928h.606a.8.8,0,0,0,.911.652,1.558,1.558,0,0,0,.867-.326l.645-.6m-3.028,15.3.709-.186a2.251,2.251,0,0,0,1.31,1.946l-1.211.1-.807-1.855m0,0,.2.964.507.891h-.911l-.379-.814-.227-.946m-.507,4.633v-.09h.4l-.4-.281h.606l-.29-.068-.212-.208h.606l-.507-.186.1-.1h.606l-.507-.186.2-.186.709.186-.5-.276.606-.1c.807,0,1.211.742,1.31,1.484a3.138,3.138,0,0,1-1.31.466l-.748-.163-.67-.3m-.3-6.308V31.172l.606.09V33.95m.212,6.878.9.176a3,3,0,0,0,1.615-.561h.1l.1.1c0,.466-1.413.833-1.817.833a3.047,3.047,0,0,1-1.62-.552l.4.09-.5-.466.817.385m-.177-4.29.369.846-.709-.1a4.616,4.616,0,0,1-.4-1.665c.2.09.4,0,.606,0l.138.914m-1.246-.914h.4l.2,1.665h-.606c-.2-.09-.2-.462-.2-.647l.2-1.018m-.33-10.489-.177.285c0,.647,1.113.833,1.615.928,0-.281-1.108-.557-1.108-.928,0-.186,1.413-.466,1.615-.557h-.709l-.822.1-.414.167m-.276,8.443V30.891l.606.1v2.873m-.7-16.326.7.1,1.211-.281c.2.371.507.466.911.652a3.805,3.805,0,0,1,1.413.647l3.127,1.3,3.028,1.023a1.149,1.149,0,0,0,0,.833,8.135,8.135,0,0,0-2.319-1.3l-8.075-2.968m.5,5.38-.655.149a.568.568,0,0,0-.354.5c0,.466.606.932,1.009,1.208,0-.276-.606-.742-.606-1.113,0-.557,1.108-.652,1.413-.652l-.807-.09m-.67,23.583.542-.543.734-1.244h.2c.4,0,.606.1.606.466,0,.557-1.615,2.226-2.221,2.226-.3,0-.4-.281-.5-.557l.64-.348m-.842-13.475V30.43l.5.276v2.6m-.4-12.651-.286.2-.118.3c0,.557.709,1.018,1.113,1.2-.305-.276-.807-.833-.807-1.2s1.108-.557,1.408-.557l-.6-.1-.709.149m-.1-2.652-.419.081-.187.285c0,.652,1.108,1.023,1.615,1.113-.2-.186-1.211-.833-1.211-1.113l.807-.186L204.834,18m-1.211,13.819V29.778l.606.371v2.317m.2-17.805.753.149.758-.059,1.009.742a11.855,11.855,0,0,1-2.624.557,1.382,1.382,0,0,1-1.413-1.113l1.516-.276M202.948,30.95l-.236-.244V29.126l.4.371v1.765M204.43,38.5l.3-.371-2.122-.281-1.413-.09,1.413.276M201.8,13.267l.33.253.478.118.911.09a1.047,1.047,0,0,0,.709.837l-1.62.1c-1.009,0-2.216-.1-2.216-1.208v-.276l1.408.09m1.418,26.344.4-.371-1.014-.1-2.319-.276,2.319.557m-.7,1.018.3-.276-2.216-.281M201.1,23.841l.615.244.9.032a2.593,2.593,0,0,0,1.216-.276,1.986,1.986,0,0,0,1.413.462l.2-.09c-.709,0-1.615-.281-1.615-1.113a1.073,1.073,0,0,1,.3-.833c-.3-.186-.807-.557-.807-.837,0-.647,1.009-1.113,1.009-1.484,0-.557-1.413-1.113-1.413-2.131l.2-.742,4.338,1.575-.1.647a1.126,1.126,0,0,0,.5.932l-.1.742a1.451,1.451,0,0,0,.507,1.2,1.651,1.651,0,0,0-.305.928c0,.652.709,1.018,1.315,1.2l.3.281a1.981,1.981,0,0,0-.5,1.023c0,.647,1.009,1.76,1.817,1.67l-.2.647a1.192,1.192,0,0,0,1.206,1.2l-.1.466a1.251,1.251,0,0,0,.807,1.023v.091l.1.281-1.615.186c-.8,0-1.812-.186-1.812-1.118l.2-.742h-.807c-.812,0-1.516-.09-1.516-.928a2.557,2.557,0,0,1-1.211.186c-.2,0-1.713-.371-1.713-.742s1.108-.738,1.413-.833c.3.833,1.408,1.018,2.117,1.018v-.371h-.4c-1.009,0-1.713-.186-1.512-1.2a1.092,1.092,0,0,1-.911-.462,2.752,2.752,0,0,1-1.92.557l-.4-.1a.931.931,0,0,1-.4-1.018L201.2,25.7c-1,0-1.512-.557-1.408-1.484l.655-.118.655-.253m-.1-.09-.906.3-.906.163a.819.819,0,0,1-.911-.837V23.19h.2a9.966,9.966,0,0,0,2.221-.552l-.1.367.084.443.315.3m-2.5-12.964.581.439v.1c0,.742.606,1.113,1.413,1.113l.906-.1.2.652c-1.206-.186-3.732-.652-3.732-2.231l.2-.557.428.584m1.29,10.181.276.281a2.017,2.017,0,0,0,1.132.276h1.413l.611-.1.5.652-.1.923.1.747-1.113-.1c-.606,0-1.812-.186-1.812-.928l.2-.371h-.1a10.355,10.355,0,0,1-2.019.371c-.5,0-1.113,0-1.113-.557l.1-.557,1.92-.647m-1.516,6.4-.074.172-.231.1a.306.306,0,0,1-.3-.276c0-.186.1-.276.3-.276l.231.068.074.208m0,12.891h-.4a2.557,2.557,0,0,1-.709,1.208l.743-.534.369-.674m.039-1.24.064-1.262h.1c.305.371,0,1.389.911,1.389.807,0,.7-1.3.7-1.76l1.009-.652h.4l1.108.1,2.122.462c.807.186,1.615.186,1.817,1.023a17.187,17.187,0,0,1-2.925,2.317l-1.014.837H201.4l1.113.276.2.371h-.1a2.609,2.609,0,0,1-1.211,0,1.662,1.662,0,0,0,1.113.281h.4l.709.647a1.865,1.865,0,0,0-.4,1.023,2.078,2.078,0,0,1,.7-.837l.2.186a1.865,1.865,0,0,0-.4,1.023l.709-.742h.3a2.4,2.4,0,0,0-.5,1.018l.7-.742,1.615.557v.186l-.138.525c-.266.6-.871,1.33-1.477,1.33a2.082,2.082,0,0,1-.808-.276l-.4.462h-.1c-.305-.923-.1-1.48-1.014-2.317a13.338,13.338,0,0,0-3.732-2.226c-.5-.186-1.92-.186-1.92-.742a11.375,11.375,0,0,1,.606-1.67.665.665,0,0,0,.542-.226l.207-.552m.453,8.036,1.28.389,1.256.145a3,3,0,0,0,1.31-.281,1.474,1.474,0,0,0,.507-.742c.1.371.2.557.606.557.2,0,.507-.186.507-.276a1.823,1.823,0,0,0,.7,0v.09c0,.466.305.652.709.652a2.848,2.848,0,0,0,2.117-1.3l.709-.1.3.186s-1.615,1.67-2.221,1.67a.671.671,0,0,1-.507-.371,1.631,1.631,0,0,0,.507,1.113,11.512,11.512,0,0,0-3.939-.833h-.3a8.665,8.665,0,0,0-4.037,1.018v-.186a1.7,1.7,0,0,1,.709-1.113,6.188,6.188,0,0,0-2.427-.928l-.1-.923,1.083.665,1.226.561M209.881,16.33l.4.09a5.236,5.236,0,0,0,3.53-1.484,6.329,6.329,0,0,1-3.126,1.113,2.317,2.317,0,0,1-1.718-.833,6.78,6.78,0,0,0,2.221-1.394,6.587,6.587,0,0,1-3.028,1.208c-.507,0-1.211.09-1.516-.466a15.935,15.935,0,0,0,2.629-1.113,11.118,11.118,0,0,1-3.836.928c-.507,0-1.211-.186-1.211-.742a12.491,12.491,0,0,0,2.925-1.113,13.7,13.7,0,0,1-3.634.837,1.464,1.464,0,0,1-.911-.186A1.414,1.414,0,0,1,202,12.063l.606-.186,1.216-.557-1.216.371a6.163,6.163,0,0,1-1.812.276c-.4,0-1.009-.09-1.009-.557v-.09h.3a8.5,8.5,0,0,0,2.521-.652l.4-.281-.4.186a8.158,8.158,0,0,1-2.521.557,1.733,1.733,0,0,1-1.713-1.2h.606a5.533,5.533,0,0,0,2.216-.371l-1.408.09c-1.211,0-4.037-.462-4.037-2.036l.148-.543.453-.48L199.4,8.362l3.205,1.566,5.249,2.412c2.324.837,7.774,2.136,9.187,3.9a2.16,2.16,0,0,0-1.009.837l-1.009.186c-.3.833-2.624,1.2-3.432,1.2a.811.811,0,0,1-.906-.833l.5-.371h.3c1.615,0,3.131-.186,3.84-1.67a3.509,3.509,0,0,1-3.235,1.389l-.906-.09a3.435,3.435,0,0,1-1.915.742,1.23,1.23,0,0,1-1.009-.371l1.615-.928-1.63.638a6.017,6.017,0,0,1-1.7.29,1.208,1.208,0,0,1-1.31-1.113,7.108,7.108,0,0,0,1.812-.652l.507.1.709-.1.768.52.847.317M196.252,28.013l-.305.281c-.3,0-.4-.186-.4-.281,0-.276.1-.371.4-.371l.192.081.113.29m.807-8.068.281.434a2.5,2.5,0,0,0,1.536.588l.808-.1v.1l-1.388.38-1.541.176c-.4,0-2.014,0-2.014-.742a1.706,1.706,0,0,1,.5-.928l1.817.09m-.606,26.991.7.186a3.113,3.113,0,0,0-1.812,1.113l.7.186c.2.1.4.186.4.371,0,.281-.305.466-.606.466a1.077,1.077,0,0,1-1.108-1.023,1.286,1.286,0,0,1,1.063-1.213l.65-.086m-2.723-18.181-.089.294-.315.077c-.2,0-.305-.09-.305-.371,0-.186.1-.276.305-.276l.315.068.089.208m-.1-.462-.684.208-.227.624c0,.371.305.652.911.652a.762.762,0,0,0,.808-.652.835.835,0,0,0-.251-.624l-.556-.208m.832-3.959.985-.032-1.211-.186c-.906,0-2.324.652-2.526,1.394a2.856,2.856,0,0,1,1.718-1.023l1.034-.154m-2.949.063,1.221-.557a6.581,6.581,0,0,1,2.713-.281,2.11,2.11,0,0,0-1.31-.276,4.63,4.63,0,0,0-3.737,1.95l1.113-.837m-.409,4.543-.128.258-.271.113a.378.378,0,0,1,0-.742l.271.118.128.253m.4,4.823-.3-.09-.1.09c0,.281-.5.742-.906.928l.768-.357.542-.57m-.606-5.285-.551.186-.251.462a.848.848,0,0,0,.8.837.943.943,0,0,0,.911-.837.584.584,0,0,0-.305-.462l-.606-.186m-.566,5.683.305-.434.162-.52-.3-.09a4.367,4.367,0,0,1-1.009,1.575l.842-.529m-.414-9.778,1.2-.751a9.358,9.358,0,0,1,2.309-1,8.125,8.125,0,0,1,2.624-.466l1.108.186a1.332,1.332,0,0,0,.709.742v.186a1.021,1.021,0,0,0,.911.928l1.413,2.412c.906,1.575,1.31,3.339,2.418,4.919a6.024,6.024,0,0,0,4.544,2.778c2.221,0,4.136-1.76,5.549-3.149a1.136,1.136,0,0,0,.61,1.018,14.255,14.255,0,0,1-2.624,2.131,6.922,6.922,0,0,1-3.535.932,5.822,5.822,0,0,1-4.544-2.136,32.62,32.62,0,0,1-2.723-5.195c-.5-.928-1.511-2.688-2.728-3.059a3.411,3.411,0,0,1,.911.742h-.2c-2.221,0-4.239,1.3-6.46,1.3a2.612,2.612,0,0,1-2.521-1.394l.3-.462.734-.665m-.153,2.425.763.281.876.09c2.221,0,4.54-1.3,6.765-1.484l.7,1.023-.606-.1c-2.324,0-4.441,1.575-6.765,1.575a3.318,3.318,0,0,1-3.023-1.851l.4-.742.31.715.571.489m.222-12.452.812.208a3.59,3.59,0,0,0,3.028,1.579,3.023,3.023,0,0,1-2.019.557c-2.221,0-3.939-1.113-3.939-3.249l.1-.462a4.606,4.606,0,0,0,1.26,1.032l.753.335m-.4,7.909v.186l-.438.29-.67.077c-.305,0-1.315-.181-1.315-.647l.4-.091.743.091,1.275.1m-.177,2.154-.63.326a3.871,3.871,0,0,1-1.413.3c-.2,0-.606,0-.606-.281s2.526-.557,3.028-.837l.1.1-.482.394m.177-1.321-.207.231a2.9,2.9,0,0,1-1.206.231c-.305,0-1.615-.09-1.615-.557,0-.186.1-.367.3-.367l1.009.276.822.163.9.023m0,.462.1.19a8.955,8.955,0,0,1-2.629.552c-.5,0-.606-.09-.606-.552l.2-.19a2.632,2.632,0,0,0,1.211.1l1.718-.1m12.816-5.471-1.172.258-1.246.113a2.671,2.671,0,0,1-2.122-.742l1.718-.647a6.081,6.081,0,0,1-2.324.462,3.532,3.532,0,0,1-2.723-1.389,7.075,7.075,0,0,0,2.417-.557,8.89,8.89,0,0,1-2.117.276c-1.31,0-2.624-.186-3.333-1.3h.1a4.376,4.376,0,0,0,2.422-.462,6.357,6.357,0,0,1-1.92.276,4.891,4.891,0,0,1-3.629-1.484h2.925l-1.713-.167c-2.142-.226-5.15-.715-5.15-2.244l.305-.837,8.8,3.643,8.956,3.5v.281l-.177.507-.025.511.63.824.586.475.34.208.266.348c0,.371-1.216.837-1.009,1.394l-.611.091H202a2.1,2.1,0,0,1-1.915-.742l1.413-.462a6.416,6.416,0,0,1-2.319.371c-.709,0-1.418-.186-1.62-.837l1.216-.557a4.024,4.024,0,0,1-1.822.371,2.383,2.383,0,0,1-2.117-.928l1.108-.557a10.026,10.026,0,0,1-2.319.371,1.714,1.714,0,0,1-1.718-1.2,3.34,3.34,0,0,0,2.024-1.113,3.937,3.937,0,0,0,3.427,1.67c.4.738,1.516.923,2.324.923a3.34,3.34,0,0,0,2.422,1.023l1.044-.2.473-.172-1.014.09a3.027,3.027,0,0,1-2.216-.742l1.044-.253.97-.394m-16.046,3.434-.315.208-.089.348c-1.108-.1-3.131-1.208-3.131-2.416,0-.371.507-.557.911-.371l2.624,2.231m-.906,1.113-.305.552c-1.009-.09-4.239-1.665-4.239-2.688a.759.759,0,0,1,1.211-.557c.606.466.807,1.113,1.615,1.67l1.718,1.023m-4.746-7.05.7.267a8.612,8.612,0,0,1,1.418,1.959h-.4a.883.883,0,0,0-.807.276,3.147,3.147,0,0,1-1.206-1.946l.035-.348.266-.208m0-.652-.128.258-.276.113a.418.418,0,0,1-.4-.371.358.358,0,0,1,.4-.371l.276.081.128.29m1.585,7.516.532.276a9.305,9.305,0,0,0,2.225.928.538.538,0,0,0,0,.557c-.911,0-5.15-1.208-5.15-2.131,0-.186.2-1.023.507-1.023l1.886,1.394m-.97,1,2.112.855,1.615.376.3.462h-.606c-1.108,0-5.549-.371-5.549-1.855,0-.186.2-.557.4-.557l1.723.719M179.8,14.565l-.192.416-.414.14a.56.56,0,0,1-.606-.557.627.627,0,0,1,.606-.557l.414.176.192.38m-1.315.837.744.231.67.511c.709.557.606,1.389,1.009,2.131-.4,0-.807.462-1.108.647-.807-.647-2.024-1.76-2.024-2.778l.2-.584.507-.158m.2,5.751-.1-.186A1.256,1.256,0,0,1,179.8,19.76a1.3,1.3,0,0,1,1.61-1.023.973.973,0,0,1,1.009-.647,1.986,1.986,0,0,1,1.418.833l-.606.1-.507-.186c-.4,0-.709.462-.807.647h-.305c-.808,0-1,.561-1.108,1.208,0,0-1.108,1.023-1.009,1.67-.4.1-.906.281-.906.742a1.12,1.12,0,0,0,.4.742c-.305.186-.2.371-.2.652-.4-.19-1.014-.281-1.014-.742a.652.652,0,0,1,.305-.561,1.046,1.046,0,0,1-.305-.923,1.173,1.173,0,0,1,.512-.968l.4-.145m-.3-6.679-.074.312a.9.9,0,0,1-.837.43.747.747,0,1,1,0-1.489.9.9,0,0,1,.837.434l.074.312m-1.576,1.783.414.312a30.909,30.909,0,0,1,2.373,2.819.943.943,0,0,0-.911.837c-1.009-.652-3.23-1.95-3.23-3.063a.987.987,0,0,1,1.009-1.018l.345.113m-2.058,31.792,1.881-.891A13.424,13.424,0,0,1,181.92,46.1a10.789,10.789,0,0,1,6.662,2.226,6.7,6.7,0,0,0-2.728-.371,13.736,13.736,0,0,0-3.328.833l1.615-1.3h-.906a14.688,14.688,0,0,0-4.746,1.113l1.211-1.3a8.254,8.254,0,0,0-2.324.163l-2.619.579m1.915-33.113-.094.448a1.165,1.165,0,0,1-1.118.665,1.117,1.117,0,1,1,0-2.226,1.165,1.165,0,0,1,1.118.665l.094.448m1.615,5.846-.394.208-.315.348c-.807-.371-3.328-1.394-3.328-2.321,0-.186.4-1.2.807-1.2a6.224,6.224,0,0,1,1.576,1.344l1.654,1.624m-4.037-.837,3.126,1.67a1.239,1.239,0,0,0-.1,1.023c-1.113-.1-3.328-.928-3.328-2.136l.074-.348.226-.208m0-4.081.591.208.217.629c0,.371-.3.647-.807.647s-.906-.276-.906-.647a.78.78,0,0,1,.266-.629l.64-.208m.064,1.738.138.3a.58.58,0,0,1-.606.647.615.615,0,0,1-.5-.552.623.623,0,0,1,.606-.557l.364.158m-.162,1.416-.128.258-.276.113a.437.437,0,0,1-.4-.466l.3-.276.369.118.138.253M194.234,20.5l-.955-.19c-.965-.253-1.871-.76-1.871-1.946l.2-.738a2.048,2.048,0,0,0,1.62,1.131l.7.072.374.407.532.335-.34.43-.266.5v.186c0,1.113,2.117,1.3,2.925,1.113v.371a11.605,11.605,0,0,0-3.126-.462,24.129,24.129,0,0,0-3.634.371l-.2.462c0,.371.305.647.507.928l-.2.186c-.4,0-.709-.557-.709-.928l.305-.647-.305.091a4.718,4.718,0,0,1-2.221-.647l-.2.371c-.305,0-.606.186-.606.462a.554.554,0,0,0-.4.833.514.514,0,0,0-.305.466.647.647,0,0,0,.2.557c-.2,0-.3.186-.3.371s.2.371.4.466v.276l-.1.1c-.3,0-.7-.281-.6-.652a.645.645,0,0,1-.305-.557.5.5,0,0,1,.305-.462l-.2-.376a.577.577,0,0,1,.4-.557l-.1-.181c0-.186.2-.466.4-.466v-.091a.388.388,0,0,1,.5-.281c.1-.276.305-.276.507-.276a12.61,12.61,0,0,1-5.45-6.032c-.2-.371-.709-1.484-1.31-1.484h-.2a1.928,1.928,0,0,0-1.615-.371,1.768,1.768,0,0,0-1.216-.462c-.3,0-.7.09-.807.276l-1.206-.276a1.581,1.581,0,0,0-1.718,1.575V15.4a1.012,1.012,0,0,0-.7.928l.2.928a.454.454,0,0,0-.305.462l.2.557-.1.557.3,1.113c1.615,4.172,6.765,5.751,11.1,5.751a18.635,18.635,0,0,0,4.643-.557,19.218,19.218,0,0,0-2.122,4.543,5.064,5.064,0,0,1-2.216,3.434c-1.315.833-3.033.647-4.545.833-1.713.186-3.939,1.118-3.939,2.968,0,1.3,1.009,1.579,1.009,2.321,0,.928-2.319,1.389-2.319,2.968,0,1.113,1.512,2.131,2.422,2.5-.4-.276-1.009-.833-1.009-1.389,0-1.67,4.343-.837,4.343-3.154,0-1.484-2.019-2.412-2.019-3.9l.1-.371c1.413-.833,4.441-.276,6.563-1.113a5.576,5.576,0,0,0,2.979-2.688l.453-1.3.177-.837.025-.837c-1.014,4.267-2.831,5.846-7.371,5.941l-2.019.091c-.906.281-1.718.928-1.615,1.855l.507-.928v.186c0,1.484,1.915,2.5,1.915,3.9,0,1.855-3.131,1.389-4.037,2.412.606-1.855,3.737-.837,3.737-2.692a.83.83,0,0,0-.4-.742l.1.371a.961.961,0,0,1-.906,1.023l.1-.557c0-1.394-1.413-2.136-1.413-3.063a1.16,1.16,0,0,1,.3-.738,1.385,1.385,0,0,0-.7,1.018c0,.833.807,1.3.807,2.041,0,.833-1.113,1.018-1.718,1.389.507-.462,1.315-.742,1.315-1.389,0-.928-1.009-1.023-1.009-2.041,0-1.76,2.019-2.783,3.634-2.968,1.615-.281,3.333.186,4.746-.837,2.216-1.389,2.521-4.638,3.53-6.955.305,1.484,2.019,2.041,3.328,2.041a12.21,12.21,0,0,0,4.042-.928.61.61,0,0,0-.4.647.739.739,0,0,0,.7.742.766.766,0,0,0,.807-.742c0-.557-.507-.742-.911-.742l1.92-.552a.925.925,0,0,0-.4.647c0,.371.3.557.709.557.3,0,.7-.186.7-.557,0-.276-.3-.557-.7-.647h.7c1.315,2.222,1.718,5.1,3.732,7.045a6.156,6.156,0,0,0,3.235,1.579l-.1.837.1.833a14.87,14.87,0,0,1-3.235-.833A1.263,1.263,0,0,1,202,35.344a2.314,2.314,0,0,1-1.512,1.484l-.807.462.1.652c0,.276,0,.742-.305.833-.807,0-.2-1.3-1.009-1.3s-.1,1.95-.807,1.95c-.606,0-.507-1.67-.911-1.67-.606,0-.1,2.041-.807,2.041-.8,0-.4-1.67-1.108-1.67s-.4,1.484-1.009,1.484c-.5,0-.4-1.394-.5-1.765l-.911.1a10.036,10.036,0,0,0,5.347-3.434h.2a1.591,1.591,0,0,0,1.315-.742,1.875,1.875,0,0,1-1.009.371h-.4l.2-.276a1.728,1.728,0,0,0,1.315-1.113,1.387,1.387,0,0,1-1.113.647l.305-1.2c-1.113,2.878-3.23,4.452-6.263,5.471a7.551,7.551,0,0,0-2.014.837,2.373,2.373,0,0,0-.911,1.484,2.836,2.836,0,0,1-1.413.462h1.315v.281a3.575,3.575,0,0,1-1.516.466,3.7,3.7,0,0,0,1.413,0v.367a2.4,2.4,0,0,1-1.413.281,3.763,3.763,0,0,0,1.413.09,3.476,3.476,0,0,0,.305,1.394v.09l.5-.09c.305,0,.606.276.606.462,0,.928-2.624,2.136-3.432,2.136-.4,0-.507-.09-.507-.371l.1-.466a4.071,4.071,0,0,0,2.4-.991l.33-.679-.384.557a4.953,4.953,0,0,1-2.344.837c-.1-.652-.507-.557-1.009-.557-.3,0-.7-.1-.7-.466,0-.742,2.319-4.081,2.319-5.842,0-.652-.709-.837-.709-1.3,0-.928,2.831-.928,2.831-3.525a3.765,3.765,0,0,0-.428-1.787l-.379-.529.453.95.153,1.086c0,2.878-3.033,2.321-3.033,3.805,0,.557.709.833.709,1.3,0,1.67-2.319,4.823-2.319,5.842,0,.928.807.837,1.511.837l.1.09c.2,0,.2.186.305.371l-.1.561.162.471.547.267.931-.181a5.859,5.859,0,0,0,2.4-1.394c.2.09.4.276.4.466,0,.647-2.521,1.76-3.328,1.76l-.305-.1-.1-.276V46.38l-.079.326.079.326a11.478,11.478,0,0,0-5.249-1.3,14,14,0,0,0-8.882,3.244,21.448,21.448,0,0,1,5.854-1.389,10.8,10.8,0,0,0-1.413,1.76,15.434,15.434,0,0,1,4.741-1.389l.911-.186-2.925,2.317c1.713-.742,4.037-1.76,5.953-1.76a29.054,29.054,0,0,1,2.93.276l-.4-.647a7.928,7.928,0,0,0,3.023.462,1.23,1.23,0,0,0,.606,0,7.08,7.08,0,0,1-1.108-1.484l.2-.371c.4,0,.807,1.67,2.019,1.67l.507-.091-2.324-2.968a1.1,1.1,0,0,0-.906-.466l.2-.742a.781.781,0,0,0-.8-.833l-.606.09v-1.2c0-2.041.4-3.249,2.521-3.9h1.113c0,.462-.1,1.76.7,1.76.911,0,.709-1.3,1.009-1.575l.1.09c.1.557.2,1.579,1,1.579.606,0,.807-1.023.807-1.484.1.371.305,1.113.709,1.3a3.929,3.929,0,0,0-.911,1.67v.186c0,.557.709.647,1.211.742a10.489,10.489,0,0,1,4.845,2.6,2.25,2.25,0,0,1,.4,1.389c0,.186-.2.466-.4.466a2.445,2.445,0,0,1-1.108.276,7.73,7.73,0,0,1-5.854-2.783,6.931,6.931,0,0,0,.5,2.412h-.2a1.546,1.546,0,0,0-1.812,1.484,1.633,1.633,0,0,0,1.713,1.579c.606,0,1.211-.371,1.211-.928,0-.371-.4-.742-.606-.928a1.6,1.6,0,0,1,1.009-.281l.807.1a1.1,1.1,0,0,0-.606,1.113l.2.833c.911-.833,3.432-1.389,4.741-1.389h.4a10.371,10.371,0,0,1,3.836.647,5.058,5.058,0,0,0,2.024.281l2.117-.186-1.915-1.3.2-.186c.7,0,1.31.928,1.915,1.113l.2-.281c0-.928-2.22-2.688-3.23-2.688l.1-.652c0-.557-.409-.833-1.014-.833l-.7.186c-.606-.281-3.535-2.226-3.535-2.878l1.516-1.113c1.009-.647,2.521-1.67,2.925-2.783l1.014.1V38.5a1.833,1.833,0,0,0-1.315,1.67l-.4.371c0,.466,1.108.928,1.516,1.018a.557.557,0,0,0,.606.557c.3,0,.4-.276.5-.557.4-.091,1.516-.552,1.516-1.018a.418.418,0,0,0-.4-.371,1.748,1.748,0,0,0-1.516-1.67v-.742c1.413,0,4.643-.281,5.352-1.484h1.009a1.183,1.183,0,0,0,1.108.557,5.858,5.858,0,0,1,2.122,2.226c.4.928-.1,2.136,1.512,2.041.807.928,2.019,2.6,2.019,3.71v.09a1.147,1.147,0,0,0-.4.932c0,.647.606,1.018,1.31,1.018l.709-.1.305.371v.186l-1.216.186c-1.009,0-2.216-.462-2.216-1.484a1.159,1.159,0,0,1,.2-.738h-.4c-1.315,0-2.122.647-2.122,1.946l.305,1.113h-.812c-.606,0-2.216-.186-2.216-.928,0-.837,1.512-1.023,1.512-1.946,0-.466-.507-.747-1.009-.932a2.688,2.688,0,0,1,1.615-.462,2.923,2.923,0,0,1,1.817.647,3.769,3.769,0,0,0-3.53-2.412,3.888,3.888,0,0,0-3.737,3.71c0,2.321,1.817,3.62,4.338,3.62h1.009v.09a2.13,2.13,0,0,0,1.216,1.67c1.009-1.3,3.225-1.113,4.741-1.113a4.716,4.716,0,0,0,3.028-1.018l2.019.186.911-.1a6.713,6.713,0,0,1-1.113-1.389l.305-.371a9.382,9.382,0,0,1,1.413,1.484.458.458,0,0,0,.5-.466.945.945,0,0,0-.5-.742,5.153,5.153,0,0,1,2.619-.557l1.516.186-1.516.557a3.122,3.122,0,0,0-.906,2.136v.742a6.211,6.211,0,0,1,.906-1.3,4.4,4.4,0,0,1,1.516-.281l3.432.281,2.068-.235,2.068-.507a3.345,3.345,0,0,0,1.718.371,7.033,7.033,0,0,0,1.92-.371h-.1c-.606,0-1.512-.371-1.512-.928a.624.624,0,0,1,.4-.557l1.108.09a5.053,5.053,0,0,0,2.117-.462l-.3,2.688a8.631,8.631,0,0,1,6.056-2.317,5.017,5.017,0,0,1,2.122.371c.906,2.6,3.934,2.317,4.741,3.71.507-.837,1.915-1.113,2.826-1.67a3.7,3.7,0,0,0,1.817-2.041,6.174,6.174,0,0,1,2.221-.371,8.2,8.2,0,0,1,5.953,2.317,12.5,12.5,0,0,0-.2-2.688,5.385,5.385,0,0,0,2.024.462,8.46,8.46,0,0,0,2.117-.371,1.551,1.551,0,0,1,.4,1.113,1.4,1.4,0,0,1-1.713,1.394l1.31.09c1.211,0,3.028-.186,2.93-1.67,1.211,0,2.821.371,2.821,1.67a3.652,3.652,0,0,1-.4,1.394,3.146,3.146,0,0,0,1.822-3.154l.906-.1a8.5,8.5,0,0,0,3.732.928c1.113,0,3.033-.371,3.333-1.575l1.009-.186h.2c.808-.1,1.413.371,1.315,1.2a1.647,1.647,0,0,0,.5-1.113,1.329,1.329,0,0,0-.906-1.2,10.969,10.969,0,0,1,3.934-.742c.7,0,1.615.1,1.615.928,0,.928-1.817.833-2.526.742.709,1.2,2.629,1.575,3.939,1.3l.2.647c0,.837-1.615,1.023-2.324,1.113a7.485,7.485,0,0,0,2.023.186c1,0,3.23-.276,3.53-1.484a5.741,5.741,0,0,0,4.746,2.226,3.515,3.515,0,0,0,3.126-1.2,3.787,3.787,0,0,0,2.019.462c1.211,0,5.248-.647,5.958-1.67l2.821.1a18.028,18.028,0,0,1,4.239.833c2.226.742,4.648,1.67,7.07,1.67a5.6,5.6,0,0,0,3.83-1.3c2.728.371,5.554,1.3,8.281,1.3S352.7,49.9,352.7,46.846c0-2.136-1.713-3.063-3.835-3.339a2.11,2.11,0,0,1,1.516,1.95,7.851,7.851,0,0,0-2.122-.186h-1.413c1.108.276,2.319.923,2.319,2.131,0,1.575-1.31,2.226-2.821,2.226l-1.92-.1c1.009,0,3.23-.186,3.23-1.484a2.262,2.262,0,0,0-.606-1.3l.1-.371c0-.462-.709-1.109-1.009-1.2l-.2.1-.305-.652a8.9,8.9,0,0,0-1.315-2.6c-.906-1.394-2.821-3.063-2.821-4.638,0-1.389,1.713-3.991,2.319-5.566l.606-2.226a12.9,12.9,0,0,0,.305-2.688l-.1-1.023v.371c-2.723-.186-4.741-1.67-6.662-3.249l-.305-2.036c1.413,1.3,4.042,4.267,6.159,4.267h.3c-2.117-.557-4.943-3.063-6.558-4.452-.2-2.045-.7-4.081-1.009-6.217a19.224,19.224,0,0,1,10.9,17.624v1.3c0,1.579,1.413,2.412,1.413,3.71,0,.371-.2.462-.507.462-.606-1.76-1.408-1.665-1.512-3.986l-.1.647c0,1.95,1.31,2.878,1.31,3.71,0,.281-.1.371-.4.371-.808-1.67-1.713-1.67-1.713-3.9,0-1.3.3-2.593.3-3.891a7.992,7.992,0,0,0-.852-3.747l-.763-.986.63,1.036a8.067,8.067,0,0,1,.684,3.416c0,1.394-.4,2.6-.4,3.986,0,2.6,2.117,3.805,2.117,5.475a2.7,2.7,0,0,1-.5,1.208l.3.09c1.108-.837,2.221-1.95,2.221-3.434s-1.113-1.946-1.718-3.154c-.4-.928-.1-2.226-.1-3.244a9.873,9.873,0,0,0-.305-2.412A19.555,19.555,0,0,0,343.31,19.2c-4.845-5.29-12.915-8.163-20.187-9.09a63.5,63.5,0,0,0-8.375-.557,7.174,7.174,0,0,0-2.826-.928A5.144,5.144,0,0,0,305.261,6.4a7.374,7.374,0,0,0-3.23-.652c-2.019,0-3.432,1.3-4.544,2.787-1.512,2.036-3.427,2.783-4.54,5.19a11.777,11.777,0,0,0-.709,3.158c-.5.371-1.713,1.389-1.713,2.036,0,.466.709.466,1.009.557a9.865,9.865,0,0,0-1.108,3.158c-.807,0-1.718-.557-2.526-.557-.305,0-.606.091-.606.462,0,.742,1.718,1.575,2.324,1.76a15.154,15.154,0,0,0-1.216,5.1c0,2.968,1.014,5.937,4.544,6.679l1.009.1a5.619,5.619,0,0,0,4.441-2.321c.911-.466,3.028-.837,3.028-2.041,0-.742-1.108-.647-1.615-.647h-.5c-.1-.466-.611-1.95-1.216-1.95-.906,0-1.009,1.484-1.009,2.041a4.952,4.952,0,0,1-2.619,1.3c-1.014,0-1.216-.742-1.216-1.484,0-2.226,1.92-4.357,3.634-5.751l-.2,1.113.2.466c.4,0,2.225-2.321,4.042-2.321,1.108,0,2.117.281,3.23.281a7.388,7.388,0,0,0,2.422-.371v.276a1,1,0,0,0,.3.742c-.2.281-.4.466-.4.837,0,.186.2.371.4.557l-.2.552a.712.712,0,0,0,.3.652,2.021,2.021,0,0,0-.3,1.018.972.972,0,0,0,.7.928c-1,3.339-8.375,3.339-9.286,8.443l-.1-.281c-.507.1-1.009.371-1.009.928l.2.652c-.606.186-1.512.647-1.512,1.394,0,1.109,2.417,1.851,3.328,2.131l-.808-.1a8.468,8.468,0,0,0-5.248,1.765l-.507.371v-.09a1.329,1.329,0,0,0-1-1.3,6.356,6.356,0,0,0,.7-2.688l-.1-.652a4.338,4.338,0,0,1-1.812,1.394,8.058,8.058,0,0,0-2.024-2.783l.1,1.113a5.458,5.458,0,0,1-1.915,4.452,7.889,7.889,0,0,1-1.817,1.3v-.276a4.952,4.952,0,0,0-1.014-2.787c-.5,1.67-1.615,3.339-3.732,3.339a3.932,3.932,0,0,1-1.817-.371v-.181a5.079,5.079,0,0,0-.507-2.136,4.9,4.9,0,0,1,2.728-1.023,2.163,2.163,0,0,1,1.113.186l.1-.647a3.393,3.393,0,0,0-1.713-2.692,9.689,9.689,0,0,1,4.845-1.018l2.521.09a7.3,7.3,0,0,0-5.047-1.67,10.791,10.791,0,0,0-2.422.281l1.615-1.946c.4-.1.4-.281.7-.561a8.864,8.864,0,0,1,3.131-1.575h.807a5.932,5.932,0,0,0-2.221-.557l-1.413.186a5.934,5.934,0,0,1,3.23-2.412,3.947,3.947,0,0,0-1.512-.281,4.256,4.256,0,0,0-2.422.652,14.571,14.571,0,0,1,4.239-6.122h-.507c-1.516,0-3.131,1.208-4.136,2.321a50.01,50.01,0,0,1,4.943-7.887c-3.835.928-6.154,4.452-7.671,7.516,1.516-4.362,4.338-8.072,7.371-11.6-3.737.837-6.258,3.9-8.281,6.774V16.792l1.009.186a2.112,2.112,0,0,0,2.225-2.131,2.715,2.715,0,0,0-1.009-2.041c-1.113-1.113-2.226-2.416-3.432-3.434A2.235,2.235,0,0,0,275.182,9a2.843,2.843,0,0,0-1.817.928,13.218,13.218,0,0,1-3.634,1.855l-1.517.371A9.791,9.791,0,0,0,262.868,7.7a9.534,9.534,0,0,0-2.826-.462,9.783,9.783,0,0,0-8.277,4.638l-.305-.1a12.021,12.021,0,0,1-3.634-1.855A2.834,2.834,0,0,0,245.912,9a1.888,1.888,0,0,0-.906.371c-1.315,1.018-2.324,2.321-3.535,3.434a2.715,2.715,0,0,0-1.009,2.041,2.108,2.108,0,0,0,2.221,2.131l.911-.186V21.71c-1.92-2.878-4.441-5.937-8.277-6.774a33.756,33.756,0,0,1,7.464,11.6c-1.61-3.063-3.934-6.588-7.666-7.516a43.475,43.475,0,0,1,4.845,7.887,5.33,5.33,0,0,0-4.544-2.321c2.221,1.67,3.23,3.8,4.239,6.122a4.266,4.266,0,0,0-2.422-.652,3.948,3.948,0,0,0-1.511.281,7.032,7.032,0,0,1,3.328,2.412l-1.516-.186a5.931,5.931,0,0,0-2.216.557,6.119,6.119,0,0,1,3.934,1.575,1.056,1.056,0,0,0,.709.561l1.61,1.946a10.951,10.951,0,0,0-2.521-.281,7.737,7.737,0,0,0-5.145,1.67l2.319-.186a11.231,11.231,0,0,1,4.948,1.023,4.646,4.646,0,0,0-2.422,3.43,2.135,2.135,0,0,1,1.108-.186,4.874,4.874,0,0,1,2.723,1.023l-.5,2.041a6.6,6.6,0,0,1-2.422.557c-1.615,0-4.136-.742-4.136-2.6A3.409,3.409,0,0,1,237.128,41l-1-.1a2.519,2.519,0,0,0-2.624,2.5l-.812,1.023-.2.837.1.647a4.494,4.494,0,0,0-1.915-.462,12.224,12.224,0,0,0-2.629.552,3.163,3.163,0,0,0-1.31-.738,1.721,1.721,0,0,0,.4-1.118c0-.833-1.009-.928-1.713-.833l-1.516-2.878a.828.828,0,0,0,.2-.647c0-1.023-.807-1.484-1.113-2.321l1.113.1c2.319,0,4.239-1.484,6.662-1.484v.281l-1.009.833h-.1a1.234,1.234,0,0,0-1.009,1.018l.2.281c-.4,0-1.014.186-1.014.557,0,.276.4.371.507.647a2.294,2.294,0,0,0-1.315,2.041,3.538,3.538,0,0,0,.4,1.765,4.756,4.756,0,0,0,2.122-1.484,10.915,10.915,0,0,1-.5,1.67,3.336,3.336,0,0,0,2.319-2.6.779.779,0,0,0,.5-.466h.507l.3-.09a1.056,1.056,0,0,0,1.014-1.023,1.279,1.279,0,0,0-.709-1.113v-.09c0-.928,2.019-2.131,2.019-3.805,0-1.2-1.31-1.389-2.324-1.575a29.494,29.494,0,0,1-3.831-.557l.4-.462a2.073,2.073,0,0,0,1.31-1.765,3.352,3.352,0,0,0-.606-1.67,1.671,1.671,0,0,0,.305-.742,1.715,1.715,0,0,0-.507-.928,1.683,1.683,0,0,0-.906-1.575,4.054,4.054,0,0,0,.606-2.136,5.138,5.138,0,0,0-2.427-4.081l1.211-1.2c.611-.1,2.93.09,2.93-1.023l-.3-.928c.8-.09.8-.462.8-1.113l.2-.276-.1-.371v-.1c0-.557.808-.466.808-.928,0-.371-1.009-1.575-1.315-2.041a5.135,5.135,0,0,1-.1-2.136,1.967,1.967,0,0,0-.606-1.575V6.959a.945.945,0,0,0-.5-.742c0-1.113-.2-2.317-1.718-2.5l.1.371-.305,1.294a7.551,7.551,0,0,0-2.422-.462,7.674,7.674,0,0,0-2.526.462l-.1-.557a1.7,1.7,0,0,1,.2-1.018,3.147,3.147,0,0,0-2.122,2.783,5.436,5.436,0,0,0-2.216,5.29c-.1-.186-.507-.281-.709-.281a2.382,2.382,0,0,0-1.413.557l.2.371a1.863,1.863,0,0,0-1.615.837,1.911,1.911,0,0,0,1.211.742l-.4.833,1.615.371-.507.837h-.1c-1.915-1.95-5.249-2.783-7.873-3.71a40.13,40.13,0,0,1-6.765-3.158l-6.356-3.525a2.648,2.648,0,0,0-1.108,1.86c0,1.2,1.512,2.036,2.619,2.222l-.3,1.208c0,1.3,1.315,1.855,2.422,2.041v.281c0,1.3,1.31,1.67,2.521,1.575a.837.837,0,0,0,.2.652,2.344,2.344,0,0,0,2.122.647.983.983,0,0,0,.507,1.023l-2.629-1.023c-5.854-2.321-11.905-4.452-17.759-6.959a2.762,2.762,0,0,0-.606,1.484c0,1.579,2.417,1.95,3.629,2.136l-.1,1.113c0,1.95,1.315,3.249,3.53,3.249a2.3,2.3,0,0,0-.3,1.109c0,1.186,1.078,1.792,2.171,2.023l1.059.113" transform="translate(-172.836 0)"/>
      </g>
      <text id="_6" data-name="6" transform="translate(21091.598 -254.5)" font-size="5" font-family="MerriweatherSans-Bold, Merriweather Sans" font-weight="700"><tspan x="-3.475" y="0">6</tspan></text>
      <text id="_7" data-name="7" transform="translate(21129.426 -253.5)" fill="#fff" font-size="6" font-family="MerriweatherSans-Bold, Merriweather Sans" font-weight="700"><tspan x="-3.765" y="0">7</tspan></text>
    </g>
  </g>
</svg>
