<svg xmlns="http://www.w3.org/2000/svg" width="30" height="30" viewBox="0 0 30 30">
  <g id="noun-complete-2844134" transform="translate(-2.004 -2.004)">
    <g id="Group_73439" data-name="Group 73439" transform="translate(2.004 2.004)">
      <circle id="Ellipse_128" data-name="Ellipse 128" cx="15" cy="15" r="15" transform="translate(0 0)"/>
      <path id="Path_9607" data-name="Path 9607" d="M17.128,2.5A14.628,14.628,0,1,0,31.756,17.128,14.641,14.641,0,0,0,17.128,2.5Zm0,27.5A12.872,12.872,0,1,1,30,17.128,12.906,12.906,0,0,1,17.128,30Z" transform="translate(-1.756 -1.756)"/>
      <path id="Path_9608" data-name="Path 9608" d="M35.5,45.883,31.4,41.8l-1.7,1.743,4.134,4.082v.043l.511.51L35.5,49.285h.043l.043.043,12.4-12.969L46.237,34.7Z" transform="translate(-23.105 -26.641)" fill="#fff"/>
    </g>
  </g>
</svg>
