<svg xmlns="http://www.w3.org/2000/svg" width="35.663" height="34.956" viewBox="0 0 35.663 34.956">
  <g id="Group_73384" data-name="Group 73384" transform="translate(-666.602 -1475.669)">
    <g id="Group_73106" data-name="Group 73106" transform="translate(666.688 1475.647)">
      <rect id="Rectangle_18068" data-name="Rectangle 18068" width="9.933" height="9.933" transform="translate(12.761 2.73)" fill="#fff"/>
      <rect id="Rectangle_18069" data-name="Rectangle 18069" width="9.933" height="9.933" transform="translate(22.282 12.787)" fill="#fff"/>
      <rect id="Rectangle_18070" data-name="Rectangle 18070" width="9.933" height="9.933" transform="translate(13.05 23.031)" fill="#fff"/>
      <rect id="Rectangle_18071" data-name="Rectangle 18071" width="9.933" height="9.933" transform="translate(3.639 13.095)" fill="#fff"/>
      <rect id="Rectangle_18061" data-name="Rectangle 18061" width="10.234" height="10.234" transform="translate(12.755 12.482)" fill="#ff7b40"/>
      <path id="Rectangle_18057" data-name="Rectangle 18057" d="M2,0H9.933a0,0,0,0,1,0,0V9.933a0,0,0,0,1,0,0H0a0,0,0,0,1,0,0V2A2,2,0,0,1,2,0Z" transform="translate(3.338 2.429)" fill="#ff7b40"/>
      <path id="Rectangle_18058" data-name="Rectangle 18058" d="M2,0H9.933a0,0,0,0,1,0,0V9.933a0,0,0,0,1,0,0H0a0,0,0,0,1,0,0V2A2,2,0,0,1,2,0Z" transform="translate(22.483 2.429)" fill="#fff"/>
      <rect id="Rectangle_18059" data-name="Rectangle 18059" width="9.933" height="9.933" transform="translate(22.483 23.231)" fill="#ff7b40"/>
      <path id="Rectangle_18060" data-name="Rectangle 18060" d="M2,0H9.933a0,0,0,0,1,0,0V9.933a0,0,0,0,1,0,0H0a0,0,0,0,1,0,0V2A2,2,0,0,1,2,0Z" transform="translate(3.338 23.231)" fill="#fff"/>
      <line id="Line_960" data-name="Line 960" y2="30.736" transform="translate(3.338 2.429)" fill="none" stroke="#000" stroke-width="0.5"/>
      <line id="Line_961" data-name="Line 961" x2="29.021" transform="translate(3.338 2.429)" fill="none" stroke="#000" stroke-width="0.5"/>
      <line id="Line_962" data-name="Line 962" y2="30.736" transform="translate(13 2.429)" fill="none" stroke="#000" stroke-width="0.5"/>
      <line id="Line_963" data-name="Line 963" y2="30.736" transform="translate(22.747 2.429)" fill="none" stroke="#000" stroke-width="0.5"/>
      <line id="Line_964" data-name="Line 964" y2="30.736" transform="translate(32.416 2.429)" fill="none" stroke="#000" stroke-width="0.5"/>
      <line id="Line_965" data-name="Line 965" x2="29.021" transform="translate(3.338 12.693)" fill="none" stroke="#000" stroke-width="0.5"/>
      <line id="Line_966" data-name="Line 966" x2="29.021" transform="translate(3.338 22.912)" fill="none" stroke="#000" stroke-width="0.5"/>
      <line id="Line_967" data-name="Line 967" x2="29.021" transform="translate(3.338 33.165)" fill="none" stroke="#000" stroke-width="0.5"/>
      <g id="Path_9558" data-name="Path 9558" transform="matrix(0.695, -0.719, 0.719, 0.695, 0, 7.62)" fill="rgba(255,255,255,0.5)">
        <path d="M 4.646352291107178 39.02434921264648 C 3.487242460250854 39.02434921264648 2.392622470855713 38.55716705322266 1.564112424850464 37.70886611938477 C 0.6289724707603455 36.75137710571289 0.112142451107502 35.3764762878418 0.146152451634407 33.93669891357422 L 0.8162224292755127 5.566807746887207 C 0.8842224478721619 2.687677621841431 3.070472478866577 0.2950777113437653 5.689732551574707 0.2333077043294907 C 5.724262237548828 0.2324976921081543 5.759022235870361 0.2320877015590668 5.793352603912354 0.2320877015590668 C 6.952462673187256 0.2320877015590668 8.047082901000977 0.6992676854133606 8.875592231750488 1.54756772518158 C 9.810732841491699 2.505057811737061 10.32756233215332 3.879957675933838 10.29355239868164 5.319737911224365 L 9.623482704162598 33.68963623046875 C 9.555482864379883 36.56876754760742 7.369232654571533 38.96135711669922 4.749972343444824 39.02312850952148 C 4.715442657470703 39.0239372253418 4.68068265914917 39.02434921264648 4.646352291107178 39.02434921264648 Z" stroke="none"/>
        <path d="M 5.793352603912354 0.482086181640625 C 5.76096248626709 0.482086181640625 5.728192329406738 0.4824676513671875 5.695632457733154 0.4832382202148438 C 3.207822322845459 0.5419082641601562 1.131052017211914 2.825027465820312 1.066152572631836 5.572708129882812 L 0.396082878112793 33.94260787963867 C 0.363652229309082 35.31548690795898 0.8545722961425781 36.62456893920898 1.742952346801758 37.53417587280273 C 2.547189235687256 38.35763931274414 3.61422872543335 38.79990768432617 4.744072437286377 38.77318954467773 C 7.231882095336914 38.71452713012695 9.308652877807617 36.4314079284668 9.373552322387695 33.6837272644043 L 10.04362201690674 5.313827514648438 C 10.07605266571045 3.940948486328125 9.585132598876953 2.631866455078125 8.696742057800293 1.722259521484375 C 7.915672302246094 0.922515869140625 6.884562492370605 0.482086181640625 5.793352603912354 0.482086181640625 M 5.793349742889404 -0.017913818359375 C 8.496555328369141 -0.017913818359375 10.61375904083252 2.350166320800781 10.54348278045654 5.325637817382812 L 9.873412132263184 33.69553756713867 C 9.802192687988281 36.7109489440918 7.510992527008057 39.20808792114258 4.755862236022949 39.27304840087891 C 2.00075626373291 39.33801651000977 -0.1749973297119141 36.94620895385742 -0.1037778854370117 33.9307975769043 L 0.5662927627563477 5.560897827148438 C 0.63751220703125 2.545486450195312 2.928712368011475 0.04834747314453125 5.683842658996582 -0.01662063598632812 C 5.720333099365234 -0.01748275756835938 5.757066249847412 -0.017913818359375 5.793349742889404 -0.017913818359375 Z" stroke="none" fill="#000"/>
      </g>
    </g>
  </g>
</svg>
