<svg xmlns="http://www.w3.org/2000/svg" xmlns:xlink="http://www.w3.org/1999/xlink" width="200" height="200" viewBox="0 0 200 200">
  <defs>
    <filter id="Ellipse_112" x="24.999" y="28" width="143" height="143" filterUnits="userSpaceOnUse">
      <feOffset dy="3" input="SourceAlpha"/>
      <feGaussianBlur stdDeviation="3" result="blur"/>
      <feFlood flood-opacity="0.161"/>
      <feComposite operator="in" in2="blur"/>
      <feComposite in="SourceGraphic"/>
    </filter>
  </defs>
  <g id="Group_73146" data-name="Group 73146" transform="translate(-451 -1660)">
    <g id="Group_73105" data-name="Group 73105" transform="translate(459.999 1670)">
      <circle id="Ellipse_119" data-name="Ellipse 119" cx="29" cy="29" r="29" transform="translate(65.528 6)"/>
      <circle id="Ellipse_122" data-name="Ellipse 122" cx="29" cy="29" r="29" transform="translate(65.528 123)"/>
      <circle id="Ellipse_117" data-name="Ellipse 117" cx="29" cy="29" r="29" transform="translate(124 94.77)"/>
      <circle id="Ellipse_121" data-name="Ellipse 121" cx="29" cy="29" r="29" transform="translate(7 94.77)"/>
      <circle id="Ellipse_118" data-name="Ellipse 118" cx="29" cy="29" r="29" transform="translate(124 36.295)"/>
      <circle id="Ellipse_120" data-name="Ellipse 120" cx="29" cy="29" r="29" transform="translate(7 36.295)"/>
      <g transform="matrix(1, 0, 0, 1, -9, -10)" filter="url(#Ellipse_112)">
        <circle id="Ellipse_112-2" data-name="Ellipse 112" cx="62.5" cy="62.5" r="62.5" transform="translate(34 34)"/>
      </g>
      <g id="Ellipse_107" data-name="Ellipse 107" transform="translate(58.001 58)" fill="#ff905e" stroke="#000" stroke-width="1">
        <circle cx="29" cy="29" r="29" stroke="none"/>
        <circle cx="29" cy="29" r="28.5" fill="none"/>
      </g>
      <g id="Ellipse_108" data-name="Ellipse 108" transform="translate(58.001)" fill="#fff" stroke="#000" stroke-width="1">
        <circle cx="29" cy="29" r="29" stroke="none"/>
        <circle cx="29" cy="29" r="28.5" fill="none"/>
      </g>
      <g id="Ellipse_109" data-name="Ellipse 109" transform="translate(58.001 117)" fill="#fff" stroke="#000" stroke-width="1">
        <circle cx="29" cy="29" r="29" stroke="none"/>
        <circle cx="29" cy="29" r="28.5" fill="none"/>
      </g>
      <g id="Ellipse_110" data-name="Ellipse 110" transform="translate(117 88)" fill="#fff" stroke="#000" stroke-width="1">
        <circle cx="29" cy="29" r="29" stroke="none"/>
        <circle cx="29" cy="29" r="28.5" fill="none"/>
      </g>
      <g id="Ellipse_111" data-name="Ellipse 111" transform="translate(0 88)" fill="#fff" stroke="#000" stroke-width="1">
        <circle cx="29" cy="29" r="29" stroke="none"/>
        <circle cx="29" cy="29" r="28.5" fill="none"/>
      </g>
      <g id="Ellipse_113" data-name="Ellipse 113" transform="translate(117 29)" fill="#fff" stroke="#000" stroke-width="1">
        <circle cx="29" cy="29" r="29" stroke="none"/>
        <circle cx="29" cy="29" r="28.5" fill="none"/>
      </g>
      <g id="Ellipse_114" data-name="Ellipse 114" transform="translate(0 29)" fill="#fff" stroke="#000" stroke-width="1">
        <circle cx="29" cy="29" r="29" stroke="none"/>
        <circle cx="29" cy="29" r="28.5" fill="none"/>
      </g>
      <text id="F" transform="translate(87 98)" font-size="30" font-family="MerriweatherSans-Medium, Merriweather Sans" font-weight="500" letter-spacing="-0.025em"><tspan x="-8" y="0">F</tspan></text>
      <text id="l" transform="translate(87.001 157)" font-size="30" font-family="MerriweatherSans-Medium, Merriweather Sans" font-weight="500" letter-spacing="-0.025em"><tspan x="-7" y="0">L</tspan></text>
      <text id="O" transform="translate(146 128)" font-size="30" font-family="MerriweatherSans-Medium, Merriweather Sans" font-weight="500" letter-spacing="-0.025em"><tspan x="-11" y="0">O</tspan></text>
      <text id="W" transform="translate(146 69)" font-size="30" font-family="MerriweatherSans-Medium, Merriweather Sans" font-weight="500" letter-spacing="-0.025em"><tspan x="-14" y="0">W</tspan></text>
      <text id="E" transform="translate(87.001 40)" font-size="30" font-family="MerriweatherSans-Medium, Merriweather Sans" font-weight="500" letter-spacing="-0.025em"><tspan x="-8" y="0">E</tspan></text>
      <text id="R" transform="translate(29 69)" font-size="30" font-family="MerriweatherSans-Medium, Merriweather Sans" font-weight="500" letter-spacing="-0.025em"><tspan x="-10" y="0">R</tspan></text>
      <text id="D" transform="translate(29 128)" font-size="30" font-family="MerriweatherSans-Medium, Merriweather Sans" font-weight="500" letter-spacing="-0.025em"><tspan x="-10" y="0">D</tspan></text>
    </g>
    <rect id="Rectangle_18161" data-name="Rectangle 18161" width="200" height="200" transform="translate(451 1660)" fill="none"/>
  </g>
</svg>
